G04*
G04 #@! TF.GenerationSoftware,Altium Limited,Altium Designer,21.6.4 (81)*
G04*
G04 Layer_Physical_Order=1*
G04 Layer_Color=255*
%FSLAX25Y25*%
%MOIN*%
G70*
G04*
G04 #@! TF.SameCoordinates,85F88870-6580-45CF-999F-45165BC928DD*
G04*
G04*
G04 #@! TF.FilePolarity,Positive*
G04*
G01*
G75*
%ADD15C,0.01000*%
%ADD22R,0.05938X0.04750*%
%ADD23R,0.03740X0.04331*%
%ADD24O,0.07677X0.02362*%
%ADD25R,0.05000X0.13504*%
%ADD26R,0.06299X0.11417*%
%ADD27R,0.05709X0.05118*%
%ADD28R,0.03150X0.03150*%
%ADD29R,0.04724X0.12992*%
%ADD30R,0.22047X0.25984*%
%ADD31R,0.04528X0.05512*%
%ADD32R,0.04921X0.04803*%
%ADD33R,0.08071X0.04803*%
%ADD34R,0.08858X0.03937*%
%ADD35R,0.13780X0.07008*%
%ADD36R,0.01575X0.02165*%
%ADD37R,0.05315X0.09252*%
%ADD38R,0.13500X0.05000*%
%ADD39O,0.02362X0.05709*%
%ADD40R,0.05512X0.04528*%
%ADD41R,0.05709X0.04921*%
%ADD42R,0.13504X0.05000*%
%ADD43R,0.06324X0.04939*%
%ADD44R,0.04134X0.05709*%
%ADD45R,0.05709X0.04134*%
%ADD46R,0.05118X0.05709*%
%ADD47O,0.08268X0.02992*%
%ADD48R,0.08268X0.02992*%
%ADD49R,0.04134X0.11221*%
%ADD50R,0.41339X0.28347*%
%ADD51R,0.05906X0.05512*%
%ADD52R,0.05000X0.25000*%
%ADD53O,0.02362X0.07677*%
%ADD54R,0.05315X0.03740*%
%ADD55R,0.05118X0.06102*%
%ADD56R,0.25000X0.05000*%
%ADD57R,0.07087X0.03937*%
%ADD58R,0.05906X0.09055*%
%ADD59R,0.04724X0.05315*%
%ADD60R,0.03937X0.12205*%
%ADD61R,0.07480X0.01575*%
%ADD62O,0.05709X0.02362*%
G04:AMPARAMS|DCode=63|XSize=17.72mil|YSize=55.12mil|CornerRadius=1.95mil|HoleSize=0mil|Usage=FLASHONLY|Rotation=180.000|XOffset=0mil|YOffset=0mil|HoleType=Round|Shape=RoundedRectangle|*
%AMROUNDEDRECTD63*
21,1,0.01772,0.05122,0,0,180.0*
21,1,0.01382,0.05512,0,0,180.0*
1,1,0.00390,-0.00691,0.02561*
1,1,0.00390,0.00691,0.02561*
1,1,0.00390,0.00691,-0.02561*
1,1,0.00390,-0.00691,-0.02561*
%
%ADD63ROUNDEDRECTD63*%
%ADD64R,0.04939X0.06324*%
%ADD65R,0.04724X0.03543*%
%ADD66R,0.23228X0.15748*%
%ADD67R,0.02165X0.01575*%
%ADD68R,0.11811X0.07874*%
%ADD69R,0.04921X0.05709*%
%ADD70R,0.03150X0.01575*%
%ADD71R,0.05315X0.03740*%
%ADD72R,0.05709X0.03740*%
%ADD73R,0.03937X0.05315*%
%ADD74R,0.04921X0.06102*%
%ADD75R,0.07087X0.12992*%
%ADD123C,0.04000*%
%ADD124C,0.02000*%
%ADD125C,0.03000*%
%ADD126C,0.06890*%
%ADD127C,0.02362*%
%ADD128O,0.02756X0.06299*%
%ADD129C,0.04724*%
%ADD130C,0.19685*%
%ADD131C,0.02756*%
%ADD132C,0.05000*%
G36*
X257886Y358523D02*
Y340914D01*
X257386Y340707D01*
X254043Y344050D01*
Y346465D01*
X252201D01*
Y348417D01*
X254043D01*
Y354732D01*
X252201D01*
Y357079D01*
X254043D01*
Y361713D01*
X254505Y361904D01*
X257886Y358523D01*
D02*
G37*
G36*
X183038Y341799D02*
X183369Y341578D01*
X183759Y341500D01*
X225878D01*
Y340051D01*
X235736D01*
Y341500D01*
X238189D01*
X238579Y341578D01*
X238910Y341799D01*
X239596Y342484D01*
X241626D01*
Y340150D01*
X247350D01*
Y342309D01*
X247634Y342365D01*
X247819Y342489D01*
X248284Y342299D01*
X248319Y342267D01*
Y340150D01*
X250734D01*
X252618Y338265D01*
X252427Y337803D01*
X251431D01*
Y334896D01*
X254043D01*
Y336219D01*
X254543Y336486D01*
X254930Y336228D01*
X255906Y336034D01*
X256881Y336228D01*
X257386Y336565D01*
X257886Y336298D01*
Y307572D01*
X248814Y298500D01*
X248236D01*
Y300480D01*
X233736D01*
Y298500D01*
X218178D01*
X217788Y298422D01*
X217457Y298201D01*
X210430Y291174D01*
X209178D01*
Y293029D01*
X202240D01*
Y287279D01*
X204689D01*
Y279650D01*
X202240D01*
Y275581D01*
X201778Y275390D01*
X200971Y276197D01*
Y286404D01*
X200893Y286794D01*
X200672Y287125D01*
X188533Y299264D01*
X188202Y299485D01*
X187812Y299563D01*
X182447D01*
Y301543D01*
X167947D01*
Y295543D01*
X182447D01*
Y297524D01*
X187390D01*
X193794Y291119D01*
X193603Y290657D01*
X188575D01*
Y289563D01*
X170947D01*
Y291543D01*
X156447D01*
Y285543D01*
X170947D01*
Y287524D01*
X188575D01*
Y285524D01*
X195283D01*
Y288977D01*
X195745Y289168D01*
X198931Y285982D01*
Y282236D01*
X198469Y282044D01*
X195919Y284595D01*
X195588Y284816D01*
X195198Y284894D01*
X169863D01*
X169473Y284816D01*
X169142Y284595D01*
X162976Y278429D01*
X162755Y278098D01*
X162677Y277708D01*
Y271543D01*
X156447D01*
Y267224D01*
X155985Y267033D01*
X144877Y278141D01*
Y291179D01*
X144799Y291569D01*
X144578Y291900D01*
X131903Y304575D01*
X131572Y304796D01*
X131182Y304874D01*
X111768D01*
X111378Y304796D01*
X111047Y304575D01*
X109826Y303354D01*
X109287D01*
Y310780D01*
X109210Y311170D01*
X108989Y311501D01*
X81357Y339133D01*
X81548Y339595D01*
X87085D01*
X89786Y336893D01*
X90117Y336672D01*
X90507Y336595D01*
X165839D01*
Y332177D01*
X175697D01*
Y335433D01*
X176159Y335625D01*
X177859Y333925D01*
X178189Y333704D01*
X178580Y333626D01*
X225878D01*
Y332177D01*
X235736D01*
Y333626D01*
X241626D01*
Y331488D01*
X247350D01*
Y337803D01*
X241626D01*
Y335665D01*
X235736D01*
Y337114D01*
X225878D01*
Y335665D01*
X179002D01*
X176332Y338335D01*
X176001Y338556D01*
X175611Y338634D01*
X90929D01*
X90142Y339421D01*
X90334Y339883D01*
X132772D01*
X133162Y339960D01*
X133493Y340181D01*
X137780Y344469D01*
X165839D01*
Y340051D01*
X175697D01*
Y344469D01*
X180368D01*
X183038Y341799D01*
D02*
G37*
G36*
X240623Y387603D02*
X241680Y386365D01*
X242918Y385308D01*
X244306Y384457D01*
X245810Y383834D01*
X247393Y383454D01*
X249016Y383326D01*
X383326D01*
X383326Y130815D01*
X362455D01*
Y116142D01*
X361955D01*
Y130815D01*
X342758D01*
X342567Y131277D01*
X350761Y139471D01*
X361469D01*
X362444Y139665D01*
X363271Y140217D01*
X373243Y150189D01*
X374772D01*
Y162409D01*
X369638D01*
Y156479D01*
X369589Y156232D01*
Y153745D01*
X360413Y144569D01*
X349705D01*
X348729Y144375D01*
X347902Y143822D01*
X337233Y133153D01*
X336681Y132326D01*
X336487Y131351D01*
Y97347D01*
X336681Y96371D01*
X337233Y95544D01*
X343191Y89586D01*
X343000Y89124D01*
X333661D01*
X333279Y88965D01*
X333120Y88583D01*
Y79991D01*
X332646Y79929D01*
X332620Y79929D01*
X326646D01*
Y65425D01*
X327097D01*
Y45367D01*
X310872Y29142D01*
X299697D01*
Y21134D01*
X314476D01*
Y25537D01*
X331448Y42509D01*
X332001Y43336D01*
X332195Y44311D01*
Y65245D01*
X332570Y65395D01*
X332639Y65408D01*
X333120Y65196D01*
Y31795D01*
X333174Y31665D01*
X333193Y31525D01*
X333251Y31480D01*
X333279Y31412D01*
X333409Y31358D01*
X333521Y31272D01*
X333560Y31262D01*
X333810Y30829D01*
X333653Y30244D01*
Y29205D01*
X333810Y28620D01*
X333560Y28187D01*
X333521Y28177D01*
X333409Y28091D01*
X333279Y28036D01*
X333251Y27969D01*
X333193Y27924D01*
X333174Y27784D01*
X333120Y27654D01*
Y17442D01*
X332965Y17067D01*
Y16398D01*
X333120Y16022D01*
Y10374D01*
X332658Y10374D01*
X293848Y10374D01*
Y36013D01*
X294310Y36204D01*
X295178Y35336D01*
X295675Y35004D01*
X296260Y34888D01*
X296845Y35004D01*
X297341Y35336D01*
X297673Y35832D01*
X297789Y36417D01*
X297673Y37003D01*
X297341Y37499D01*
X293540Y41300D01*
X293690Y41804D01*
X293731Y41903D01*
X293807Y41979D01*
Y42087D01*
X293848Y42186D01*
Y45453D01*
X294348Y45605D01*
X294457Y45442D01*
X294469Y45430D01*
X295296Y44877D01*
X296272Y44683D01*
X299697D01*
Y41724D01*
X314476D01*
Y49732D01*
X309636D01*
Y58358D01*
X317626D01*
Y85343D01*
X303883D01*
X303691Y85630D01*
Y107283D01*
X303532Y107666D01*
X303150Y107825D01*
X246063D01*
X245680Y107666D01*
X245105Y107585D01*
X244919Y107710D01*
X244528Y107787D01*
X228040D01*
X227650Y107710D01*
X227319Y107489D01*
X226539Y106709D01*
X211184D01*
X211056Y106901D01*
X210500Y107273D01*
X209844Y107403D01*
X206497D01*
X205841Y107273D01*
X205285Y106901D01*
X204914Y106345D01*
X204783Y105689D01*
X204912Y105039D01*
X204567Y104934D01*
X204465Y104850D01*
X204342Y104799D01*
X204310Y104723D01*
X204247Y104671D01*
X204234Y104539D01*
X204183Y104416D01*
Y78789D01*
X147195D01*
Y93504D01*
X147036Y93887D01*
X146653Y94045D01*
X143644D01*
X143295Y94545D01*
X143319Y94665D01*
Y123780D01*
X143241Y124170D01*
X143020Y124501D01*
X135409Y132112D01*
Y137833D01*
X135602Y137961D01*
X135973Y138517D01*
X136104Y139173D01*
Y142520D01*
X135973Y143176D01*
X135602Y143732D01*
X135046Y144103D01*
X134390Y144234D01*
X133734Y144103D01*
X133178Y143732D01*
X132806Y143176D01*
X132676Y142520D01*
Y139173D01*
X132806Y138517D01*
X133178Y137961D01*
X133370Y137833D01*
Y131690D01*
X133448Y131300D01*
X133669Y130969D01*
X133951Y130686D01*
X133760Y130224D01*
X130409D01*
Y137833D01*
X130602Y137961D01*
X130973Y138517D01*
X131104Y139173D01*
Y142520D01*
X130973Y143176D01*
X130602Y143732D01*
X130409Y143860D01*
Y150555D01*
X148757D01*
X149147Y150633D01*
X149478Y150854D01*
X152427Y153803D01*
X155110D01*
Y151862D01*
X161290D01*
Y151287D01*
X155110D01*
Y148460D01*
X148925D01*
Y149024D01*
X146350D01*
Y145858D01*
X146618D01*
Y145281D01*
X143204Y141866D01*
X141104D01*
Y142520D01*
X140973Y143176D01*
X140602Y143732D01*
X140046Y144103D01*
X139390Y144234D01*
X138734Y144103D01*
X138178Y143732D01*
X137806Y143176D01*
X137676Y142520D01*
Y139173D01*
X137806Y138517D01*
X138178Y137961D01*
X138734Y137590D01*
X139390Y137459D01*
X140046Y137590D01*
X140602Y137961D01*
X140973Y138517D01*
X141104Y139173D01*
Y139827D01*
X143626D01*
X144016Y139904D01*
X144347Y140126D01*
X148359Y144137D01*
X148580Y144468D01*
X148657Y144858D01*
Y145858D01*
X148925D01*
Y146421D01*
X155110D01*
Y145366D01*
X161290D01*
Y139248D01*
X161406Y138663D01*
X161738Y138167D01*
X169973Y129932D01*
Y127037D01*
X169833Y127009D01*
X169503Y126788D01*
X168752Y126037D01*
X168530Y125706D01*
X168453Y125316D01*
Y110055D01*
X168530Y109665D01*
X168752Y109334D01*
X172870Y105215D01*
X173017Y105117D01*
X173260Y104874D01*
X173878Y104618D01*
X174547D01*
X174840Y104739D01*
X175191Y104669D01*
X183700D01*
X183828Y104477D01*
X184385Y104105D01*
X185040Y103975D01*
X188387D01*
X189043Y104105D01*
X189599Y104477D01*
X189971Y105033D01*
X190101Y105689D01*
X189971Y106345D01*
X189599Y106901D01*
X189043Y107273D01*
X188387Y107403D01*
X185040D01*
X184385Y107273D01*
X183828Y106901D01*
X183700Y106709D01*
X175863D01*
X175638Y107252D01*
X175165Y107724D01*
X174547Y107980D01*
X173878D01*
X173260Y107724D01*
X173253Y107717D01*
X170492Y110477D01*
Y119874D01*
X174894D01*
X174992Y119854D01*
X179489D01*
X179650Y119747D01*
X180040Y119669D01*
X183700D01*
X183828Y119477D01*
X184385Y119105D01*
X185040Y118975D01*
X188387D01*
X189043Y119105D01*
X189599Y119477D01*
X189971Y120033D01*
X190101Y120689D01*
X189971Y121345D01*
X189599Y121901D01*
X189043Y122273D01*
X188387Y122403D01*
X185040D01*
X184385Y122273D01*
X183828Y121901D01*
X183700Y121709D01*
X180406D01*
X180245Y121816D01*
X179855Y121894D01*
X176484D01*
Y125064D01*
X176789Y125125D01*
X177119Y125346D01*
X179691Y127917D01*
X192710D01*
Y127650D01*
X195875D01*
Y130224D01*
X192710D01*
Y129957D01*
X179269D01*
X178878Y129879D01*
X178548Y129658D01*
X176946Y128057D01*
X176484Y128248D01*
Y132095D01*
X172135D01*
X164348Y139882D01*
Y164420D01*
X164232Y165006D01*
X163900Y165502D01*
X130344Y199058D01*
X129848Y199389D01*
X129263Y199506D01*
X128838D01*
X114693Y213651D01*
Y217488D01*
X100189D01*
Y211488D01*
X112530D01*
X126580Y197438D01*
X126389Y196976D01*
X114638D01*
Y194996D01*
X114060D01*
X99203Y209853D01*
Y226898D01*
X99665Y227090D01*
X106487Y220267D01*
X106818Y220046D01*
X107208Y219969D01*
X138232D01*
X138622Y220046D01*
X138953Y220267D01*
X144938Y226252D01*
X158000D01*
Y232252D01*
X143496D01*
Y227694D01*
X137810Y222008D01*
X126189D01*
Y227488D01*
X111685D01*
Y225508D01*
X106252D01*
X84692Y247067D01*
X84361Y247288D01*
X83971Y247366D01*
X80159D01*
X77349Y250176D01*
X77494Y250654D01*
X77624Y250680D01*
X78180Y251052D01*
X78552Y251608D01*
X78683Y252264D01*
Y257579D01*
X78552Y258235D01*
X78180Y258791D01*
X77988Y258919D01*
Y259813D01*
X78148Y259871D01*
X78488Y259896D01*
X78808Y259418D01*
X79364Y259046D01*
X80020Y258916D01*
X85335D01*
X85991Y259046D01*
X86547Y259418D01*
X86918Y259974D01*
X87049Y260630D01*
X86918Y261286D01*
X86608Y261750D01*
X86714Y262084D01*
X86830Y262250D01*
X90159D01*
X104354Y248055D01*
X104850Y247723D01*
X105435Y247607D01*
X264294D01*
X264879Y247723D01*
X265375Y248055D01*
X267785Y250465D01*
X271622D01*
Y264968D01*
X265622D01*
Y252627D01*
X263660Y250665D01*
X106069D01*
X93523Y263211D01*
X93714Y263673D01*
X98925D01*
Y270185D01*
X92020D01*
Y267752D01*
X89103D01*
X87003Y269852D01*
X87049Y270079D01*
X86918Y270735D01*
X86562Y271268D01*
X86588Y271397D01*
X86732Y271768D01*
X92020D01*
Y271153D01*
X95222D01*
Y274409D01*
Y277665D01*
X92020D01*
Y274827D01*
X86871D01*
X86654Y275327D01*
X86918Y275722D01*
X87049Y276378D01*
X86918Y277034D01*
X86547Y277590D01*
X86444Y277658D01*
X86413Y278167D01*
X86751Y278508D01*
X93504D01*
X93894Y278586D01*
X94225Y278807D01*
X97178Y281759D01*
X97399Y282090D01*
X97476Y282480D01*
Y286114D01*
X98307D01*
Y282881D01*
X98385Y282491D01*
X98606Y282160D01*
X111133Y269633D01*
X111463Y269412D01*
X111854Y269335D01*
X115268D01*
Y257354D01*
X117211D01*
Y256354D01*
X117289Y255964D01*
X117510Y255633D01*
X118096Y255048D01*
X118426Y254827D01*
X118816Y254749D01*
X230560D01*
X230950Y254827D01*
X231281Y255048D01*
X250543Y274310D01*
X250764Y274640D01*
X250842Y275031D01*
Y276894D01*
X250764Y277285D01*
X250543Y277615D01*
X249957Y278201D01*
X249626Y278422D01*
X249236Y278500D01*
X248236D01*
Y280480D01*
X235417D01*
X235226Y280942D01*
X236811Y282528D01*
X263031D01*
X263421Y282605D01*
X263752Y282826D01*
X279616Y298691D01*
X279837Y299022D01*
X279915Y299412D01*
Y335249D01*
X295182Y350516D01*
X296037D01*
X296317Y350096D01*
X296977Y349655D01*
X297756Y349500D01*
X303031D01*
X303150Y349524D01*
X303396Y349063D01*
X302904Y348571D01*
X297756D01*
X296977Y348416D01*
X296317Y347974D01*
X295876Y347314D01*
X295721Y346535D01*
X295876Y345757D01*
X296317Y345096D01*
X296977Y344655D01*
X297756Y344500D01*
X303031D01*
X303810Y344655D01*
X304471Y345096D01*
X304912Y345757D01*
X305035Y346376D01*
X316239Y357580D01*
X316570Y358076D01*
X316687Y358661D01*
Y366105D01*
X317187Y366312D01*
X319390Y364109D01*
Y363397D01*
X318758Y362975D01*
X318317Y362314D01*
X318162Y361535D01*
X318317Y360757D01*
X318758Y360096D01*
X319418Y359655D01*
X320197Y359500D01*
X325472D01*
X326251Y359655D01*
X326911Y360096D01*
X327353Y360757D01*
X327508Y361535D01*
X327353Y362314D01*
X326911Y362975D01*
X326251Y363416D01*
X325472Y363571D01*
X321429D01*
Y364531D01*
X321351Y364922D01*
X321130Y365252D01*
X318216Y368166D01*
Y373433D01*
X316687D01*
Y374598D01*
X318216D01*
Y375404D01*
X332983D01*
X350485Y357902D01*
X351312Y357350D01*
X352287Y357156D01*
X369554D01*
X373650Y353060D01*
X373486Y352517D01*
X373430Y352506D01*
X372934Y352175D01*
X372603Y351679D01*
X372486Y351093D01*
Y349713D01*
X371313D01*
Y347146D01*
Y344579D01*
X374417D01*
Y345320D01*
X374648Y345459D01*
X375148Y345175D01*
Y330709D01*
X367655Y323216D01*
X367193Y323407D01*
Y329203D01*
X367115Y329593D01*
X366894Y329924D01*
X361390Y335428D01*
X361060Y335649D01*
X360669Y335726D01*
X359719D01*
X359700Y335776D01*
X360043Y336276D01*
X367709D01*
X368099Y336353D01*
X368430Y336574D01*
X369151Y337295D01*
X374417D01*
Y342429D01*
X367709D01*
Y338737D01*
X367286Y338315D01*
X364205D01*
X363938Y338815D01*
X364059Y338996D01*
X364212Y339764D01*
Y343307D01*
X364059Y344075D01*
X363624Y344726D01*
X362973Y345161D01*
X362205Y345314D01*
X361437Y345161D01*
X360786Y344726D01*
X360350Y344075D01*
X360198Y343307D01*
Y339764D01*
X360315Y339172D01*
X360083Y338709D01*
X360000Y338620D01*
X359783Y338588D01*
X359134Y339237D01*
Y339919D01*
X358864Y340570D01*
X358366Y341069D01*
X358130Y341166D01*
Y341708D01*
X358366Y341805D01*
X358864Y342303D01*
X359134Y342955D01*
Y343659D01*
X358864Y344311D01*
X358366Y344809D01*
X358012Y344956D01*
Y345497D01*
X358314Y345622D01*
X358787Y346095D01*
X359043Y346713D01*
Y346797D01*
X357362D01*
X355681D01*
Y346713D01*
X355937Y346095D01*
X356410Y345622D01*
X356713Y345497D01*
Y344956D01*
X356359Y344809D01*
X355860Y344311D01*
X355591Y343659D01*
Y342955D01*
X355860Y342303D01*
X356359Y341805D01*
X356594Y341708D01*
Y341166D01*
X356359Y341069D01*
X355860Y340570D01*
X355591Y339919D01*
Y339214D01*
X355860Y338563D01*
X356359Y338065D01*
X356594Y337967D01*
Y337426D01*
X356359Y337329D01*
X355860Y336830D01*
X355591Y336179D01*
Y335474D01*
X355860Y334823D01*
X356359Y334325D01*
X356594Y334227D01*
Y333686D01*
X356359Y333589D01*
X356137Y333367D01*
X355752D01*
X353622Y335497D01*
Y336179D01*
X353352Y336830D01*
X352854Y337329D01*
X352203Y337598D01*
X351498D01*
X350847Y337329D01*
X350348Y336830D01*
X350079Y336179D01*
Y335474D01*
X350348Y334823D01*
X350847Y334325D01*
X351082Y334227D01*
Y333686D01*
X350847Y333589D01*
X350348Y333090D01*
X350079Y332439D01*
Y331734D01*
X350184Y331481D01*
X349824Y331043D01*
X349801Y331047D01*
X340953D01*
Y331996D01*
X334244D01*
Y326862D01*
X340953D01*
Y329008D01*
X345007D01*
X345274Y328508D01*
X345154Y328327D01*
X345001Y327559D01*
Y324016D01*
X345154Y323248D01*
X345589Y322597D01*
X346240Y322162D01*
X347008Y322009D01*
X347776Y322162D01*
X348427Y322597D01*
X348862Y323248D01*
X349015Y324016D01*
Y327559D01*
X348862Y328327D01*
X348793Y328431D01*
X349018Y328879D01*
X349464Y328922D01*
X350079Y328308D01*
Y327994D01*
X350348Y327343D01*
X350847Y326845D01*
X351082Y326747D01*
Y326206D01*
X350847Y326108D01*
X350348Y325610D01*
X350079Y324959D01*
Y324254D01*
X350348Y323603D01*
X350847Y323104D01*
X351201Y322958D01*
Y322417D01*
X350898Y322291D01*
X350425Y321818D01*
X350169Y321200D01*
Y321116D01*
X351850D01*
X353532D01*
Y321200D01*
X353276Y321818D01*
X352803Y322291D01*
X352500Y322417D01*
Y322958D01*
X352854Y323104D01*
X353352Y323603D01*
X353622Y324254D01*
Y324959D01*
X353352Y325610D01*
X352854Y326108D01*
X352618Y326206D01*
Y326747D01*
X352854Y326845D01*
X353352Y327343D01*
X353622Y327994D01*
Y328699D01*
X353352Y329350D01*
X352854Y329848D01*
X352618Y329946D01*
Y330487D01*
X352854Y330585D01*
X353352Y331083D01*
X353622Y331734D01*
Y331906D01*
X354122Y332113D01*
X354609Y331626D01*
X354940Y331405D01*
X355330Y331328D01*
X355759D01*
X355860Y331083D01*
X356359Y330585D01*
X357010Y330315D01*
X357715D01*
X358366Y330585D01*
X358864Y331083D01*
X359134Y331734D01*
Y332168D01*
X359634Y332179D01*
X361814Y329998D01*
X361650Y329456D01*
X361437Y329413D01*
X360786Y328978D01*
X360350Y328327D01*
X360198Y327559D01*
Y324016D01*
X360350Y323248D01*
X360786Y322597D01*
X361437Y322162D01*
X361650Y322119D01*
X361814Y321576D01*
X358187Y317949D01*
X339228D01*
X338961Y318449D01*
X339011Y318525D01*
X339128Y319110D01*
Y319579D01*
X340953D01*
Y321896D01*
X337598D01*
X334244D01*
Y319579D01*
X336069D01*
Y319110D01*
X336186Y318525D01*
X336236Y318449D01*
X335969Y317949D01*
X304255D01*
X298203Y324000D01*
X298410Y324500D01*
X303031D01*
X303810Y324655D01*
X304471Y325096D01*
X304912Y325757D01*
X305067Y326535D01*
X304912Y327314D01*
X304471Y327975D01*
X303810Y328416D01*
X303031Y328571D01*
X297756D01*
X296977Y328416D01*
X296317Y327975D01*
X296225Y327837D01*
X295725Y327989D01*
Y330082D01*
X296225Y330234D01*
X296317Y330096D01*
X296977Y329655D01*
X297756Y329500D01*
X303031D01*
X303810Y329655D01*
X304471Y330096D01*
X304912Y330757D01*
X305067Y331535D01*
X304912Y332314D01*
X304471Y332975D01*
X303810Y333416D01*
X303031Y333571D01*
X297756D01*
X296977Y333416D01*
X296317Y332975D01*
X296225Y332837D01*
X295725Y332989D01*
Y335082D01*
X296225Y335234D01*
X296317Y335096D01*
X296977Y334655D01*
X297756Y334500D01*
X303031D01*
X303810Y334655D01*
X304471Y335096D01*
X304912Y335757D01*
X305067Y336535D01*
X304912Y337314D01*
X304471Y337975D01*
X303810Y338416D01*
X303031Y338571D01*
X297756D01*
X297401Y338500D01*
X297205Y338697D01*
X296919Y339035D01*
X297205Y339374D01*
X297401Y339571D01*
X297756Y339500D01*
X303031D01*
X303810Y339655D01*
X304471Y340096D01*
X304912Y340757D01*
X305067Y341535D01*
X304912Y342314D01*
X304471Y342974D01*
X303810Y343416D01*
X303031Y343571D01*
X297756D01*
X296977Y343416D01*
X296317Y342974D01*
X295876Y342314D01*
X295721Y341535D01*
X295768Y341298D01*
X295356Y340805D01*
X294670D01*
X294280Y340727D01*
X293949Y340506D01*
X292484Y339042D01*
X292263Y338711D01*
X292186Y338321D01*
Y325435D01*
X292263Y325045D01*
X292484Y324714D01*
X302490Y314708D01*
X302821Y314487D01*
X303211Y314409D01*
X358195D01*
X358387Y313948D01*
X353665Y309226D01*
X312583D01*
X311607Y309032D01*
X310780Y308479D01*
X288494Y286193D01*
X288265Y286132D01*
X287613Y285755D01*
X287080Y285222D01*
X286703Y284569D01*
X286508Y283841D01*
Y283088D01*
X286703Y282360D01*
X287080Y281707D01*
X287613Y281174D01*
X288265Y280797D01*
X288761Y280664D01*
X290913Y278513D01*
X291740Y277960D01*
X292716Y277766D01*
X306685D01*
Y277256D01*
X313394D01*
Y278276D01*
X316528D01*
Y277256D01*
X323236D01*
Y278276D01*
X327650D01*
Y278043D01*
X335736D01*
Y282980D01*
X327650D01*
Y282354D01*
X323590D01*
X323236Y282708D01*
X323236Y283374D01*
X323236Y283874D01*
Y286364D01*
X316528D01*
Y283874D01*
X316528Y283555D01*
X316528Y283055D01*
Y282354D01*
X313747D01*
X313394Y282708D01*
X313394Y283374D01*
X313394Y283874D01*
Y286364D01*
X306685D01*
Y283874D01*
X306685Y283555D01*
Y283218D01*
X306331Y282864D01*
X293772D01*
X293073Y283563D01*
X313638Y304128D01*
X354721D01*
X355696Y304322D01*
X356523Y304875D01*
X379499Y327851D01*
X380052Y328678D01*
X380246Y329653D01*
Y352618D01*
X380052Y353594D01*
X379499Y354420D01*
X372715Y361205D01*
X372822Y361572D01*
X372914Y361713D01*
X374469Y361959D01*
X376017Y362462D01*
X377468Y363201D01*
X378785Y364158D01*
X379936Y365310D01*
X380893Y366627D01*
X381632Y368077D01*
X382135Y369625D01*
X382390Y371233D01*
Y372861D01*
X382135Y374469D01*
X381632Y376017D01*
X380893Y377468D01*
X379936Y378785D01*
X378785Y379936D01*
X377468Y380893D01*
X376017Y381632D01*
X374469Y382135D01*
X372861Y382390D01*
X371233D01*
X369625Y382135D01*
X368077Y381632D01*
X366627Y380893D01*
X365310Y379936D01*
X364158Y378785D01*
X363201Y377468D01*
X362462Y376017D01*
X361959Y374469D01*
X361705Y372861D01*
Y371233D01*
X361959Y369625D01*
X362462Y368077D01*
X363201Y366627D01*
X364158Y365310D01*
X365310Y364158D01*
X366627Y363201D01*
X367506Y362754D01*
X367385Y362254D01*
X353343D01*
X335842Y379755D01*
X335015Y380308D01*
X334039Y380502D01*
X318216D01*
Y381307D01*
X312417D01*
X312098Y381307D01*
X311598Y381307D01*
X309108D01*
Y377953D01*
Y374598D01*
X311598D01*
X311917Y374598D01*
X312417Y374598D01*
X313628D01*
Y373787D01*
X313275Y373433D01*
X312098Y373433D01*
X311598Y373433D01*
X309108D01*
Y370079D01*
Y366724D01*
X311598D01*
X311917Y366724D01*
X312417Y366724D01*
X313628D01*
Y359295D01*
X305504Y351171D01*
X305043Y351417D01*
X305067Y351535D01*
X304912Y352314D01*
X304471Y352975D01*
X303810Y353416D01*
X303031Y353571D01*
X297756D01*
X296977Y353416D01*
X296317Y352975D01*
X296037Y352555D01*
X294760D01*
X294370Y352477D01*
X294039Y352256D01*
X278414Y336631D01*
X277914Y336838D01*
Y338247D01*
X295182Y355516D01*
X296037D01*
X296317Y355096D01*
X296977Y354655D01*
X297756Y354500D01*
X303031D01*
X303810Y354655D01*
X304471Y355096D01*
X304912Y355757D01*
X305067Y356535D01*
X304912Y357314D01*
X304471Y357975D01*
X303810Y358416D01*
X303031Y358571D01*
X297756D01*
X296977Y358416D01*
X296317Y357975D01*
X296037Y357555D01*
X294760D01*
X294370Y357477D01*
X294039Y357256D01*
X276173Y339391D01*
X275952Y339060D01*
X275874Y338670D01*
Y299954D01*
X264341Y288421D01*
X262114D01*
Y290756D01*
X256980D01*
Y284567D01*
X254831D01*
Y290756D01*
X249697D01*
Y288500D01*
X236736D01*
Y290480D01*
X223917D01*
X223726Y290942D01*
X225744Y292961D01*
X248150D01*
X248541Y293038D01*
X248871Y293259D01*
X261126Y305514D01*
X261348Y305845D01*
X261425Y306235D01*
Y359567D01*
X261348Y359957D01*
X261126Y360288D01*
X238804Y382611D01*
X238473Y382832D01*
X238083Y382909D01*
X235736D01*
Y384358D01*
X225878D01*
Y379421D01*
X235736D01*
Y380870D01*
X237660D01*
X243033Y375497D01*
X242842Y375035D01*
X235736D01*
Y376484D01*
X225878D01*
Y371547D01*
X235736D01*
Y372996D01*
X243413D01*
X252554Y363856D01*
X252362Y363394D01*
X248319D01*
Y357079D01*
X250162D01*
Y354732D01*
X248319D01*
Y348417D01*
X250162D01*
Y346465D01*
X248319D01*
Y344347D01*
X248284Y344316D01*
X247819Y344126D01*
X247634Y344249D01*
X247350Y344305D01*
Y346465D01*
X241626D01*
Y344524D01*
X239173D01*
X238783Y344446D01*
X238452Y344225D01*
X237767Y343539D01*
X235736D01*
Y344988D01*
X225878D01*
Y343539D01*
X184181D01*
X181511Y346209D01*
X181181Y346430D01*
X180790Y346508D01*
X138026D01*
X137819Y347008D01*
X143154Y352343D01*
X165839D01*
Y347925D01*
X175697D01*
Y352343D01*
X182945D01*
X185615Y349673D01*
X185945Y349452D01*
X186336Y349374D01*
X225878D01*
Y347925D01*
X235736D01*
Y349374D01*
X237427D01*
X237817Y349452D01*
X238148Y349673D01*
X238252Y349777D01*
X238445Y349697D01*
X239114D01*
X239732Y349953D01*
X240137Y350358D01*
X241626D01*
Y348417D01*
X247350D01*
Y354732D01*
X241626D01*
Y352397D01*
X240137D01*
X239732Y352803D01*
X239114Y353059D01*
X238445D01*
X237827Y352803D01*
X237354Y352330D01*
X237098Y351712D01*
Y351507D01*
X237004Y351413D01*
X235736D01*
Y352862D01*
X225878D01*
Y351413D01*
X186758D01*
X184088Y354083D01*
X183757Y354304D01*
X183367Y354382D01*
X142732D01*
X142342Y354304D01*
X142011Y354083D01*
X131350Y343422D01*
X125500D01*
Y347781D01*
X122047D01*
X118595D01*
Y347002D01*
X116142D01*
X115557Y346885D01*
X115060Y346554D01*
X114729Y346058D01*
X114612Y345472D01*
X114729Y344887D01*
X115060Y344391D01*
X115557Y344059D01*
X116142Y343943D01*
X118595D01*
Y343422D01*
X91571D01*
Y343988D01*
X94004D01*
Y354043D01*
X87098D01*
Y349445D01*
X77292D01*
X76189Y350548D01*
Y354906D01*
X76189Y355224D01*
X76189Y355724D01*
Y358215D01*
X69480D01*
Y355724D01*
X69480Y355405D01*
X69480Y354906D01*
Y349106D01*
X74747D01*
X76149Y347704D01*
X76480Y347483D01*
X76641Y347451D01*
X76592Y346951D01*
X62538D01*
X58106Y351383D01*
Y351961D01*
X60244D01*
Y356701D01*
X53929D01*
Y351961D01*
X56067D01*
Y350961D01*
X56145Y350570D01*
X56366Y350240D01*
X61395Y345211D01*
X61726Y344989D01*
X62116Y344912D01*
X83889D01*
X86705Y342096D01*
X86514Y341634D01*
X53879D01*
X44327Y351186D01*
Y351764D01*
X46465D01*
Y356504D01*
X40150D01*
Y351764D01*
X42287D01*
Y350764D01*
X42365Y350374D01*
X42586Y350043D01*
X52736Y339893D01*
X53066Y339672D01*
X53457Y339595D01*
X62310D01*
X62502Y339133D01*
X60277Y336908D01*
X60056Y336577D01*
X59978Y336187D01*
Y303788D01*
X59898Y303734D01*
X59398Y304001D01*
Y315854D01*
X54461D01*
Y302650D01*
X54486D01*
X54693Y302150D01*
X54677Y302133D01*
X54421Y301516D01*
Y300847D01*
X54677Y300229D01*
X55150Y299756D01*
X55768Y299500D01*
X56437D01*
X56635Y299582D01*
X57051Y299305D01*
Y292384D01*
X56859Y292255D01*
X56746Y292087D01*
X56246D01*
X56133Y292255D01*
X55577Y292627D01*
X54921Y292757D01*
X54265Y292627D01*
X53709Y292255D01*
X53338Y291699D01*
X53207Y291043D01*
Y285728D01*
X53338Y285072D01*
X53709Y284516D01*
X54265Y284145D01*
X54921Y284014D01*
X55577Y284145D01*
X56133Y284516D01*
X56246Y284685D01*
X56746D01*
X56859Y284516D01*
X57415Y284145D01*
X58071Y284014D01*
X58727Y284145D01*
X59283Y284516D01*
X59396Y284685D01*
X59896D01*
X60009Y284516D01*
X60565Y284145D01*
X61221Y284014D01*
X61876Y284145D01*
X62432Y284516D01*
X62545Y284685D01*
X63045D01*
X63158Y284516D01*
X63714Y284145D01*
X64370Y284014D01*
X65026Y284145D01*
X65582Y284516D01*
X65650Y284618D01*
X66159Y284650D01*
X66500Y284312D01*
Y282509D01*
X63231Y279240D01*
X62658D01*
X62040Y278984D01*
X61567Y278511D01*
X61311Y277893D01*
Y277225D01*
X61567Y276607D01*
X62040Y276134D01*
X62658Y275878D01*
X63327D01*
X63944Y276134D01*
X64417Y276607D01*
X64673Y277225D01*
Y277798D01*
X68241Y281366D01*
X68462Y281696D01*
X68539Y282087D01*
Y284388D01*
X68732Y284516D01*
X68800Y284618D01*
X69309Y284650D01*
X69650Y284312D01*
Y280224D01*
X69547D01*
X68930Y279969D01*
X68457Y279496D01*
X68201Y278878D01*
Y278209D01*
X68457Y277591D01*
X68930Y277118D01*
X69257Y276983D01*
X69381Y276400D01*
X66573Y273591D01*
X58378D01*
X57973Y273997D01*
X57355Y274253D01*
X56686D01*
X56068Y273997D01*
X55596Y273524D01*
X55340Y272906D01*
Y272237D01*
X55596Y271620D01*
X56068Y271147D01*
X56686Y270891D01*
X57355D01*
X57973Y271147D01*
X58378Y271552D01*
X61059D01*
X61211Y271052D01*
X61013Y270920D01*
X58551Y268459D01*
X53365D01*
X53250Y268625D01*
X53143Y268958D01*
X53454Y269423D01*
X53534Y269829D01*
X49213D01*
Y270329D01*
X53534D01*
X53454Y270735D01*
X53082Y271291D01*
X52913Y271404D01*
Y271903D01*
X53082Y272016D01*
X53454Y272572D01*
X53584Y273228D01*
X53454Y273884D01*
X53082Y274440D01*
X52913Y274553D01*
Y275053D01*
X53082Y275166D01*
X53454Y275722D01*
X53534Y276128D01*
X49213D01*
Y276628D01*
X53534D01*
X53454Y277034D01*
X53082Y277590D01*
X52913Y277703D01*
Y278203D01*
X53082Y278316D01*
X53454Y278872D01*
X53584Y279528D01*
X53454Y280184D01*
X53082Y280740D01*
X52913Y280852D01*
Y281352D01*
X53082Y281465D01*
X53454Y282021D01*
X53584Y282677D01*
X53454Y283333D01*
X53082Y283889D01*
X52526Y284261D01*
X51870Y284391D01*
X46555D01*
X45899Y284261D01*
X45343Y283889D01*
X45215Y283697D01*
X43873D01*
X43482Y283619D01*
X43152Y283398D01*
X42851Y283097D01*
X42657Y283177D01*
X42302D01*
X42095Y283677D01*
X44388Y285970D01*
X44720Y286467D01*
X44837Y287052D01*
Y314657D01*
X46661D01*
Y319398D01*
X39953D01*
Y314657D01*
X41778D01*
Y287685D01*
X40332Y286240D01*
X39870Y286431D01*
Y287742D01*
X36667D01*
Y284736D01*
X38022D01*
X38214Y284274D01*
X37707Y283768D01*
X32965D01*
Y282533D01*
X28748D01*
Y283866D01*
X22433D01*
Y279126D01*
X28748D01*
Y279474D01*
X32965D01*
Y277256D01*
X34888D01*
Y273663D01*
X35004Y273077D01*
X35336Y272581D01*
X39594Y268323D01*
X39387Y267823D01*
X31193D01*
Y265248D01*
X35622D01*
X35721Y265228D01*
X38251D01*
X40421Y263059D01*
X40751Y262838D01*
X41142Y262760D01*
X45215D01*
X45343Y262567D01*
X45445Y262499D01*
X45477Y261991D01*
X45138Y261649D01*
X41929D01*
X41539Y261572D01*
X41208Y261351D01*
X38251Y258394D01*
X35721D01*
X35622Y258374D01*
X31193D01*
Y255799D01*
X39673D01*
Y256932D01*
X42351Y259610D01*
X45215D01*
X45343Y259418D01*
X45899Y259046D01*
X46555Y258916D01*
X51870D01*
X52526Y259046D01*
X53082Y259418D01*
X53454Y259974D01*
X53584Y260630D01*
X53454Y261286D01*
X53082Y261842D01*
X52913Y261955D01*
Y262455D01*
X53082Y262567D01*
X53454Y263124D01*
X53584Y263779D01*
X53454Y264436D01*
X53143Y264900D01*
X53250Y265233D01*
X53365Y265400D01*
X55622D01*
X55829Y264900D01*
X55661Y264732D01*
X55405Y264114D01*
Y263445D01*
X55661Y262827D01*
X56134Y262354D01*
X56328Y262274D01*
Y261452D01*
X56405Y261062D01*
X56626Y260731D01*
X57691Y259667D01*
X57545Y259188D01*
X57415Y259162D01*
X56859Y258791D01*
X56746Y258622D01*
X56246D01*
X56133Y258791D01*
X55577Y259162D01*
X54921Y259293D01*
X54265Y259162D01*
X53709Y258791D01*
X53338Y258235D01*
X53207Y257579D01*
Y252264D01*
X53338Y251608D01*
X53709Y251052D01*
X54265Y250680D01*
X54921Y250550D01*
X55203Y250606D01*
X64683Y241125D01*
X65013Y240904D01*
X65404Y240827D01*
X71350D01*
Y239366D01*
X56465D01*
Y241347D01*
X30465D01*
Y235347D01*
X56465D01*
Y237327D01*
X71341D01*
X71350Y237320D01*
Y235032D01*
X76287D01*
Y240827D01*
X77256D01*
Y237609D01*
X77175Y237205D01*
X77256Y236800D01*
Y235032D01*
X77372D01*
Y231898D01*
X76961D01*
Y228132D01*
X76931Y227985D01*
X75273Y226326D01*
X74811Y226518D01*
Y231898D01*
X68890D01*
Y229366D01*
X36465D01*
Y231347D01*
X25626D01*
Y232894D01*
X26032Y233300D01*
X26287Y233918D01*
Y234586D01*
X26032Y235204D01*
X25559Y235677D01*
X24941Y235933D01*
X24272D01*
X23654Y235677D01*
X23181Y235204D01*
X22925Y234586D01*
Y233918D01*
X23181Y233300D01*
X23587Y232894D01*
Y231347D01*
X10465D01*
X10374Y231809D01*
Y383326D01*
X151575D01*
X153198Y383454D01*
X154781Y383834D01*
X156285Y384457D01*
X157673Y385308D01*
X158911Y386365D01*
X159825Y387435D01*
X240523Y387765D01*
X240623Y387603D01*
D02*
G37*
G36*
X74461Y330762D02*
X76929D01*
Y330512D01*
X77179D01*
Y323909D01*
X79398D01*
Y327211D01*
X81693D01*
X82278Y327327D01*
X82774Y327659D01*
X83106Y328155D01*
X83222Y328740D01*
X83106Y329325D01*
X82774Y329822D01*
X82278Y330153D01*
X81693Y330270D01*
X79398D01*
Y335433D01*
X79860Y335625D01*
X98307Y317177D01*
Y309817D01*
X98274Y309804D01*
X97807Y309734D01*
X97538Y310137D01*
X97042Y310468D01*
X96457Y310584D01*
X95871Y310468D01*
X95375Y310137D01*
X95044Y309640D01*
X94927Y309055D01*
Y304437D01*
X94087D01*
Y302022D01*
X96457D01*
Y301522D01*
X94087D01*
Y299795D01*
X93587Y299588D01*
X93241Y299934D01*
X92910Y300155D01*
X92520Y300232D01*
X91067D01*
Y302288D01*
X90147D01*
Y305196D01*
X91067D01*
Y310946D01*
X84130D01*
Y305196D01*
X85049D01*
Y302288D01*
X84130D01*
Y296538D01*
X91067D01*
Y298193D01*
X92097D01*
X95437Y294853D01*
Y291445D01*
X94087D01*
Y286114D01*
X95437D01*
Y282903D01*
X93082Y280547D01*
X90599D01*
X90500Y281047D01*
X90519Y281055D01*
X90992Y281528D01*
X91248Y282146D01*
Y282815D01*
X90992Y283433D01*
X90519Y283906D01*
X89901Y284161D01*
X89232D01*
X88615Y283906D01*
X88307Y283598D01*
X86741D01*
X86547Y283889D01*
X85991Y284261D01*
X85335Y284391D01*
X80020D01*
X79364Y284261D01*
X78808Y283889D01*
X78436Y283333D01*
X78306Y282677D01*
X78436Y282021D01*
X78808Y281465D01*
X78977Y281352D01*
Y280852D01*
X78808Y280740D01*
X78436Y280184D01*
X78306Y279528D01*
X78436Y278872D01*
X78808Y278316D01*
X78977Y278203D01*
Y277703D01*
X78808Y277590D01*
X78436Y277034D01*
X78306Y276378D01*
X78436Y275722D01*
X78808Y275166D01*
X78977Y275053D01*
Y274553D01*
X78808Y274440D01*
X78436Y273884D01*
X78355Y273478D01*
X82677D01*
Y272978D01*
X78355D01*
X78436Y272572D01*
X78808Y272016D01*
X78977Y271903D01*
Y271404D01*
X78808Y271291D01*
X78436Y270735D01*
X78306Y270079D01*
X78436Y269423D01*
X78808Y268867D01*
X78977Y268754D01*
Y268254D01*
X78808Y268141D01*
X78436Y267585D01*
X78306Y266929D01*
X78419Y266359D01*
X78191Y266154D01*
X78007Y266065D01*
X73151Y270920D01*
X72655Y271252D01*
X72070Y271368D01*
X67893D01*
X67737Y271795D01*
X67733Y271868D01*
X74540Y278675D01*
X74761Y279006D01*
X74839Y279396D01*
Y284388D01*
X75031Y284516D01*
X75144Y284685D01*
X75644D01*
X75757Y284516D01*
X76313Y284145D01*
X76968Y284014D01*
X77624Y284145D01*
X78180Y284516D01*
X78552Y285072D01*
X78683Y285728D01*
Y291043D01*
X78552Y291699D01*
X78180Y292255D01*
X77624Y292627D01*
X76968Y292757D01*
X76313Y292627D01*
X75757Y292255D01*
X75644Y292087D01*
X75144D01*
X75031Y292255D01*
X74475Y292627D01*
X73819Y292757D01*
X73163Y292627D01*
X72607Y292255D01*
X72494Y292087D01*
X71994D01*
X71881Y292255D01*
X71325Y292627D01*
X70669Y292757D01*
X70013Y292627D01*
X69457Y292255D01*
X69345Y292087D01*
X68844D01*
X68732Y292255D01*
X68176Y292627D01*
X68045Y292653D01*
X67900Y293131D01*
X70318Y295549D01*
X71848D01*
X72239Y295627D01*
X72569Y295848D01*
X77650Y300929D01*
X77871Y301259D01*
X77949Y301650D01*
Y302650D01*
X79398D01*
Y315854D01*
X77791D01*
Y316556D01*
X78197Y316961D01*
X78453Y317579D01*
Y318248D01*
X78197Y318866D01*
X77724Y319338D01*
X77106Y319595D01*
X76437D01*
X75819Y319338D01*
X75346Y318866D01*
X75090Y318248D01*
Y317579D01*
X75346Y316961D01*
X75752Y316556D01*
Y315854D01*
X74461D01*
Y302650D01*
X75910D01*
Y302072D01*
X71426Y297588D01*
X69896D01*
X69506Y297511D01*
X69175Y297290D01*
X64597Y292712D01*
X64370Y292757D01*
X63714Y292627D01*
X63158Y292255D01*
X63090Y292153D01*
X62581Y292122D01*
X62240Y292460D01*
Y300671D01*
X63604Y302035D01*
X63825Y302366D01*
X63903Y302756D01*
Y335123D01*
X63961Y335161D01*
X64461Y334894D01*
Y323909D01*
X65909D01*
Y321240D01*
X65504Y320834D01*
X65248Y320216D01*
Y319548D01*
X65504Y318930D01*
X65977Y318457D01*
X66595Y318201D01*
X67264D01*
X67881Y318457D01*
X68354Y318930D01*
X68610Y319548D01*
Y320216D01*
X68354Y320834D01*
X67949Y321240D01*
Y323909D01*
X69398D01*
Y336595D01*
X74461D01*
Y330762D01*
D02*
G37*
G36*
X107248Y310357D02*
Y303354D01*
X105268D01*
Y279035D01*
X104806Y278844D01*
X100346Y283303D01*
Y316606D01*
X100808Y316797D01*
X107248Y310357D01*
D02*
G37*
G36*
X235380Y283980D02*
X232515Y281116D01*
X232294Y280785D01*
X232217Y280395D01*
Y274480D01*
X232294Y274090D01*
X232515Y273759D01*
X235332Y270942D01*
X235141Y270480D01*
X231334D01*
Y275648D01*
X231257Y276038D01*
X231036Y276369D01*
X223387Y284018D01*
X223578Y284480D01*
X235173D01*
X235380Y283980D01*
D02*
G37*
G36*
X233736Y295000D02*
X225322D01*
X224932Y294922D01*
X224601Y294701D01*
X221015Y291115D01*
X220794Y290785D01*
X220717Y290394D01*
Y284227D01*
X220794Y283837D01*
X221015Y283506D01*
X229295Y275226D01*
Y270480D01*
X222236D01*
Y268500D01*
X216163D01*
X210542Y274121D01*
X210211Y274342D01*
X209821Y274420D01*
X209178D01*
Y279650D01*
X206728D01*
Y287279D01*
X209178D01*
Y289135D01*
X210852D01*
X211242Y289212D01*
X211573Y289433D01*
X218601Y296461D01*
X233736D01*
Y295000D01*
D02*
G37*
G36*
X197431Y280198D02*
Y275153D01*
X197509Y274763D01*
X197730Y274432D01*
X200983Y271179D01*
X201017Y271157D01*
X202240Y269934D01*
Y267307D01*
X201778Y267115D01*
X192949Y275944D01*
Y278240D01*
X195283D01*
Y281693D01*
X195745Y281884D01*
X197431Y280198D01*
D02*
G37*
G36*
X167947Y279862D02*
Y275543D01*
X180352D01*
X180543Y275081D01*
X171525Y266063D01*
X170947D01*
Y271543D01*
X164716D01*
Y277285D01*
X167485Y280054D01*
X167947Y279862D01*
D02*
G37*
G36*
X247368Y274018D02*
X238718Y265368D01*
X238256Y265560D01*
Y270480D01*
X238178Y270870D01*
X237957Y271201D01*
X235140Y274018D01*
X235331Y274480D01*
X247177D01*
X247368Y274018D01*
D02*
G37*
G36*
X215020Y266759D02*
X215351Y266538D01*
X215741Y266461D01*
X222236D01*
Y265000D01*
X204203D01*
X204115Y265126D01*
X204377Y265626D01*
X209178D01*
Y271376D01*
X203682D01*
X203139Y271919D01*
X203330Y272380D01*
X209399D01*
X215020Y266759D01*
D02*
G37*
G36*
X59386Y263811D02*
X59859Y263339D01*
X60477Y263083D01*
X61145D01*
X61763Y263339D01*
X62169Y263744D01*
X69834D01*
X69933Y263244D01*
X69914Y263236D01*
X69441Y262763D01*
X69185Y262145D01*
Y261477D01*
X69441Y260859D01*
X69914Y260386D01*
X70107Y260306D01*
Y260206D01*
X70185Y259816D01*
X70249Y259719D01*
X70047Y259169D01*
X70013Y259162D01*
X69457Y258791D01*
X69345Y258622D01*
X68844D01*
X68732Y258791D01*
X68176Y259162D01*
X67520Y259293D01*
X66864Y259162D01*
X66308Y258791D01*
X66195Y258622D01*
X65695D01*
X65582Y258791D01*
X65026Y259162D01*
X64370Y259293D01*
X63714Y259162D01*
X63158Y258791D01*
X63045Y258622D01*
X62545D01*
X62432Y258791D01*
X61876Y259162D01*
X61221Y259293D01*
X60993Y259248D01*
X58367Y261874D01*
Y262682D01*
X58512Y262827D01*
X58768Y263445D01*
Y263997D01*
X59268Y264097D01*
X59386Y263811D01*
D02*
G37*
G36*
X125268Y290604D02*
X131268D01*
Y301673D01*
X131730Y301865D01*
X142838Y290757D01*
Y277719D01*
X142915Y277328D01*
X143136Y276998D01*
X155812Y264322D01*
X156142Y264101D01*
X156533Y264024D01*
X171947D01*
X172337Y264101D01*
X172668Y264322D01*
X184754Y276408D01*
X184975Y276739D01*
X185052Y277129D01*
Y277958D01*
X184975Y278348D01*
X184754Y278678D01*
X184168Y279264D01*
X183837Y279485D01*
X183447Y279563D01*
X182447D01*
Y281543D01*
X169628D01*
X169437Y282005D01*
X170286Y282854D01*
X188575D01*
Y278240D01*
X190910D01*
Y275522D01*
X190987Y275132D01*
X191208Y274801D01*
X202750Y263259D01*
X203081Y263038D01*
X203471Y262961D01*
X235657D01*
X235848Y262499D01*
X230138Y256788D01*
X119250D01*
Y257354D01*
X121268D01*
Y283354D01*
X115268D01*
Y271374D01*
X112276D01*
X106757Y276892D01*
X106949Y277354D01*
X111268D01*
Y301912D01*
X112190Y302835D01*
X125268D01*
Y290604D01*
D02*
G37*
G36*
X63158Y251052D02*
X63714Y250680D01*
X64370Y250550D01*
X65026Y250680D01*
X65582Y251052D01*
X65650Y251154D01*
X66159Y251185D01*
X66500Y250847D01*
Y248996D01*
X66488Y248984D01*
X66232Y248366D01*
Y247697D01*
X66488Y247079D01*
X66961Y246606D01*
X67579Y246350D01*
X68248D01*
X68866Y246606D01*
X69339Y247079D01*
X69595Y247697D01*
Y248366D01*
X69339Y248984D01*
X68866Y249457D01*
X68539Y249592D01*
Y250923D01*
X68732Y251052D01*
X68844Y251221D01*
X69345D01*
X69457Y251052D01*
X70013Y250680D01*
X70669Y250550D01*
X70951Y250606D01*
X76728Y244828D01*
X76537Y244366D01*
X67476D01*
X61655Y250187D01*
X61800Y250665D01*
X61876Y250680D01*
X62432Y251052D01*
X62545Y251221D01*
X63045D01*
X63158Y251052D01*
D02*
G37*
G36*
X83469Y239043D02*
Y198945D01*
X77236D01*
Y192945D01*
X91740D01*
Y198945D01*
X85508D01*
Y238472D01*
X85970Y238663D01*
X97163Y227469D01*
Y209431D01*
X97241Y209041D01*
X97462Y208710D01*
X112917Y193255D01*
X113248Y193034D01*
X113638Y192957D01*
X114638D01*
Y190976D01*
X129142D01*
Y195282D01*
X129604Y195473D01*
X161290Y163787D01*
Y157783D01*
X155110D01*
Y155842D01*
X152005D01*
X151615Y155765D01*
X151284Y155544D01*
X149387Y153647D01*
X148925Y153839D01*
Y155323D01*
X148657D01*
Y170410D01*
X148580Y170800D01*
X148359Y171131D01*
X143655Y175835D01*
X143324Y176056D01*
X143020Y176117D01*
Y181307D01*
X137950D01*
X134560Y184697D01*
X134229Y184918D01*
X133839Y184996D01*
X117646D01*
Y186976D01*
X103142D01*
Y180976D01*
X117646D01*
Y182957D01*
X133416D01*
X136508Y179865D01*
Y176134D01*
X132846D01*
X132456Y176056D01*
X132125Y175835D01*
X123669Y167378D01*
X123448Y167048D01*
X123370Y166657D01*
Y165317D01*
X123178Y165188D01*
X122806Y164632D01*
X122676Y163976D01*
Y160630D01*
X122806Y159974D01*
X123178Y159418D01*
X123370Y159289D01*
Y148533D01*
X105300Y130463D01*
X81996D01*
Y130717D01*
X80863D01*
X79855Y131725D01*
X79524Y131946D01*
X79134Y132024D01*
X77127D01*
Y132677D01*
X76997Y133333D01*
X76625Y133889D01*
X76069Y134261D01*
X75413Y134391D01*
X75186Y134346D01*
X68614Y140918D01*
Y147384D01*
X68850Y147462D01*
X69114Y147468D01*
X69401Y147038D01*
X70572Y145868D01*
X70769Y145572D01*
X71265Y145241D01*
X71850Y145124D01*
X72436Y145241D01*
X72932Y145572D01*
X73263Y146068D01*
X73380Y146653D01*
Y146751D01*
X73263Y147337D01*
X72932Y147833D01*
X72012Y148753D01*
Y150207D01*
X72127Y150787D01*
Y152211D01*
X70413D01*
Y152461D01*
X70163D01*
Y155798D01*
X69757Y155717D01*
X69201Y155346D01*
X69114Y155215D01*
X68614Y155367D01*
Y158296D01*
X68537Y158686D01*
X68315Y159017D01*
X66965Y160368D01*
Y164953D01*
X68906D01*
Y171661D01*
X62984D01*
Y164953D01*
X64925D01*
Y160939D01*
X64463Y160748D01*
X62429Y162782D01*
Y166347D01*
X62410Y166445D01*
Y171661D01*
X56488D01*
Y164953D01*
X60390D01*
Y162360D01*
X60467Y161970D01*
X60689Y161639D01*
X64394Y157934D01*
Y155474D01*
X64201Y155346D01*
X63830Y154790D01*
X63699Y154134D01*
Y150787D01*
X63830Y150131D01*
X64201Y149575D01*
X64394Y149447D01*
Y134018D01*
X64201Y133889D01*
X63830Y133333D01*
X63699Y132677D01*
Y129331D01*
X63830Y128675D01*
X64201Y128119D01*
X64394Y127990D01*
Y126257D01*
X64471Y125867D01*
X64692Y125536D01*
X67416Y122812D01*
X67225Y122350D01*
X63378D01*
Y120114D01*
X62378D01*
X61988Y120036D01*
X61657Y119816D01*
X51700Y109859D01*
X51479Y109528D01*
X51402Y109138D01*
Y70527D01*
X51479Y70137D01*
X51700Y69807D01*
X52346Y69161D01*
X52677Y68940D01*
X53067Y68862D01*
X54067D01*
Y62886D01*
X59791D01*
Y76878D01*
X54067D01*
Y70902D01*
X53489D01*
X53441Y70950D01*
Y79664D01*
X53903Y79855D01*
X55901Y77857D01*
X56231Y77636D01*
X56622Y77559D01*
X69976D01*
X72098Y75436D01*
Y62886D01*
X72412D01*
Y58442D01*
X71562Y57592D01*
X50344D01*
X42035Y65900D01*
Y89280D01*
X18988D01*
Y62295D01*
X27963D01*
Y53150D01*
X28157Y52174D01*
X28709Y51347D01*
X47982Y32074D01*
X47505Y31247D01*
X47236Y30244D01*
Y29205D01*
X47505Y28202D01*
X48024Y27302D01*
X48759Y26568D01*
X49658Y26048D01*
X50662Y25780D01*
X51701D01*
X52704Y26048D01*
X53160Y26312D01*
X53593Y26062D01*
Y21697D01*
X53671Y21509D01*
X53747Y21319D01*
X53750Y21318D01*
X53751Y21315D01*
X53940Y21236D01*
X54128Y21156D01*
X146292Y20132D01*
X146293Y20133D01*
X146295Y20132D01*
X146485Y20210D01*
X146676Y20286D01*
X146677Y20288D01*
X146679Y20288D01*
X147034Y20640D01*
X147035Y20641D01*
X147036Y20642D01*
X147115Y20832D01*
X147195Y21022D01*
X147194Y21023D01*
X147195Y21025D01*
Y34400D01*
X199262D01*
Y10374D01*
X198800Y10374D01*
X10374Y10374D01*
Y117434D01*
X10875Y117701D01*
X11008Y117612D01*
X11593Y117496D01*
X15197D01*
X15273Y117445D01*
X15858Y117329D01*
X19325D01*
Y116764D01*
X26325D01*
Y119764D01*
Y122764D01*
X19325D01*
Y120388D01*
X16352D01*
X16276Y120438D01*
X15691Y120555D01*
X11872D01*
X11524Y120624D01*
X10938Y120508D01*
X10875Y120465D01*
X10374Y120732D01*
Y224884D01*
X10465Y225346D01*
X36465D01*
Y227327D01*
X68890D01*
Y224795D01*
X73089D01*
X73280Y224333D01*
X53503Y204557D01*
X46465D01*
Y205008D01*
X31965D01*
Y199008D01*
X46465D01*
Y199459D01*
X49616D01*
Y160505D01*
X41925Y152813D01*
X38575D01*
X38329Y152764D01*
X30825D01*
Y146764D01*
X45325D01*
Y149004D01*
X53968Y157646D01*
X54520Y158473D01*
X54714Y159449D01*
Y199490D01*
X55535Y199653D01*
X56362Y200205D01*
X80951Y224795D01*
X82882D01*
Y231898D01*
X82470D01*
Y237008D01*
X82276Y237983D01*
X82193Y238108D01*
Y239665D01*
X82655Y239857D01*
X83469Y239043D01*
D02*
G37*
G36*
X136508Y169087D02*
X138744D01*
Y167956D01*
X138669Y167880D01*
X138448Y167549D01*
X138370Y167159D01*
Y165317D01*
X138178Y165188D01*
X137806Y164632D01*
X137676Y163976D01*
Y160630D01*
X137806Y159974D01*
X138178Y159418D01*
X138734Y159046D01*
X139390Y158916D01*
X140046Y159046D01*
X140602Y159418D01*
X140973Y159974D01*
X141104Y160630D01*
Y163976D01*
X140973Y164632D01*
X140602Y165188D01*
X140409Y165317D01*
Y166737D01*
X140485Y166812D01*
X140706Y167143D01*
X140783Y167533D01*
Y169087D01*
X143020D01*
Y172933D01*
X143482Y173125D01*
X146618Y169988D01*
Y155323D01*
X146350D01*
Y152594D01*
X130409D01*
Y159289D01*
X130602Y159418D01*
X130973Y159974D01*
X131104Y160630D01*
Y163976D01*
X130973Y164632D01*
X130602Y165188D01*
X130046Y165560D01*
X129390Y165690D01*
X128734Y165560D01*
X128178Y165188D01*
X127806Y164632D01*
X127676Y163976D01*
Y160630D01*
X127806Y159974D01*
X128178Y159418D01*
X128370Y159289D01*
Y151575D01*
Y143860D01*
X128178Y143732D01*
X127806Y143176D01*
X127676Y142520D01*
Y139173D01*
X127806Y138517D01*
X128178Y137961D01*
X128370Y137833D01*
Y130224D01*
X125409D01*
Y137833D01*
X125602Y137961D01*
X125973Y138517D01*
X126104Y139173D01*
Y142520D01*
X125973Y143176D01*
X125602Y143732D01*
X125046Y144103D01*
X124390Y144234D01*
X123734Y144103D01*
X123178Y143732D01*
X122806Y143176D01*
X122676Y142520D01*
Y139173D01*
X122806Y138517D01*
X123178Y137961D01*
X123370Y137833D01*
Y130224D01*
X123221D01*
Y123713D01*
X128370D01*
Y119398D01*
X123221D01*
Y117161D01*
X122221D01*
X121830Y117084D01*
X121500Y116863D01*
X114337Y109700D01*
X114230Y109541D01*
X113730Y109692D01*
Y129921D01*
X113572Y130304D01*
X113189Y130463D01*
X108837D01*
X108646Y130924D01*
X125111Y147389D01*
X125332Y147720D01*
X125409Y148110D01*
Y159289D01*
X125602Y159418D01*
X125973Y159974D01*
X126104Y160630D01*
Y163976D01*
X125973Y164632D01*
X125602Y165188D01*
X125409Y165317D01*
Y166235D01*
X133269Y174095D01*
X136508D01*
Y169087D01*
D02*
G37*
G36*
X113189Y87429D02*
X108442Y82683D01*
X107980Y82874D01*
Y94435D01*
X96457D01*
X84933D01*
Y81193D01*
X92523D01*
X92714Y80731D01*
X90723Y78740D01*
X71678D01*
X71119Y79299D01*
X70788Y79520D01*
X70398Y79598D01*
X57044D01*
X55911Y80731D01*
X56102Y81193D01*
X65695D01*
Y94685D01*
Y108177D01*
X56102D01*
X55911Y108639D01*
X58260Y110988D01*
X65489D01*
X65879Y111066D01*
X66210Y111287D01*
X67139Y112216D01*
X78740Y112227D01*
Y128865D01*
X79240Y129121D01*
X79421Y128990D01*
Y127551D01*
X81996D01*
Y129921D01*
X113189D01*
Y87429D01*
D02*
G37*
G36*
X73744Y132904D02*
X73699Y132677D01*
Y129331D01*
X73830Y128675D01*
X74201Y128119D01*
X74757Y127747D01*
X75413Y127617D01*
X76069Y127747D01*
X76625Y128119D01*
X76997Y128675D01*
X77127Y129331D01*
Y129984D01*
X78201D01*
X78331Y129825D01*
X78391Y129651D01*
X78357Y129248D01*
X78308Y129130D01*
X78225Y129032D01*
X78232Y128946D01*
X78199Y128865D01*
Y112767D01*
X68335Y112758D01*
X68143Y113220D01*
X70126Y115203D01*
X70347Y115534D01*
X70408Y115839D01*
X75598D01*
Y122350D01*
X73854D01*
Y126909D01*
X73777Y127300D01*
X73556Y127630D01*
X72082Y129104D01*
X72127Y129331D01*
Y132677D01*
X71997Y133333D01*
X71625Y133889D01*
X71069Y134261D01*
X70413Y134391D01*
X69757Y134261D01*
X69201Y133889D01*
X68830Y133333D01*
X68699Y132677D01*
Y129331D01*
X68830Y128675D01*
X69201Y128119D01*
X69757Y127747D01*
X70413Y127617D01*
X70640Y127662D01*
X71815Y126487D01*
Y122350D01*
X70408D01*
X70347Y122655D01*
X70126Y122986D01*
X66433Y126679D01*
Y127990D01*
X66625Y128119D01*
X66997Y128675D01*
X67127Y129331D01*
Y132677D01*
X66997Y133333D01*
X66625Y133889D01*
X66433Y134018D01*
Y139534D01*
X66690Y139675D01*
X66933Y139716D01*
X73744Y132904D01*
D02*
G37*
G36*
X141280Y123358D02*
Y108571D01*
X139957D01*
Y120217D01*
X139879Y120607D01*
X139658Y120938D01*
X135441Y125154D01*
Y128543D01*
X135903Y128735D01*
X141280Y123358D01*
D02*
G37*
G36*
X230110Y103518D02*
X237362D01*
X244614D01*
Y104587D01*
X245076Y104778D01*
X246063Y103791D01*
Y45768D01*
X200787D01*
Y34941D01*
X147195D01*
Y78248D01*
X204724D01*
Y104416D01*
X205224Y104568D01*
X205285Y104477D01*
X205841Y104105D01*
X206497Y103975D01*
X209844D01*
X210500Y104105D01*
X211056Y104477D01*
X211184Y104669D01*
X226961D01*
X227351Y104747D01*
X227682Y104968D01*
X228462Y105748D01*
X230110D01*
Y103518D01*
D02*
G37*
G36*
X137917Y119794D02*
Y108571D01*
X136075D01*
Y96260D01*
X135613Y96068D01*
X133697Y97984D01*
Y112886D01*
X135441D01*
Y119398D01*
X130409D01*
Y123713D01*
X133999D01*
X137917Y119794D01*
D02*
G37*
G36*
X123221Y112886D02*
X128370D01*
Y94045D01*
X117126Y94045D01*
X116743Y93887D01*
X116585Y93504D01*
Y78297D01*
X96457D01*
X96074Y78139D01*
X95916Y77756D01*
Y51722D01*
X54134D01*
X53751Y51564D01*
X53593Y51181D01*
Y34271D01*
X53093Y34119D01*
X52983Y34283D01*
X33061Y54205D01*
Y62295D01*
X38431D01*
X47486Y53240D01*
X48313Y52688D01*
X49288Y52494D01*
X72618D01*
X73593Y52688D01*
X74420Y53240D01*
X76763Y55583D01*
X77316Y56410D01*
X77510Y57386D01*
Y62886D01*
X77823D01*
Y76878D01*
X73540D01*
X72681Y77737D01*
X72873Y78199D01*
X89529D01*
X89720Y77737D01*
X88861Y76878D01*
X84579D01*
Y62886D01*
X90303D01*
Y75436D01*
X94540Y79673D01*
X107895D01*
X108285Y79751D01*
X108616Y79972D01*
X115779Y87135D01*
X115999Y87466D01*
X116077Y87856D01*
Y108556D01*
X122643Y115122D01*
X123221D01*
Y112886D01*
D02*
G37*
G36*
X131658Y97562D02*
X131735Y97172D01*
X131956Y96841D01*
X134290Y94507D01*
X134099Y94045D01*
X130409D01*
Y112886D01*
X131658D01*
Y97562D01*
D02*
G37*
G36*
X383326Y89124D02*
X352057D01*
X351958Y89083D01*
X351850D01*
X351774Y89007D01*
X351675Y88965D01*
X351171Y88815D01*
X341584Y98402D01*
Y101469D01*
X361660D01*
Y95472D01*
X361776Y94887D01*
X362107Y94391D01*
X362604Y94059D01*
X363189Y93943D01*
X363774Y94059D01*
X364270Y94391D01*
X364602Y94887D01*
X364718Y95472D01*
Y101469D01*
X383326D01*
Y89124D01*
D02*
G37*
G36*
X303150Y85630D02*
X293307D01*
Y42186D01*
X292845Y41995D01*
X285151Y49689D01*
Y57965D01*
X286484D01*
Y71957D01*
X280760D01*
Y57965D01*
X282093D01*
Y49055D01*
X282209Y48470D01*
X282541Y47974D01*
X293307Y37207D01*
Y10374D01*
X199803D01*
Y34400D01*
X200787D01*
X201170Y34558D01*
X201329Y34941D01*
Y45226D01*
X246063D01*
X246446Y45385D01*
X246604Y45768D01*
Y102597D01*
X247066Y102788D01*
X252917Y96937D01*
Y90276D01*
X250275D01*
Y84337D01*
X257599D01*
Y90276D01*
X254957D01*
Y97359D01*
X254879Y97749D01*
X254658Y98080D01*
X246063Y106675D01*
Y107283D01*
X303150D01*
Y85630D01*
D02*
G37*
G36*
X383326Y10374D02*
X333661D01*
Y27654D01*
X334161Y27788D01*
X334442Y27302D01*
X335176Y26568D01*
X336076Y26048D01*
X337079Y25780D01*
X338118D01*
X339121Y26048D01*
X340021Y26568D01*
X340755Y27302D01*
X341274Y28202D01*
X341543Y29205D01*
Y30244D01*
X341274Y31247D01*
X340755Y32147D01*
X340154Y32748D01*
X340256Y33783D01*
X340682Y35188D01*
X341374Y36482D01*
X342305Y37616D01*
X343439Y38547D01*
X344734Y39239D01*
X346138Y39665D01*
X347481Y39797D01*
X347598Y39774D01*
X352256D01*
Y36114D01*
X359555D01*
Y48531D01*
X352256D01*
Y44872D01*
X347598D01*
X347513Y44855D01*
X345637Y44707D01*
X343724Y44248D01*
X341906Y43495D01*
X340228Y42467D01*
X338732Y41189D01*
X337454Y39693D01*
X336426Y38015D01*
X335673Y36198D01*
X335214Y34284D01*
X335098Y32802D01*
X334442Y32147D01*
X334161Y31661D01*
X333661Y31795D01*
Y88583D01*
X344194D01*
X351450Y81327D01*
X352276Y80775D01*
X353252Y80581D01*
X358752D01*
Y79126D01*
X373532D01*
Y87134D01*
X358752D01*
Y85679D01*
X354308D01*
X351866Y88121D01*
X352057Y88583D01*
X383326D01*
Y10374D01*
D02*
G37*
G36*
X294579Y58358D02*
X304538D01*
Y49781D01*
X296319D01*
X296260Y49793D01*
X295284Y49599D01*
X294457Y49046D01*
X294348Y48883D01*
X293848Y49035D01*
Y85089D01*
X294579D01*
Y58358D01*
D02*
G37*
G36*
X135293Y93504D02*
X135440Y93358D01*
X135770Y93137D01*
X136161Y93059D01*
X141713D01*
X142104Y93137D01*
X142434Y93358D01*
X142580Y93504D01*
X146653D01*
Y21025D01*
X146298Y20673D01*
X54134Y21697D01*
Y27098D01*
X54338Y27302D01*
X54857Y28202D01*
X55126Y29205D01*
Y30244D01*
X54857Y31247D01*
X54338Y32147D01*
X54134Y32351D01*
Y51181D01*
X96457D01*
Y77756D01*
X117126D01*
Y93504D01*
X135293Y93504D01*
D02*
G37*
%LPC*%
G36*
X250931Y337803D02*
X248319D01*
Y334896D01*
X250931D01*
Y337803D01*
D02*
G37*
G36*
X161228Y329831D02*
X154520D01*
Y329321D01*
X150992D01*
Y329831D01*
X144283D01*
Y329321D01*
X135827D01*
X134851Y329127D01*
X134024Y328574D01*
X133472Y327747D01*
X133278Y326772D01*
X133472Y325796D01*
X134024Y324969D01*
X134851Y324417D01*
X135827Y324223D01*
X143930D01*
X144283Y323869D01*
X144283Y323213D01*
Y320722D01*
X147638D01*
X150992D01*
Y323213D01*
X150992Y323532D01*
Y323869D01*
X151346Y324223D01*
X154166D01*
X154520Y323869D01*
X154520Y323213D01*
Y320722D01*
X157874D01*
X161228D01*
Y323213D01*
X161228Y323532D01*
Y323869D01*
X161582Y324223D01*
X170768D01*
X171172Y324303D01*
X175697D01*
Y329240D01*
X171172D01*
X170768Y329321D01*
X161228D01*
Y329831D01*
D02*
G37*
G36*
X254043Y334396D02*
X251181D01*
X248319D01*
Y331488D01*
X249652D01*
Y329544D01*
X249571Y329423D01*
X249455Y328838D01*
Y328740D01*
X249571Y328155D01*
X249903Y327659D01*
X250399Y327327D01*
X250984Y327211D01*
X251570Y327327D01*
X252066Y327659D01*
X252397Y328155D01*
X252397Y328155D01*
X252594Y328450D01*
X252711Y329035D01*
Y331488D01*
X254043D01*
Y334396D01*
D02*
G37*
G36*
X235736Y329240D02*
X231057D01*
Y327022D01*
X235736D01*
Y329240D01*
D02*
G37*
G36*
X230557D02*
X225878D01*
Y327022D01*
X230557D01*
Y329240D01*
D02*
G37*
G36*
X235736Y326522D02*
X225878D01*
Y324303D01*
X229278D01*
Y322090D01*
X229234Y322046D01*
X228902Y321549D01*
X228786Y320964D01*
Y320866D01*
X228902Y320281D01*
X229234Y319785D01*
X229730Y319453D01*
X230315Y319337D01*
X230900Y319453D01*
X231396Y319785D01*
X231594Y320080D01*
X231889Y320375D01*
X232220Y320871D01*
X232336Y321456D01*
Y324303D01*
X235736D01*
Y326522D01*
D02*
G37*
G36*
X150992Y320222D02*
X147638D01*
X144283D01*
Y317413D01*
X146108D01*
Y313976D01*
X146225Y313391D01*
X146556Y312895D01*
X147053Y312563D01*
X147638Y312447D01*
X148223Y312563D01*
X148719Y312895D01*
X149051Y313391D01*
X149167Y313976D01*
Y317413D01*
X150992D01*
Y320222D01*
D02*
G37*
G36*
X161228D02*
X157874D01*
X154520D01*
Y317413D01*
X156345D01*
Y313106D01*
X156067Y312691D01*
X155951Y312106D01*
Y312008D01*
X156067Y311423D01*
X156399Y310926D01*
X156895Y310595D01*
X157480Y310478D01*
X158066Y310595D01*
X158562Y310926D01*
X158759Y311222D01*
X158956Y311418D01*
X159287Y311914D01*
X159403Y312500D01*
Y317413D01*
X161228D01*
Y320222D01*
D02*
G37*
G36*
X209178Y301304D02*
X205959D01*
Y298679D01*
X209178D01*
Y301304D01*
D02*
G37*
G36*
X205459D02*
X202240D01*
Y298679D01*
X205459D01*
Y301304D01*
D02*
G37*
G36*
X209178Y298179D02*
X205959D01*
Y295554D01*
X209178D01*
Y298179D01*
D02*
G37*
G36*
X205459D02*
X202240D01*
Y295554D01*
X205459D01*
Y298179D01*
D02*
G37*
G36*
X175697Y384358D02*
X165839D01*
Y382909D01*
X164764D01*
X164374Y382832D01*
X164043Y382611D01*
X160404Y378972D01*
X159752D01*
Y381110D01*
X155470D01*
X154248Y382331D01*
X153918Y382552D01*
X153527Y382630D01*
X143421D01*
X143031Y382552D01*
X142700Y382331D01*
X133172Y372803D01*
X133048Y372874D01*
X132285Y373079D01*
X131495D01*
X130732Y372874D01*
X130048Y372479D01*
X129489Y371921D01*
X129094Y371237D01*
X129057Y371098D01*
X127845D01*
X127840Y371103D01*
X127510Y371324D01*
X127119Y371402D01*
X125500D01*
Y379437D01*
X118595D01*
Y375429D01*
X117004D01*
X116614Y375352D01*
X116283Y375130D01*
X105578Y364426D01*
X105357Y364095D01*
X105280Y363705D01*
Y362705D01*
X102945D01*
Y356906D01*
X102945Y356587D01*
X102945Y356087D01*
Y353596D01*
X106299D01*
X109653D01*
Y356087D01*
X109653Y356405D01*
X109653Y356906D01*
Y362705D01*
X107319D01*
Y363282D01*
X117426Y373390D01*
X118595D01*
Y369382D01*
X124401D01*
X124500Y369362D01*
X126697D01*
X126702Y369358D01*
X127032Y369137D01*
X127423Y369059D01*
X129057D01*
X129094Y368921D01*
X129489Y368237D01*
X130048Y367678D01*
X130732Y367283D01*
X131495Y367079D01*
X132285D01*
X133048Y367283D01*
X133732Y367678D01*
X134290Y368237D01*
X134680Y367953D01*
X142905Y359727D01*
Y355366D01*
X148827D01*
Y361169D01*
X144347D01*
X135482Y370034D01*
X135152Y370255D01*
X134890Y370307D01*
Y370474D01*
X134685Y371237D01*
X134614Y371361D01*
X139762Y376509D01*
X140223Y376263D01*
X140168Y375984D01*
Y373917D01*
X140362Y372942D01*
X140914Y372115D01*
X147335Y365694D01*
Y362984D01*
X153059D01*
Y369299D01*
X150939D01*
X145954Y374284D01*
X146146Y374746D01*
X149835D01*
X150081Y374795D01*
X153059D01*
Y379930D01*
X153559Y380137D01*
X154028Y379668D01*
Y374795D01*
X159752D01*
Y376933D01*
X160827D01*
X161217Y377011D01*
X161548Y377232D01*
X165186Y380870D01*
X165839D01*
Y379421D01*
X175697D01*
Y384358D01*
D02*
G37*
G36*
X90301Y380421D02*
X87098D01*
Y375644D01*
X90301D01*
Y380421D01*
D02*
G37*
G36*
X56837Y377370D02*
X55012D01*
Y375545D01*
X56837D01*
Y377370D01*
D02*
G37*
G36*
X43057D02*
X41232D01*
Y375545D01*
X43057D01*
Y377370D01*
D02*
G37*
G36*
X308608Y381307D02*
X305799D01*
Y379482D01*
X302165D01*
X301580Y379366D01*
X301084Y379034D01*
X300752Y378538D01*
X300636Y377953D01*
X300752Y377367D01*
X301084Y376871D01*
X301580Y376540D01*
X302165Y376423D01*
X305799D01*
Y374598D01*
X308608D01*
Y377953D01*
Y381307D01*
D02*
G37*
G36*
X94004Y380421D02*
X90801D01*
Y375394D01*
Y370366D01*
X94004D01*
Y373864D01*
X97327D01*
X97742Y373587D01*
X98327Y373471D01*
X98425D01*
X99010Y373587D01*
X99507Y373919D01*
X99838Y374415D01*
X99955Y375000D01*
X99838Y375585D01*
X99507Y376081D01*
X99211Y376279D01*
X99015Y376475D01*
X98519Y376807D01*
X97934Y376923D01*
X94004D01*
Y380421D01*
D02*
G37*
G36*
X59161Y377370D02*
X57337D01*
Y375295D01*
Y373220D01*
X59161D01*
Y373766D01*
X62041D01*
X62309Y373587D01*
X62894Y373471D01*
X62992D01*
X63577Y373587D01*
X64074Y373919D01*
X64405Y374415D01*
X64521Y375000D01*
X64405Y375585D01*
X64074Y376081D01*
X63778Y376279D01*
X63680Y376377D01*
X63184Y376708D01*
X62599Y376825D01*
X59161D01*
Y377370D01*
D02*
G37*
G36*
X56837Y375045D02*
X55012D01*
Y373220D01*
X56837D01*
Y375045D01*
D02*
G37*
G36*
X45382Y377370D02*
X43557D01*
Y375295D01*
X43307D01*
Y375045D01*
X41232D01*
Y373220D01*
X42681D01*
X42722Y373193D01*
X43307Y373077D01*
X48721D01*
X49306Y373193D01*
X49802Y373525D01*
X49999Y373721D01*
X50294Y373919D01*
X50626Y374415D01*
X50742Y375000D01*
X50626Y375585D01*
X50294Y376081D01*
X49798Y376413D01*
X49213Y376529D01*
X49115D01*
X48529Y376413D01*
X48114Y376136D01*
X45382D01*
Y377370D01*
D02*
G37*
G36*
X175697Y376484D02*
X165839D01*
Y371547D01*
X175697D01*
Y376484D01*
D02*
G37*
G36*
X90301Y375144D02*
X87098D01*
Y370366D01*
X90301D01*
Y375144D01*
D02*
G37*
G36*
X308608Y373433D02*
X305799D01*
Y371608D01*
X303150D01*
X302564Y371492D01*
X302068Y371160D01*
X301737Y370664D01*
X301620Y370079D01*
X301737Y369494D01*
X302068Y368997D01*
X302564Y368666D01*
X303150Y368549D01*
X305799D01*
Y366724D01*
X308608D01*
Y370079D01*
Y373433D01*
D02*
G37*
G36*
X235736Y368610D02*
X225878D01*
Y363673D01*
X235736D01*
Y368610D01*
D02*
G37*
G36*
X159752Y369299D02*
X154028D01*
Y362984D01*
X159752D01*
Y365122D01*
X165839D01*
Y363673D01*
X175697D01*
Y368610D01*
X165839D01*
Y367161D01*
X159752D01*
Y369299D01*
D02*
G37*
G36*
X305028Y363531D02*
X300644D01*
Y361785D01*
X305028D01*
Y363531D01*
D02*
G37*
G36*
X22467Y382390D02*
X20840D01*
X19232Y382135D01*
X17683Y381632D01*
X16233Y380893D01*
X14916Y379936D01*
X13765Y378785D01*
X12808Y377468D01*
X12069Y376017D01*
X11566Y374469D01*
X11311Y372861D01*
Y371233D01*
X11566Y369625D01*
X12069Y368077D01*
X12808Y366627D01*
X13765Y365310D01*
X14916Y364158D01*
X16233Y363201D01*
X17683Y362462D01*
X19232Y361959D01*
X20840Y361705D01*
X22467D01*
X24075Y361959D01*
X25624Y362462D01*
X27074Y363201D01*
X28391Y364158D01*
X29542Y365310D01*
X30499Y366627D01*
X31238Y368077D01*
X31741Y369625D01*
X31996Y371233D01*
Y372861D01*
X31741Y374469D01*
X31238Y376017D01*
X30499Y377468D01*
X29542Y378785D01*
X28391Y379936D01*
X27074Y380893D01*
X25624Y381632D01*
X24075Y382135D01*
X22467Y382390D01*
D02*
G37*
G36*
X305028Y361285D02*
X300644D01*
Y359539D01*
X305028D01*
Y361285D01*
D02*
G37*
G36*
X300144Y363531D02*
X295760D01*
Y363065D01*
X290767D01*
X290182Y362948D01*
X289686Y362617D01*
X289568Y362499D01*
X289273Y362302D01*
X288941Y361806D01*
X288825Y361221D01*
X288941Y360635D01*
X289273Y360139D01*
X289769Y359807D01*
X290354Y359691D01*
X290452D01*
X291038Y359807D01*
X291335Y360006D01*
X295760D01*
Y359539D01*
X300144D01*
Y361535D01*
Y363531D01*
D02*
G37*
G36*
X247350Y363394D02*
X241626D01*
Y361256D01*
X239665D01*
X239275Y361178D01*
X238944Y360957D01*
X237275Y359287D01*
X235736D01*
Y360736D01*
X225878D01*
Y355799D01*
X235736D01*
Y357248D01*
X237697D01*
X238087Y357326D01*
X238418Y357547D01*
X240088Y359217D01*
X241626D01*
Y357079D01*
X247350D01*
Y363394D01*
D02*
G37*
G36*
X72835Y365703D02*
X72249Y365586D01*
X71753Y365255D01*
X71422Y364758D01*
X71305Y364173D01*
Y361524D01*
X69480D01*
Y358715D01*
X76189D01*
Y361524D01*
X74364D01*
Y364173D01*
X74248Y364758D01*
X73916Y365255D01*
X73420Y365586D01*
X72835Y365703D01*
D02*
G37*
G36*
X59161Y370874D02*
X55012D01*
Y366724D01*
X56067D01*
Y362803D01*
X53929D01*
Y358063D01*
X60244D01*
Y362803D01*
X58106D01*
Y366724D01*
X59161D01*
Y370874D01*
D02*
G37*
G36*
X45382D02*
X41232D01*
Y366724D01*
X42287D01*
Y362606D01*
X40150D01*
Y357866D01*
X46465D01*
Y362606D01*
X44327D01*
Y366724D01*
X45382D01*
Y370874D01*
D02*
G37*
G36*
X160441Y361169D02*
X151370D01*
Y355366D01*
X160441D01*
Y357248D01*
X165839D01*
Y355799D01*
X175697D01*
Y360736D01*
X165839D01*
Y359287D01*
X160441D01*
Y361169D01*
D02*
G37*
G36*
X325472Y358571D02*
X320197D01*
X319418Y358416D01*
X318758Y357975D01*
X318317Y357314D01*
X318162Y356535D01*
X318317Y355757D01*
X318758Y355096D01*
X319418Y354655D01*
X320197Y354500D01*
X325472D01*
X326251Y354655D01*
X326911Y355096D01*
X327353Y355757D01*
X327508Y356535D01*
X327353Y357314D01*
X326911Y357975D01*
X326251Y358416D01*
X325472Y358571D01*
D02*
G37*
G36*
X125500Y353059D02*
X122297D01*
Y348282D01*
X125500D01*
Y353059D01*
D02*
G37*
G36*
X121797D02*
X118595D01*
Y348282D01*
X121797D01*
Y353059D01*
D02*
G37*
G36*
X370813Y349713D02*
X367709D01*
Y347396D01*
X370813D01*
Y349713D01*
D02*
G37*
G36*
X352185Y348728D02*
X352100D01*
Y347297D01*
X353532D01*
Y347382D01*
X353276Y348000D01*
X352803Y348472D01*
X352185Y348728D01*
D02*
G37*
G36*
X357697D02*
X357612D01*
Y347297D01*
X359043D01*
Y347382D01*
X358787Y348000D01*
X358314Y348472D01*
X357697Y348728D01*
D02*
G37*
G36*
X357112D02*
X357028D01*
X356410Y348472D01*
X355937Y348000D01*
X355681Y347382D01*
Y347297D01*
X357112D01*
Y348728D01*
D02*
G37*
G36*
X325472Y353571D02*
X320197D01*
X319418Y353416D01*
X318758Y352975D01*
X318317Y352314D01*
X318162Y351535D01*
X318317Y350757D01*
X318758Y350096D01*
X319418Y349655D01*
X320197Y349500D01*
X325472D01*
X326251Y349655D01*
X326911Y350096D01*
X327192Y350516D01*
X331507D01*
X331784Y350239D01*
Y348854D01*
X330238D01*
X329848Y348777D01*
X329517Y348556D01*
X328516Y347555D01*
X327192D01*
X326911Y347974D01*
X326251Y348416D01*
X325472Y348571D01*
X320197D01*
X319418Y348416D01*
X318758Y347974D01*
X318317Y347314D01*
X318162Y346535D01*
X318317Y345757D01*
X318758Y345096D01*
X319418Y344655D01*
X320197Y344500D01*
X325472D01*
X326251Y344655D01*
X326911Y345096D01*
X327192Y345516D01*
X328939D01*
X329329Y345594D01*
X329659Y345814D01*
X330660Y346815D01*
X331784D01*
Y345430D01*
X330248Y343895D01*
X330027Y343564D01*
X329950Y343174D01*
Y343041D01*
X329756Y342961D01*
X329283Y342488D01*
X329028Y341870D01*
Y341201D01*
X329283Y340583D01*
X329756Y340110D01*
X330374Y339854D01*
X331043D01*
X331661Y340110D01*
X332134Y340583D01*
X332390Y341201D01*
Y341870D01*
X332134Y342488D01*
X331989Y342633D01*
Y342752D01*
X333206Y343969D01*
X333571D01*
X333669Y343988D01*
X335933D01*
Y345902D01*
X336433Y346109D01*
X337700Y344842D01*
X338031Y344621D01*
X338421Y344543D01*
X339421D01*
Y343988D01*
X343571D01*
Y346547D01*
Y349374D01*
X345593D01*
X345630Y349236D01*
X346025Y348552D01*
X346583Y347993D01*
X347267Y347598D01*
X348030Y347394D01*
X348820D01*
X349583Y347598D01*
X349760Y347700D01*
X350086Y347446D01*
X350169Y347359D01*
Y347297D01*
X351600D01*
Y348728D01*
X351516D01*
X351502Y348723D01*
X351154Y349119D01*
X351221Y349236D01*
X351425Y349999D01*
Y350789D01*
X351221Y351552D01*
X350826Y352236D01*
X350267Y352794D01*
X349583Y353189D01*
X348820Y353394D01*
X348030D01*
X347267Y353189D01*
X346583Y352794D01*
X346025Y352236D01*
X345630Y351552D01*
X345593Y351413D01*
X343571D01*
Y351681D01*
X339421D01*
Y350001D01*
X338959Y349809D01*
X337654Y351115D01*
X337323Y351336D01*
X336933Y351413D01*
X335933D01*
Y351681D01*
X333669D01*
X333571Y351701D01*
X333206D01*
X332650Y352256D01*
X332319Y352477D01*
X331929Y352555D01*
X327192D01*
X326911Y352975D01*
X326251Y353416D01*
X325472Y353571D01*
D02*
G37*
G36*
X109653Y353097D02*
X106299D01*
X102945D01*
Y350287D01*
X104770D01*
Y346457D01*
X104886Y345871D01*
X105218Y345375D01*
X105714Y345044D01*
X106299Y344927D01*
X106885Y345044D01*
X107381Y345375D01*
X107712Y345871D01*
X107829Y346457D01*
Y350287D01*
X109653D01*
Y353097D01*
D02*
G37*
G36*
X370813Y346896D02*
X367709D01*
Y344579D01*
X370813D01*
Y346896D01*
D02*
G37*
G36*
X353532Y346797D02*
X351850D01*
X350169D01*
Y346713D01*
X350425Y346095D01*
X350898Y345622D01*
X351201Y345497D01*
Y344956D01*
X350847Y344809D01*
X350348Y344311D01*
X350079Y343659D01*
Y342955D01*
X350348Y342303D01*
X350847Y341805D01*
X351498Y341535D01*
X352203D01*
X352854Y341805D01*
X353352Y342303D01*
X353622Y342955D01*
Y343659D01*
X353352Y344311D01*
X352854Y344809D01*
X352500Y344956D01*
Y345497D01*
X352803Y345622D01*
X353276Y346095D01*
X353532Y346713D01*
Y346797D01*
D02*
G37*
G36*
X325472Y343571D02*
X320197D01*
X319418Y343416D01*
X318758Y342974D01*
X318317Y342314D01*
X318162Y341535D01*
X318317Y340757D01*
X318758Y340096D01*
X319418Y339655D01*
X320197Y339500D01*
X325472D01*
X326251Y339655D01*
X326911Y340096D01*
X327353Y340757D01*
X327508Y341535D01*
X327353Y342314D01*
X326911Y342974D01*
X326251Y343416D01*
X325472Y343571D01*
D02*
G37*
G36*
X347008Y345314D02*
X346240Y345161D01*
X345589Y344726D01*
X345154Y344075D01*
X345001Y343307D01*
Y339764D01*
X345154Y338996D01*
X345589Y338345D01*
X346240Y337910D01*
X347008Y337757D01*
X347776Y337910D01*
X348427Y338345D01*
X348862Y338996D01*
X349015Y339764D01*
Y343307D01*
X348862Y344075D01*
X348427Y344726D01*
X347776Y345161D01*
X347008Y345314D01*
D02*
G37*
G36*
X15748Y344049D02*
X15163Y343933D01*
X14667Y343601D01*
X14335Y343105D01*
X14219Y342520D01*
Y339083D01*
X12689D01*
Y335782D01*
X15748D01*
X18807D01*
Y339083D01*
X17277D01*
Y342520D01*
X17161Y343105D01*
X16829Y343601D01*
X16333Y343933D01*
X15748Y344049D01*
D02*
G37*
G36*
X325472Y338571D02*
X320197D01*
X319418Y338416D01*
X318758Y337975D01*
X318317Y337314D01*
X318162Y336535D01*
X318317Y335757D01*
X318758Y335096D01*
X319418Y334655D01*
X320197Y334500D01*
X325472D01*
X326251Y334655D01*
X326911Y335096D01*
X327353Y335757D01*
X327508Y336535D01*
X327353Y337314D01*
X326911Y337975D01*
X326251Y338416D01*
X325472Y338571D01*
D02*
G37*
G36*
X18807Y335281D02*
X15998D01*
Y331980D01*
X18807D01*
Y335281D01*
D02*
G37*
G36*
X15498D02*
X12689D01*
Y331980D01*
X15498D01*
Y335281D01*
D02*
G37*
G36*
X325472Y333571D02*
X320197D01*
X319418Y333416D01*
X318758Y332975D01*
X318317Y332314D01*
X318162Y331535D01*
X318317Y330757D01*
X318758Y330096D01*
X319418Y329655D01*
X320197Y329500D01*
X325472D01*
X326251Y329655D01*
X326911Y330096D01*
X327353Y330757D01*
X327508Y331535D01*
X327353Y332314D01*
X326911Y332975D01*
X326251Y333416D01*
X325472Y333571D01*
D02*
G37*
G36*
Y328571D02*
X320197D01*
X319418Y328416D01*
X318758Y327975D01*
X318317Y327314D01*
X318162Y326535D01*
X318317Y325757D01*
X318758Y325096D01*
X319418Y324655D01*
X320197Y324500D01*
X325472D01*
X326251Y324655D01*
X326911Y325096D01*
X327353Y325757D01*
X327508Y326535D01*
X327353Y327314D01*
X326911Y327975D01*
X326251Y328416D01*
X325472Y328571D01*
D02*
G37*
G36*
X59398Y337114D02*
X54461D01*
Y323909D01*
X59398D01*
Y337114D01*
D02*
G37*
G36*
X36524Y339083D02*
X30406D01*
Y331980D01*
X32445D01*
Y330193D01*
X32523Y329803D01*
X32744Y329472D01*
X38232Y323984D01*
X38563Y323763D01*
X38953Y323685D01*
X39953D01*
Y322335D01*
X46661D01*
Y323784D01*
X47855D01*
X48260Y323378D01*
X48878Y323122D01*
X49547D01*
X50165Y323378D01*
X50638Y323851D01*
X50894Y324469D01*
Y325137D01*
X50638Y325755D01*
X50165Y326228D01*
X49547Y326484D01*
X48878D01*
X48260Y326228D01*
X47855Y325823D01*
X46661D01*
Y327075D01*
X39953D01*
Y325724D01*
X39375D01*
X34484Y330615D01*
Y331980D01*
X36524D01*
Y339083D01*
D02*
G37*
G36*
X340953Y324713D02*
X337848D01*
Y322396D01*
X340953D01*
Y324713D01*
D02*
G37*
G36*
X337349D02*
X334244D01*
Y322396D01*
X337349D01*
Y324713D01*
D02*
G37*
G36*
X357715Y326378D02*
X357010D01*
X356359Y326108D01*
X355860Y325610D01*
X355591Y324959D01*
Y324254D01*
X355860Y323603D01*
X356359Y323104D01*
X356713Y322958D01*
Y322417D01*
X356410Y322291D01*
X355937Y321818D01*
X355681Y321200D01*
Y321116D01*
X357362D01*
X359043D01*
Y321200D01*
X358787Y321818D01*
X358314Y322291D01*
X358012Y322417D01*
Y322958D01*
X358366Y323104D01*
X358864Y323603D01*
X359134Y324254D01*
Y324959D01*
X358864Y325610D01*
X358366Y326108D01*
X357715Y326378D01*
D02*
G37*
G36*
X359043Y320616D02*
X357612D01*
Y319185D01*
X357697D01*
X358314Y319441D01*
X358787Y319914D01*
X359043Y320532D01*
Y320616D01*
D02*
G37*
G36*
X357112D02*
X355681D01*
Y320532D01*
X355937Y319914D01*
X356410Y319441D01*
X357028Y319185D01*
X357112D01*
Y320616D01*
D02*
G37*
G36*
X353532D02*
X352100D01*
Y319185D01*
X352185D01*
X352803Y319441D01*
X353276Y319914D01*
X353532Y320532D01*
Y320616D01*
D02*
G37*
G36*
X351600D02*
X350169D01*
Y320532D01*
X350425Y319914D01*
X350898Y319441D01*
X351516Y319185D01*
X351600D01*
Y320616D01*
D02*
G37*
G36*
X36524Y307784D02*
X30406D01*
Y300681D01*
X36524D01*
Y307784D01*
D02*
G37*
G36*
X18807D02*
X12689D01*
Y300681D01*
X18807D01*
Y307784D01*
D02*
G37*
G36*
X289747Y296169D02*
X289620D01*
Y293557D01*
X292232D01*
Y293684D01*
X292037Y294412D01*
X291660Y295064D01*
X291127Y295597D01*
X290475Y295974D01*
X289747Y296169D01*
D02*
G37*
G36*
X289120D02*
X288993D01*
X288265Y295974D01*
X287613Y295597D01*
X287080Y295064D01*
X286703Y294412D01*
X286508Y293684D01*
Y293557D01*
X289120D01*
Y296169D01*
D02*
G37*
G36*
X292232Y293057D02*
X289620D01*
Y290445D01*
X289747D01*
X290475Y290640D01*
X291127Y291017D01*
X291660Y291550D01*
X292037Y292202D01*
X292232Y292930D01*
Y293057D01*
D02*
G37*
G36*
X289120D02*
X286508D01*
Y292930D01*
X286703Y292202D01*
X287080Y291550D01*
X287613Y291017D01*
X288265Y290640D01*
X288993Y290445D01*
X289120D01*
Y293057D01*
D02*
G37*
G36*
X331693Y296805D02*
X331108Y296689D01*
X330611Y296357D01*
X330280Y295861D01*
X330164Y295276D01*
Y292035D01*
X327650D01*
Y289817D01*
X335736D01*
Y292035D01*
X333222D01*
Y295276D01*
X333106Y295861D01*
X332774Y296357D01*
X332278Y296689D01*
X331693Y296805D01*
D02*
G37*
G36*
X36417Y294836D02*
X35832Y294720D01*
X35336Y294389D01*
X35004Y293892D01*
X34888Y293307D01*
Y291248D01*
X32965D01*
Y288242D01*
X36417D01*
X39870D01*
Y291248D01*
X37947D01*
Y293307D01*
X37830Y293892D01*
X37499Y294389D01*
X37003Y294720D01*
X36417Y294836D01*
D02*
G37*
G36*
X25591Y293852D02*
X25005Y293736D01*
X24509Y293404D01*
X24178Y292908D01*
X24061Y292323D01*
Y289772D01*
X22433D01*
Y287652D01*
X25591D01*
X28748D01*
Y289772D01*
X27120D01*
Y292323D01*
X27003Y292908D01*
X26672Y293404D01*
X26176Y293736D01*
X25591Y293852D01*
D02*
G37*
G36*
X335736Y289317D02*
X331943D01*
Y287098D01*
X335736D01*
Y289317D01*
D02*
G37*
G36*
X331443D02*
X327650D01*
Y287098D01*
X331443D01*
Y289317D01*
D02*
G37*
G36*
X319882Y295821D02*
X319297Y295704D01*
X318800Y295373D01*
X318469Y294877D01*
X318353Y294291D01*
Y289673D01*
X316528D01*
Y286864D01*
X323236D01*
Y289673D01*
X321411D01*
Y294291D01*
X321295Y294877D01*
X320963Y295373D01*
X320467Y295704D01*
X319882Y295821D01*
D02*
G37*
G36*
X310039D02*
X309454Y295704D01*
X308958Y295373D01*
X308626Y294877D01*
X308510Y294291D01*
Y289673D01*
X306685D01*
Y286864D01*
X313394D01*
Y289673D01*
X311569D01*
Y294291D01*
X311452Y294877D01*
X311121Y295373D01*
X310625Y295704D01*
X310039Y295821D01*
D02*
G37*
G36*
X374350Y301878D02*
X373681D01*
X373063Y301622D01*
X372591Y301149D01*
X372335Y300531D01*
Y299863D01*
X372591Y299245D01*
X372996Y298839D01*
Y293827D01*
X366626D01*
Y285819D01*
X381405D01*
Y293827D01*
X375035D01*
Y298839D01*
X375441Y299245D01*
X375697Y299863D01*
Y300531D01*
X375441Y301149D01*
X374968Y301622D01*
X374350Y301878D01*
D02*
G37*
G36*
X28748Y287152D02*
X25841D01*
Y285032D01*
X28748D01*
Y287152D01*
D02*
G37*
G36*
X25341D02*
X22433D01*
Y285032D01*
X25341D01*
Y287152D01*
D02*
G37*
G36*
X36167Y287742D02*
X32965D01*
Y284736D01*
X36167D01*
Y287742D01*
D02*
G37*
G36*
X363295Y287508D02*
X355209D01*
Y273516D01*
X363295D01*
Y287508D01*
D02*
G37*
G36*
X98925Y277665D02*
X95722D01*
Y274409D01*
Y271153D01*
X97081D01*
X97228Y271124D01*
X99647D01*
X101183Y269588D01*
X101679Y269256D01*
X102264Y269140D01*
X102362D01*
X102947Y269256D01*
X103444Y269588D01*
X103775Y270084D01*
X103892Y270669D01*
X103775Y271255D01*
X103444Y271751D01*
X103148Y271948D01*
X101361Y273735D01*
X100865Y274066D01*
X100280Y274183D01*
X98925D01*
Y277665D01*
D02*
G37*
G36*
X330150Y273974D02*
X329903Y273925D01*
X327650D01*
Y272530D01*
X323712Y268592D01*
X318118D01*
Y271169D01*
X311803D01*
Y268592D01*
X285693D01*
X284717Y268398D01*
X283891Y267846D01*
X276820Y260775D01*
X276267Y259948D01*
X276073Y258972D01*
Y253472D01*
X275622D01*
Y238968D01*
X278017D01*
X285520Y231465D01*
X286347Y230913D01*
X287323Y230719D01*
X345425D01*
Y230268D01*
X371425D01*
Y236268D01*
X345425D01*
Y235817D01*
X288379D01*
X281671Y242524D01*
Y245721D01*
X281622Y245967D01*
Y253472D01*
X281171D01*
Y257917D01*
X286749Y263494D01*
X311803D01*
Y261236D01*
X311803Y260917D01*
X311803Y260417D01*
Y255860D01*
X318118D01*
Y260417D01*
X318118Y260736D01*
X318118Y261236D01*
Y263494D01*
X324768D01*
X325743Y263688D01*
X326570Y264241D01*
X331317Y268988D01*
X335736D01*
Y273925D01*
X330396D01*
X330150Y273974D01*
D02*
G37*
G36*
X35433Y263340D02*
X29528D01*
X28942Y263224D01*
X28446Y262893D01*
X28115Y262396D01*
X27998Y261811D01*
X28115Y261226D01*
X28446Y260730D01*
X28942Y260398D01*
X29528Y260282D01*
X35433D01*
X36018Y260398D01*
X36206Y260524D01*
X39673D01*
Y261561D01*
X35433D01*
Y262061D01*
X39673D01*
Y263098D01*
X36206D01*
X36018Y263224D01*
X35433Y263340D01*
D02*
G37*
G36*
X318118Y255360D02*
X311803D01*
Y250484D01*
X313431D01*
Y249016D01*
X313548Y248430D01*
X313879Y247934D01*
X314375Y247603D01*
X314961Y247486D01*
X315546Y247603D01*
X316042Y247934D01*
X316374Y248430D01*
X316490Y249016D01*
Y250484D01*
X318118D01*
Y255360D01*
D02*
G37*
G36*
X381405Y273236D02*
X366626D01*
Y265228D01*
X370758D01*
X370949Y264766D01*
X351999Y245817D01*
X351425D01*
Y246268D01*
X325425D01*
Y240268D01*
X351425D01*
Y240719D01*
X353055D01*
X354031Y240913D01*
X354857Y241465D01*
X375818Y262426D01*
X376371Y263253D01*
X376565Y264228D01*
Y265228D01*
X381405D01*
Y273236D01*
D02*
G37*
G36*
X198138Y243315D02*
X191626D01*
Y240272D01*
X169496D01*
Y242252D01*
X154992D01*
Y236252D01*
X169496D01*
Y238232D01*
X184980D01*
X185028Y238169D01*
X185164Y237732D01*
X178787Y231355D01*
X178566Y231024D01*
X178488Y230634D01*
Y229293D01*
X178296Y229165D01*
X177924Y228609D01*
X177794Y227953D01*
Y224606D01*
X177924Y223950D01*
X178296Y223394D01*
X178852Y223023D01*
X179508Y222892D01*
X180164Y223023D01*
X180720Y223394D01*
X181091Y223950D01*
X181222Y224606D01*
Y227953D01*
X181091Y228609D01*
X180720Y229165D01*
X180527Y229293D01*
Y230211D01*
X186418Y236103D01*
X191626D01*
Y231095D01*
X193862D01*
Y230425D01*
X193826Y230371D01*
X193749Y229981D01*
Y229468D01*
X193296Y229165D01*
X192924Y228609D01*
X192794Y227953D01*
Y224606D01*
X192924Y223950D01*
X193296Y223394D01*
X193852Y223023D01*
X194508Y222892D01*
X195164Y223023D01*
X195720Y223394D01*
X196091Y223950D01*
X196222Y224606D01*
Y227953D01*
X196091Y228609D01*
X195788Y229063D01*
Y229651D01*
X195824Y229704D01*
X195902Y230095D01*
Y231095D01*
X198138D01*
Y234941D01*
X198600Y235132D01*
X201736Y231996D01*
Y219299D01*
X201468D01*
Y216571D01*
X185528D01*
Y223266D01*
X185720Y223394D01*
X186091Y223950D01*
X186222Y224606D01*
Y227953D01*
X186091Y228609D01*
X185720Y229165D01*
X185164Y229536D01*
X184508Y229667D01*
X183852Y229536D01*
X183296Y229165D01*
X182924Y228609D01*
X182794Y227953D01*
Y224606D01*
X182924Y223950D01*
X183296Y223394D01*
X183488Y223266D01*
Y215551D01*
Y207837D01*
X183296Y207708D01*
X182924Y207152D01*
X182794Y206496D01*
Y203150D01*
X182924Y202494D01*
X183296Y201938D01*
X183488Y201809D01*
Y195185D01*
X181950D01*
Y197685D01*
X181833Y198270D01*
X181502Y198767D01*
X181037Y199231D01*
Y202413D01*
X181091Y202494D01*
X181222Y203150D01*
Y206496D01*
X181091Y207152D01*
X180720Y207708D01*
X180164Y208080D01*
X179508Y208210D01*
X178852Y208080D01*
X178296Y207708D01*
X177924Y207152D01*
X177794Y206496D01*
Y203150D01*
X177924Y202494D01*
X177979Y202413D01*
Y198598D01*
X178095Y198012D01*
X178426Y197516D01*
X178891Y197052D01*
Y195185D01*
X178535D01*
Y188673D01*
X183543D01*
Y179833D01*
X183488Y179555D01*
Y165067D01*
X173516D01*
Y150187D01*
X170276D01*
X169300Y149993D01*
X168473Y149440D01*
X167921Y148613D01*
X167727Y147638D01*
X167921Y146662D01*
X168473Y145835D01*
X169300Y145283D01*
X170276Y145089D01*
X173516D01*
Y138083D01*
X192958D01*
X198138Y132902D01*
X198966Y132350D01*
X199941Y132156D01*
X223642D01*
X224617Y132350D01*
X225444Y132902D01*
X229246Y136705D01*
X231366D01*
Y150697D01*
X225642D01*
Y143585D01*
X225593Y143339D01*
Y140261D01*
X222586Y137254D01*
X213335D01*
Y150697D01*
X209052D01*
X204760Y154989D01*
Y185819D01*
X206996D01*
X207136Y185377D01*
Y182377D01*
X207202Y182218D01*
X207245Y182051D01*
X207533Y181670D01*
X207567Y181650D01*
X207582Y181613D01*
X207741Y181547D01*
X207890Y181460D01*
X207965Y180983D01*
Y156025D01*
X207890Y155548D01*
X207741Y155460D01*
X207582Y155394D01*
X207567Y155358D01*
X207533Y155338D01*
X207245Y154957D01*
X207202Y154790D01*
X207136Y154631D01*
Y153543D01*
X207295Y153161D01*
X207677Y153002D01*
X238423D01*
X238614Y152540D01*
X238295Y152221D01*
X238074Y151890D01*
X237996Y151500D01*
Y150500D01*
X236154D01*
Y136508D01*
X241878D01*
Y150500D01*
X240035D01*
Y151078D01*
X242253Y153295D01*
X246506D01*
Y123031D01*
X246665Y122649D01*
X247047Y122490D01*
X298228D01*
X298611Y122649D01*
X298769Y123031D01*
Y168307D01*
X298611Y168690D01*
X298228Y168848D01*
X277594D01*
Y185721D01*
X282685D01*
Y192232D01*
X282594D01*
Y194821D01*
X282787Y194949D01*
X283158Y195505D01*
X283289Y196161D01*
Y199508D01*
X283158Y200164D01*
X282787Y200720D01*
X282231Y201091D01*
X281575Y201222D01*
X280919Y201091D01*
X280363Y200720D01*
X279991Y200164D01*
X279861Y199508D01*
Y196161D01*
X279991Y195505D01*
X280363Y194949D01*
X280555Y194821D01*
Y192232D01*
X277594D01*
Y194821D01*
X277787Y194949D01*
X278158Y195505D01*
X278289Y196161D01*
Y199508D01*
X278158Y200164D01*
X277787Y200720D01*
X277594Y200849D01*
Y206740D01*
X297462D01*
X297852Y206818D01*
X298182Y207039D01*
X299834Y208690D01*
X300055Y209021D01*
X300067Y209081D01*
X301186Y210201D01*
X301764D01*
Y208260D01*
X308472D01*
Y214181D01*
X301764D01*
Y212240D01*
X300764D01*
X300374Y212162D01*
X300043Y211941D01*
X298392Y210290D01*
X298171Y209960D01*
X298047Y209939D01*
X297547Y210335D01*
Y211425D01*
X294972D01*
Y210862D01*
X286688D01*
X282009Y215541D01*
X282154Y216019D01*
X282231Y216035D01*
X282787Y216406D01*
X283158Y216962D01*
X283289Y217618D01*
Y219041D01*
X281575D01*
Y219541D01*
X283289D01*
Y220965D01*
X283158Y221620D01*
X283065Y221761D01*
Y223386D01*
X282948Y223971D01*
X282617Y224467D01*
X282577Y224507D01*
X282081Y224838D01*
X281496Y224955D01*
X280911Y224838D01*
X280415Y224507D01*
X280083Y224010D01*
X279967Y223425D01*
X280006Y223227D01*
Y222713D01*
X279544Y222522D01*
X278199Y223867D01*
X277868Y224088D01*
X277478Y224165D01*
X273756D01*
X273366Y224088D01*
X273035Y223867D01*
X271802Y222633D01*
X271575Y222679D01*
X270919Y222548D01*
X270363Y222177D01*
X269991Y221620D01*
X269861Y220965D01*
Y217618D01*
X269991Y216962D01*
X270363Y216406D01*
X270555Y216278D01*
Y208021D01*
X260910Y198376D01*
X218539D01*
Y206955D01*
X218988Y207079D01*
X219039Y207079D01*
X233768D01*
Y215087D01*
X228100D01*
Y221331D01*
X232803D01*
Y227331D01*
X218299D01*
Y221331D01*
X223002D01*
Y215087D01*
X219039D01*
X218988Y215087D01*
X218539Y215210D01*
Y219623D01*
X218462Y220013D01*
X218241Y220344D01*
X215604Y222981D01*
X215273Y223202D01*
X214883Y223279D01*
X208346D01*
X207956Y223202D01*
X207625Y222981D01*
X204275Y219632D01*
X203776Y219839D01*
Y232418D01*
X203698Y232808D01*
X203477Y233139D01*
X198773Y237843D01*
X198442Y238064D01*
X198138Y238125D01*
Y243315D01*
D02*
G37*
G36*
X244299Y237331D02*
X229795D01*
Y236801D01*
X222441D01*
X221465Y236607D01*
X220638Y236054D01*
X220086Y235227D01*
X219892Y234252D01*
X220086Y233277D01*
X220638Y232450D01*
X221465Y231897D01*
X222441Y231703D01*
X229795D01*
Y231331D01*
X244299D01*
Y237331D01*
D02*
G37*
G36*
X188976Y233813D02*
X188391Y233696D01*
X187895Y233365D01*
X187563Y232869D01*
X187447Y232283D01*
Y232185D01*
X187563Y231600D01*
X187895Y231104D01*
X187978Y231020D01*
Y228690D01*
X187924Y228609D01*
X187794Y227953D01*
Y226530D01*
X191222D01*
Y227953D01*
X191091Y228609D01*
X191037Y228690D01*
Y231654D01*
X190921Y232239D01*
X190589Y232735D01*
X190255Y233069D01*
X190058Y233365D01*
X189562Y233696D01*
X188976Y233813D01*
D02*
G37*
G36*
X191222Y226029D02*
X189758D01*
Y222942D01*
X190164Y223023D01*
X190720Y223394D01*
X191091Y223950D01*
X191222Y224606D01*
Y226029D01*
D02*
G37*
G36*
X189258D02*
X187794D01*
Y224606D01*
X187924Y223950D01*
X188296Y223394D01*
X188852Y223023D01*
X189258Y222942D01*
Y226029D01*
D02*
G37*
G36*
X265165Y232587D02*
X259638D01*
Y226075D01*
X259853D01*
Y222567D01*
X251449D01*
Y216567D01*
X265953D01*
Y222567D01*
X264951D01*
Y226075D01*
X265165D01*
Y232587D01*
D02*
G37*
G36*
X271858D02*
X266331D01*
Y226075D01*
X271858D01*
Y228311D01*
X280089D01*
X285555Y222845D01*
Y222305D01*
X285363Y222177D01*
X284991Y221620D01*
X284861Y220965D01*
Y217618D01*
X284991Y216962D01*
X285363Y216406D01*
X285919Y216035D01*
X286575Y215904D01*
X287231Y216035D01*
X287787Y216406D01*
X288158Y216962D01*
X288289Y217618D01*
Y220965D01*
X288158Y221620D01*
X287787Y222177D01*
X287594Y222305D01*
Y223268D01*
X287517Y223658D01*
X287296Y223989D01*
X281233Y230052D01*
X280902Y230273D01*
X280512Y230350D01*
X271858D01*
Y232587D01*
D02*
G37*
G36*
X351425Y226268D02*
X325425D01*
Y220268D01*
X336284D01*
Y210421D01*
X336014Y210265D01*
X335764Y210399D01*
X335686Y210789D01*
X335465Y211120D01*
X335332Y211253D01*
X335343Y211280D01*
Y211949D01*
X335087Y212566D01*
X334614Y213039D01*
X333996Y213295D01*
X333327D01*
X332709Y213039D01*
X332236Y212566D01*
X331980Y211949D01*
Y211280D01*
X332236Y210662D01*
X332709Y210189D01*
X333264Y209959D01*
X333332Y209865D01*
X333378Y209753D01*
X333469Y209433D01*
X333399Y209328D01*
X333345Y209057D01*
Y203935D01*
X333399Y203664D01*
X333552Y203434D01*
X333724Y203319D01*
Y201410D01*
X333704Y201378D01*
X333626Y200988D01*
Y200160D01*
X332843Y199637D01*
X332291Y198810D01*
X332097Y197835D01*
X332291Y196859D01*
X332843Y196032D01*
X338288Y190587D01*
X339107Y190040D01*
X342148Y186999D01*
X341957Y186537D01*
X341730D01*
X341459Y186483D01*
X341142Y186363D01*
X340824Y186483D01*
X340553Y186537D01*
X340112D01*
Y183268D01*
X339612D01*
Y186537D01*
X339171D01*
X338900Y186483D01*
X338785Y186440D01*
X338347Y186630D01*
X338323Y186653D01*
Y187303D01*
X338245Y187693D01*
X338024Y188024D01*
X336327Y189722D01*
Y190295D01*
X336071Y190913D01*
X335598Y191386D01*
X334980Y191642D01*
X334311D01*
X333693Y191386D01*
X333221Y190913D01*
X332965Y190295D01*
Y189626D01*
X333221Y189008D01*
X333693Y188535D01*
X334311Y188279D01*
X334885D01*
X336084Y187080D01*
X336049Y186853D01*
X335977Y186775D01*
X335535Y186517D01*
X335435Y186537D01*
X334994D01*
Y183268D01*
X334744D01*
Y183018D01*
X333345D01*
Y182389D01*
X331665Y180710D01*
X331333Y180214D01*
X331217Y179628D01*
Y179482D01*
X331148Y179134D01*
X331264Y178549D01*
X331596Y178052D01*
X332092Y177721D01*
X332677Y177604D01*
X333262Y177721D01*
X333759Y178052D01*
X333828Y178122D01*
X334159Y178618D01*
X334224Y178943D01*
X335279Y179998D01*
X335435D01*
X335706Y180052D01*
X335821Y180096D01*
X336259Y179905D01*
X336251Y179402D01*
X332513Y175663D01*
X325234D01*
X324844Y175586D01*
X324513Y175365D01*
X320145Y170997D01*
X319924Y170666D01*
X319847Y170276D01*
Y169414D01*
X317397D01*
Y163664D01*
X324335D01*
Y169414D01*
X322032D01*
X321946Y169914D01*
X325657Y173624D01*
X332935D01*
X333325Y173702D01*
X333656Y173923D01*
X337414Y177680D01*
X337875Y177434D01*
X337873Y177428D01*
Y177330D01*
X337990Y176744D01*
X338321Y176248D01*
X338817Y175917D01*
X339403Y175800D01*
X339645Y175339D01*
X333113Y168807D01*
X328831D01*
Y164264D01*
X334555D01*
Y167365D01*
X342758Y175568D01*
X343258Y175361D01*
Y165768D01*
X335017Y157527D01*
X334555Y157719D01*
Y158018D01*
X331943D01*
Y155996D01*
X332833D01*
X333024Y155534D01*
X293306Y115817D01*
X256110D01*
Y116268D01*
X241606D01*
Y110787D01*
X216187D01*
X211512Y115462D01*
X211558Y115689D01*
X211427Y116345D01*
X211384Y116410D01*
X211620Y116850D01*
X218322D01*
X219087Y116086D01*
Y111606D01*
X225795D01*
Y113547D01*
X229356D01*
X229662Y113608D01*
X229981Y113476D01*
X230649D01*
X231267Y113732D01*
X231740Y114205D01*
X231996Y114823D01*
Y115492D01*
X231740Y116110D01*
X231267Y116583D01*
X230649Y116839D01*
X229981D01*
X229363Y116583D01*
X228890Y116110D01*
X228673Y115586D01*
X225795D01*
Y117528D01*
X220910D01*
X220860Y117602D01*
X221127Y118102D01*
X225795D01*
Y124024D01*
X219087D01*
Y121709D01*
X215798D01*
Y122103D01*
X215721Y122493D01*
X215500Y122824D01*
X208666Y129658D01*
X208335Y129879D01*
X207945Y129957D01*
X202174D01*
Y130224D01*
X199009D01*
Y127650D01*
X202174D01*
Y127917D01*
X207523D01*
X213269Y122170D01*
X213078Y121709D01*
X211184D01*
X211056Y121901D01*
X210500Y122273D01*
X209844Y122403D01*
X206497D01*
X205841Y122273D01*
X205285Y121901D01*
X204914Y121345D01*
X204783Y120689D01*
X204914Y120033D01*
X205285Y119477D01*
X205445Y119370D01*
X205340Y118839D01*
X205204Y118812D01*
X204873Y118591D01*
X202965Y116683D01*
X202744Y116352D01*
X202666Y115962D01*
Y111709D01*
X189727D01*
X189599Y111901D01*
X189043Y112273D01*
X188387Y112403D01*
X185040D01*
X184385Y112273D01*
X183828Y111901D01*
X183457Y111345D01*
X183326Y110689D01*
X183457Y110033D01*
X183828Y109477D01*
X184385Y109105D01*
X185040Y108975D01*
X188387D01*
X189043Y109105D01*
X189599Y109477D01*
X189727Y109669D01*
X205157D01*
X205285Y109477D01*
X205841Y109105D01*
X206497Y108975D01*
X209844D01*
X210500Y109105D01*
X211056Y109477D01*
X211427Y110033D01*
X211558Y110689D01*
X211427Y111345D01*
X211056Y111901D01*
X210500Y112273D01*
X209844Y112403D01*
X206497D01*
X205841Y112273D01*
X205285Y111901D01*
X205205Y111782D01*
X204706Y111808D01*
Y114445D01*
X205205Y114596D01*
X205285Y114477D01*
X205841Y114105D01*
X206497Y113975D01*
X209844D01*
X210071Y114020D01*
X215044Y109047D01*
X215375Y108826D01*
X215765Y108748D01*
X295105D01*
X295495Y108826D01*
X295826Y109047D01*
X299933Y113154D01*
X303425D01*
Y110511D01*
X309364D01*
Y117835D01*
X303425D01*
Y115193D01*
X300546D01*
X300354Y115655D01*
X347609Y162910D01*
X348162Y163737D01*
X348356Y164713D01*
Y186945D01*
X348162Y187920D01*
X347609Y188747D01*
X342165Y194192D01*
X341346Y194739D01*
X336448Y199637D01*
X335665Y200160D01*
Y200665D01*
X335686Y200696D01*
X335764Y201087D01*
Y203111D01*
X335788Y203133D01*
X336226Y203324D01*
X336341Y203280D01*
X336612Y203227D01*
X337994D01*
X338265Y203280D01*
X338380Y203324D01*
X338818Y203133D01*
X338843Y203111D01*
Y202240D01*
X338920Y201850D01*
X339141Y201519D01*
X348468Y192192D01*
X348799Y191971D01*
X349189Y191894D01*
X361005D01*
X361212Y191394D01*
X351484Y181666D01*
X351263Y181335D01*
X351185Y180945D01*
Y162409D01*
X349638D01*
Y150189D01*
X354772D01*
Y162409D01*
X353224D01*
Y180523D01*
X362992Y190290D01*
X363069Y190246D01*
X363796Y190051D01*
X364550D01*
X365278Y190246D01*
X365931Y190623D01*
X366464Y191156D01*
X366840Y191809D01*
X367035Y192537D01*
Y193290D01*
X366840Y194018D01*
X366464Y194671D01*
X365931Y195204D01*
X365278Y195580D01*
X364550Y195776D01*
X363796D01*
X363069Y195580D01*
X362416Y195204D01*
X361883Y194671D01*
X361506Y194018D01*
X361483Y193933D01*
X349611D01*
X340914Y202630D01*
X340906Y203133D01*
X341344Y203324D01*
X341459Y203280D01*
X341730Y203227D01*
X342171D01*
Y206496D01*
X342671D01*
Y203227D01*
X343112D01*
X343383Y203280D01*
X343613Y203434D01*
X343767Y203664D01*
X343821Y203935D01*
Y205866D01*
X343883Y205960D01*
X344000Y206545D01*
Y213335D01*
X344049Y213583D01*
X343933Y214168D01*
X343601Y214664D01*
X343105Y214996D01*
X342520Y215112D01*
X341934Y214996D01*
X341438Y214664D01*
X341389Y214615D01*
X341057Y214119D01*
X340941Y213533D01*
Y210189D01*
X340553Y209766D01*
X339171D01*
X338900Y209712D01*
X338785Y209668D01*
X338347Y209859D01*
X338323Y209881D01*
Y220268D01*
X351425D01*
Y226268D01*
D02*
G37*
G36*
X247382Y219201D02*
X246713D01*
X246095Y218945D01*
X245622Y218472D01*
X245366Y217854D01*
Y217185D01*
X245622Y216567D01*
X246028Y216162D01*
Y212567D01*
X239953D01*
Y206567D01*
X254457D01*
Y212567D01*
X248067D01*
Y216162D01*
X248472Y216567D01*
X248728Y217185D01*
Y217854D01*
X248472Y218472D01*
X248000Y218945D01*
X247382Y219201D01*
D02*
G37*
G36*
X308472Y207685D02*
X301764D01*
Y204563D01*
X297547D01*
Y205126D01*
X294972D01*
Y203402D01*
X290424Y198854D01*
X288289D01*
Y199508D01*
X288158Y200164D01*
X287787Y200720D01*
X287231Y201091D01*
X286575Y201222D01*
X285919Y201091D01*
X285363Y200720D01*
X284991Y200164D01*
X284861Y199508D01*
Y196161D01*
X284991Y195505D01*
X285363Y194949D01*
X285919Y194578D01*
X286575Y194447D01*
X287231Y194578D01*
X287787Y194949D01*
X288158Y195505D01*
X288289Y196161D01*
Y196815D01*
X290846D01*
X291237Y196893D01*
X291567Y197114D01*
X296414Y201961D01*
X297547D01*
Y202524D01*
X301764D01*
Y201764D01*
X308472D01*
Y207685D01*
D02*
G37*
G36*
X374393Y195776D02*
X374266D01*
Y193163D01*
X376878D01*
Y193290D01*
X376683Y194018D01*
X376306Y194671D01*
X375773Y195204D01*
X375120Y195580D01*
X374393Y195776D01*
D02*
G37*
G36*
X373766D02*
X373639D01*
X372911Y195580D01*
X372258Y195204D01*
X371725Y194671D01*
X371349Y194018D01*
X371153Y193290D01*
Y193163D01*
X373766D01*
Y195776D01*
D02*
G37*
G36*
X376878Y192663D02*
X374266D01*
Y190051D01*
X374393D01*
X375120Y190246D01*
X375773Y190623D01*
X376306Y191156D01*
X376683Y191809D01*
X376878Y192537D01*
Y192663D01*
D02*
G37*
G36*
X373766D02*
X371153D01*
Y192537D01*
X371349Y191809D01*
X371725Y191156D01*
X372258Y190623D01*
X372911Y190246D01*
X373639Y190051D01*
X373766D01*
Y192663D01*
D02*
G37*
G36*
X334494Y186537D02*
X334053D01*
X333782Y186483D01*
X333552Y186330D01*
X333399Y186100D01*
X333345Y185829D01*
Y183518D01*
X334494D01*
Y186537D01*
D02*
G37*
G36*
X294626Y193610D02*
X293957D01*
X293339Y193354D01*
X292866Y192881D01*
X292610Y192263D01*
Y191595D01*
X292866Y190977D01*
X293339Y190504D01*
X293957Y190248D01*
X294162D01*
X294256Y190154D01*
Y188197D01*
X292020D01*
Y182669D01*
X298532D01*
Y188197D01*
X296295D01*
Y190576D01*
X296218Y190966D01*
X295996Y191297D01*
X295892Y191401D01*
X295972Y191595D01*
Y192263D01*
X295717Y192881D01*
X295244Y193354D01*
X294626Y193610D01*
D02*
G37*
G36*
X173228Y189522D02*
X172643Y189405D01*
X172147Y189074D01*
X171815Y188577D01*
X171699Y187992D01*
X171815Y187407D01*
X172147Y186911D01*
X174494Y184563D01*
Y183374D01*
X173161D01*
Y176628D01*
X178886D01*
Y183374D01*
X177553D01*
Y185197D01*
X177437Y185782D01*
X177105Y186278D01*
X174310Y189074D01*
X173814Y189405D01*
X173228Y189522D01*
D02*
G37*
G36*
X288453Y184358D02*
X282728D01*
Y170366D01*
X288453D01*
Y176343D01*
X292020D01*
Y175976D01*
X298532D01*
Y181504D01*
X292020D01*
Y178382D01*
X288453D01*
Y184358D01*
D02*
G37*
G36*
X178886Y176128D02*
X176274D01*
Y169382D01*
X178886D01*
Y176128D01*
D02*
G37*
G36*
X175774D02*
X173161D01*
Y169382D01*
X175774D01*
Y176128D01*
D02*
G37*
G36*
X334555Y160539D02*
X331943D01*
Y158518D01*
X334555D01*
Y160539D01*
D02*
G37*
G36*
X331443D02*
X328831D01*
Y158518D01*
X331443D01*
Y160539D01*
D02*
G37*
G36*
X324335Y161139D02*
X321116D01*
Y158514D01*
X324335D01*
Y161139D01*
D02*
G37*
G36*
X320616D02*
X317397D01*
Y158514D01*
X320616D01*
Y161139D01*
D02*
G37*
G36*
X363189Y168852D02*
X362604Y168736D01*
X362107Y168404D01*
X361910Y168109D01*
X361123Y167322D01*
X360792Y166826D01*
X360675Y166241D01*
Y162409D01*
X359638D01*
Y156549D01*
X364772D01*
Y162409D01*
X363734D01*
Y165607D01*
X364270Y166143D01*
X364602Y166640D01*
X364718Y167225D01*
Y167323D01*
X364602Y167908D01*
X364270Y168404D01*
X363774Y168736D01*
X363189Y168852D01*
D02*
G37*
G36*
X331443Y158018D02*
X328690D01*
X326744Y156072D01*
X326412Y155576D01*
X326296Y154991D01*
Y153892D01*
X326226Y153543D01*
X326343Y152958D01*
X326675Y152462D01*
X327171Y152130D01*
X327756Y152014D01*
X328341Y152130D01*
X328837Y152462D01*
X328907Y152531D01*
X329238Y153027D01*
X329355Y153613D01*
Y154357D01*
X330994Y155996D01*
X331443D01*
Y158018D01*
D02*
G37*
G36*
X324335Y158014D02*
X320866D01*
X317397D01*
Y155389D01*
X319337D01*
Y152559D01*
X319453Y151974D01*
X319785Y151478D01*
X320281Y151146D01*
X320866Y151030D01*
X321451Y151146D01*
X321948Y151478D01*
X322279Y151974D01*
X322395Y152559D01*
Y155389D01*
X324335D01*
Y158014D01*
D02*
G37*
G36*
X364772Y156049D02*
X362455D01*
Y150189D01*
X364772D01*
Y156049D01*
D02*
G37*
G36*
X361955D02*
X359638D01*
Y150189D01*
X361955D01*
Y156049D01*
D02*
G37*
G36*
X188387Y117403D02*
X186964D01*
Y115939D01*
X190051D01*
X189971Y116345D01*
X189599Y116901D01*
X189043Y117272D01*
X188387Y117403D01*
D02*
G37*
G36*
X186464D02*
X185040D01*
X184385Y117272D01*
X183828Y116901D01*
X183457Y116345D01*
X183376Y115939D01*
X186464D01*
Y117403D01*
D02*
G37*
G36*
X190051Y115439D02*
X186964D01*
Y113975D01*
X188387D01*
X189043Y114105D01*
X189599Y114477D01*
X189971Y115033D01*
X190051Y115439D01*
D02*
G37*
G36*
X186464D02*
X183376D01*
X183457Y115033D01*
X183828Y114477D01*
X184385Y114105D01*
X185040Y113975D01*
X186464D01*
Y115439D01*
D02*
G37*
G36*
X318622Y117835D02*
X312684D01*
Y110511D01*
X314633D01*
Y103650D01*
X312256D01*
Y89657D01*
X317980D01*
Y103650D01*
X316673D01*
Y110511D01*
X318622D01*
Y117835D01*
D02*
G37*
G36*
X188492Y93020D02*
X182337D01*
Y88833D01*
X188492D01*
Y93020D01*
D02*
G37*
G36*
Y88333D02*
X182337D01*
Y84146D01*
X188492D01*
Y88333D01*
D02*
G37*
G36*
X181837Y93020D02*
X175681D01*
Y90112D01*
X170276D01*
X169690Y89996D01*
X169194Y89664D01*
X168863Y89168D01*
X168746Y88583D01*
X168863Y87997D01*
X169194Y87501D01*
X169690Y87170D01*
X170276Y87053D01*
X175681D01*
Y84146D01*
X181837D01*
Y88583D01*
Y93020D01*
D02*
G37*
G36*
X328275Y33669D02*
X328006D01*
Y29974D01*
X331701D01*
Y30244D01*
X331432Y31247D01*
X330913Y32147D01*
X330178Y32881D01*
X329279Y33400D01*
X328275Y33669D01*
D02*
G37*
G36*
X327506D02*
X327237D01*
X326233Y33400D01*
X325334Y32881D01*
X324599Y32147D01*
X324080Y31247D01*
X323811Y30244D01*
Y29974D01*
X327506D01*
Y33669D01*
D02*
G37*
G36*
X331701Y29474D02*
X328006D01*
Y25780D01*
X328275D01*
X329279Y26048D01*
X330178Y26568D01*
X330913Y27302D01*
X331432Y28202D01*
X331701Y29205D01*
Y29474D01*
D02*
G37*
G36*
X327506D02*
X323811D01*
Y29205D01*
X324080Y28202D01*
X324599Y27302D01*
X325334Y26568D01*
X326233Y26048D01*
X327237Y25780D01*
X327506D01*
Y29474D01*
D02*
G37*
%LPD*%
G36*
X216500Y219200D02*
Y198376D01*
X207677D01*
X207404Y198263D01*
X207295Y198217D01*
X206833Y198039D01*
X200484Y198039D01*
Y196295D01*
X195123D01*
X190527Y200891D01*
Y201809D01*
X190720Y201938D01*
X191091Y202494D01*
X191222Y203150D01*
Y206496D01*
X191091Y207152D01*
X190720Y207708D01*
X190164Y208080D01*
X189508Y208210D01*
X188852Y208080D01*
X188296Y207708D01*
X187924Y207152D01*
X187794Y206496D01*
Y203150D01*
X187924Y202494D01*
X188296Y201938D01*
X188488Y201809D01*
Y200468D01*
X188566Y200078D01*
X188787Y199748D01*
X193980Y194555D01*
X194311Y194334D01*
X194701Y194256D01*
X200484D01*
Y192512D01*
X206636D01*
X206996Y192512D01*
X207136Y192070D01*
Y191788D01*
X206996Y191347D01*
X200484D01*
Y185819D01*
X202721D01*
Y154567D01*
X202798Y154177D01*
X203019Y153846D01*
X207610Y149255D01*
Y137254D01*
X200997D01*
X196563Y141688D01*
Y165067D01*
X185528D01*
Y179333D01*
X185583Y179611D01*
Y188673D01*
X190756D01*
Y190400D01*
X192250D01*
X192526Y190124D01*
Y183374D01*
X191193D01*
Y169382D01*
X196917D01*
Y183374D01*
X195584D01*
Y190758D01*
X195468Y191343D01*
X195137Y191839D01*
X193965Y193011D01*
X193469Y193342D01*
X192884Y193458D01*
X190756D01*
Y195185D01*
X185565D01*
X185528Y195376D01*
Y201809D01*
X185720Y201938D01*
X186091Y202494D01*
X186222Y203150D01*
Y206496D01*
X186091Y207152D01*
X185720Y207708D01*
X185528Y207837D01*
Y214532D01*
X203875D01*
X204265Y214609D01*
X204596Y214830D01*
X207545Y217780D01*
X208260D01*
Y215839D01*
X214968D01*
Y220079D01*
X215430Y220270D01*
X216500Y219200D01*
D02*
G37*
G36*
X278433Y216418D02*
X278452Y216324D01*
X278673Y215994D01*
X285387Y209279D01*
X285180Y208779D01*
X277800D01*
X277594Y208985D01*
Y216211D01*
X277969Y216537D01*
X278433Y216418D01*
D02*
G37*
G36*
X275034Y221685D02*
X274991Y221620D01*
X274861Y220965D01*
Y217618D01*
X274991Y216962D01*
X275363Y216406D01*
X275555Y216278D01*
Y208563D01*
Y200849D01*
X275363Y200720D01*
X274991Y200164D01*
X274861Y199508D01*
Y196161D01*
X274991Y195505D01*
X275363Y194949D01*
X275555Y194821D01*
Y192232D01*
X270465D01*
Y189996D01*
X268901D01*
X268511Y189918D01*
X268180Y189697D01*
X263837Y185354D01*
X263336Y185561D01*
Y197835D01*
X263312Y197894D01*
X272296Y206877D01*
X272517Y207208D01*
X272594Y207598D01*
Y216278D01*
X272787Y216406D01*
X273158Y216962D01*
X273289Y217618D01*
Y220965D01*
X273244Y221192D01*
X274178Y222126D01*
X274799D01*
X275034Y221685D01*
D02*
G37*
G36*
X270465Y185721D02*
X275555D01*
Y168848D01*
X268413D01*
X268331Y168903D01*
Y170366D01*
X270421D01*
Y177112D01*
X267559D01*
Y177362D01*
X267309D01*
Y184358D01*
X266378D01*
X266186Y184820D01*
X269323Y187957D01*
X270465D01*
Y185721D01*
D02*
G37*
G36*
X262795Y159083D02*
X260017Y156305D01*
X259555Y156496D01*
Y168057D01*
X248031D01*
Y168307D01*
D01*
Y168057D01*
X236508D01*
Y154815D01*
X240235D01*
X240427Y154353D01*
X239617Y153543D01*
X207677D01*
Y154631D01*
X207965Y155012D01*
X208177Y155012D01*
X219238D01*
Y168504D01*
Y181996D01*
X208177D01*
X207965Y181996D01*
X207677Y182377D01*
Y197835D01*
X262795D01*
Y159083D01*
D02*
G37*
G36*
X298228Y123031D02*
X247047D01*
Y153295D01*
X259469D01*
X259859Y153373D01*
X260190Y153594D01*
X264551Y157955D01*
X265051Y157748D01*
Y152809D01*
X276325D01*
Y166051D01*
X266195D01*
X266154Y166186D01*
X266228Y166319D01*
X266543Y166626D01*
X267067D01*
X267685Y166882D01*
X268157Y167355D01*
X268413Y167973D01*
Y168307D01*
X298228D01*
Y123031D01*
D02*
G37*
%LPC*%
G36*
X214968Y215264D02*
X208260D01*
Y212437D01*
X204043D01*
Y213000D01*
X201468D01*
Y209835D01*
X201736D01*
Y209257D01*
X198322Y205842D01*
X196222D01*
Y206496D01*
X196091Y207152D01*
X195720Y207708D01*
X195164Y208080D01*
X194508Y208210D01*
X193852Y208080D01*
X193296Y207708D01*
X192924Y207152D01*
X192794Y206496D01*
Y203150D01*
X192924Y202494D01*
X193296Y201938D01*
X193852Y201566D01*
X194508Y201436D01*
X195164Y201566D01*
X195720Y201938D01*
X196091Y202494D01*
X196222Y203150D01*
Y203803D01*
X198744D01*
X199134Y203881D01*
X199465Y204102D01*
X203477Y208114D01*
X203698Y208444D01*
X203776Y208835D01*
Y209835D01*
X204043D01*
Y210398D01*
X208260D01*
Y209343D01*
X214968D01*
Y215264D01*
D02*
G37*
G36*
X271575Y201222D02*
X270919Y201091D01*
X270363Y200720D01*
X269991Y200164D01*
X269861Y199508D01*
Y197870D01*
X269074D01*
X268669Y198275D01*
X268051Y198531D01*
X267382D01*
X266764Y198275D01*
X266291Y197803D01*
X266035Y197185D01*
Y196516D01*
X266291Y195898D01*
X266764Y195425D01*
X267382Y195169D01*
X268051D01*
X268669Y195425D01*
X269074Y195831D01*
X269927D01*
X269991Y195505D01*
X270363Y194949D01*
X270919Y194578D01*
X271575Y194447D01*
X272231Y194578D01*
X272787Y194949D01*
X273158Y195505D01*
X273289Y196161D01*
Y199508D01*
X273158Y200164D01*
X272787Y200720D01*
X272231Y201091D01*
X271575Y201222D01*
D02*
G37*
G36*
X270421Y184358D02*
X267809D01*
Y177612D01*
X270421D01*
Y184358D01*
D02*
G37*
G36*
X233768Y194496D02*
X226628D01*
Y190742D01*
X233768D01*
Y194496D01*
D02*
G37*
G36*
X226128D02*
X218988D01*
Y190742D01*
X226128D01*
Y194496D01*
D02*
G37*
G36*
X233768Y190242D02*
X226628D01*
Y186488D01*
X233768D01*
Y190242D01*
D02*
G37*
G36*
X226128D02*
X218988D01*
Y186488D01*
X226128D01*
Y190242D01*
D02*
G37*
G36*
X219738Y181996D02*
Y168754D01*
X231012D01*
Y181996D01*
X219738D01*
D02*
G37*
G36*
X259555Y181799D02*
X248282D01*
Y168557D01*
X259555D01*
Y181799D01*
D02*
G37*
G36*
X247781D02*
X236508D01*
Y168557D01*
X247781D01*
Y181799D01*
D02*
G37*
G36*
X231012Y168254D02*
X219738D01*
Y155012D01*
X231012D01*
Y168254D01*
D02*
G37*
G36*
X288098Y166051D02*
X276825D01*
Y152809D01*
X288098D01*
Y166051D01*
D02*
G37*
G36*
X259910Y150500D02*
X257297D01*
Y143754D01*
X259910D01*
Y150500D01*
D02*
G37*
G36*
X256797D02*
X254185D01*
Y143754D01*
X256797D01*
Y150500D01*
D02*
G37*
G36*
X288098Y152309D02*
X276825D01*
Y139067D01*
X288098D01*
Y152309D01*
D02*
G37*
G36*
X276325D02*
X265051D01*
Y139067D01*
X276325D01*
Y152309D01*
D02*
G37*
G36*
X259910Y143254D02*
X257297D01*
Y136508D01*
X259910D01*
Y143254D01*
D02*
G37*
G36*
X256797D02*
X254185D01*
Y136508D01*
X256797D01*
Y143254D01*
D02*
G37*
G36*
X76679Y330262D02*
X74461D01*
Y323909D01*
X76679D01*
Y330262D01*
D02*
G37*
G36*
X91067Y319220D02*
X87848D01*
Y316595D01*
X91067D01*
Y319220D01*
D02*
G37*
G36*
X87348D02*
X84130D01*
Y316595D01*
X87348D01*
Y319220D01*
D02*
G37*
G36*
X91067Y316095D02*
X87848D01*
Y313470D01*
X91067D01*
Y316095D01*
D02*
G37*
G36*
X87348D02*
X84130D01*
Y313470D01*
X87348D01*
Y316095D01*
D02*
G37*
G36*
X69398Y315854D02*
X64461D01*
Y302650D01*
X65313D01*
X65520Y302150D01*
X65504Y302133D01*
X65248Y301516D01*
Y300847D01*
X65504Y300229D01*
X65977Y299756D01*
X66595Y299500D01*
X67264D01*
X67881Y299756D01*
X68354Y300229D01*
X68610Y300847D01*
Y301516D01*
X68354Y302133D01*
X68338Y302150D01*
X68545Y302650D01*
X69398D01*
Y315854D01*
D02*
G37*
G36*
X91067Y294013D02*
X84130D01*
Y288263D01*
X89605D01*
X89915Y287883D01*
X89854Y287736D01*
Y287067D01*
X90110Y286449D01*
X90583Y285976D01*
X91201Y285720D01*
X91870D01*
X92488Y285976D01*
X92961Y286449D01*
X93217Y287067D01*
Y287736D01*
X92961Y288354D01*
X92488Y288827D01*
X91870Y289083D01*
X91690D01*
X91067Y289705D01*
Y294013D01*
D02*
G37*
G36*
X131268Y290104D02*
X125268D01*
Y277354D01*
X126738D01*
Y269681D01*
X126540Y269384D01*
X126423Y268799D01*
Y268701D01*
X126540Y268115D01*
X126871Y267619D01*
X127367Y267288D01*
X127953Y267171D01*
X128538Y267288D01*
X129034Y267619D01*
X129232Y267915D01*
X129349Y268032D01*
X129681Y268529D01*
X129797Y269114D01*
Y277354D01*
X131268D01*
Y290104D01*
D02*
G37*
G36*
X43215Y221346D02*
X30465D01*
Y219964D01*
X26923D01*
X26575Y220033D01*
X25989Y219917D01*
X25493Y219585D01*
X25162Y219089D01*
X25045Y218504D01*
X25162Y217919D01*
X25493Y217423D01*
X25563Y217353D01*
X26059Y217022D01*
X26644Y216905D01*
X30465D01*
Y215347D01*
X43215D01*
Y218347D01*
Y221346D01*
D02*
G37*
G36*
X56465D02*
X43715D01*
Y218597D01*
X56465D01*
Y221346D01*
D02*
G37*
G36*
Y218096D02*
X43715D01*
Y215347D01*
X56465D01*
Y218096D01*
D02*
G37*
G36*
X34965Y195008D02*
X20465D01*
Y189008D01*
X34965D01*
Y190910D01*
X43918D01*
X44323Y190504D01*
X44941Y190248D01*
X45610D01*
X46228Y190504D01*
X46701Y190977D01*
X46957Y191595D01*
Y192263D01*
X46701Y192881D01*
X46228Y193354D01*
X45610Y193610D01*
X44941D01*
X44323Y193354D01*
X43918Y192949D01*
X34965D01*
Y195008D01*
D02*
G37*
G36*
X42657Y188689D02*
X41988D01*
X41371Y188433D01*
X40898Y187960D01*
X40642Y187342D01*
Y186673D01*
X40898Y186056D01*
X41303Y185650D01*
Y185008D01*
X31965D01*
Y179008D01*
X46465D01*
Y185008D01*
X43342D01*
Y185650D01*
X43748Y186056D01*
X44004Y186673D01*
Y187342D01*
X43748Y187960D01*
X43275Y188433D01*
X42657Y188689D01*
D02*
G37*
G36*
X27465Y175008D02*
X20465D01*
Y172258D01*
X27465D01*
Y175008D01*
D02*
G37*
G36*
X34965D02*
X27965D01*
Y172008D01*
Y169008D01*
X34965D01*
Y170645D01*
X42254D01*
X42839Y170762D01*
X43335Y171093D01*
X43404Y171163D01*
X43736Y171659D01*
X43852Y172244D01*
X43736Y172829D01*
X43404Y173326D01*
X42908Y173657D01*
X42323Y173774D01*
X41974Y173704D01*
X34965D01*
Y175008D01*
D02*
G37*
G36*
X27465Y171758D02*
X20465D01*
Y169008D01*
X27465D01*
Y171758D01*
D02*
G37*
G36*
X80244Y188945D02*
X65740D01*
Y182945D01*
X74768D01*
Y171465D01*
X72531D01*
Y165937D01*
X79043D01*
Y171465D01*
X76807D01*
Y182945D01*
X80244D01*
Y188945D01*
D02*
G37*
G36*
X108472Y165480D02*
X93968D01*
Y159480D01*
X108472D01*
Y159853D01*
X114173D01*
X115149Y160047D01*
X115976Y160599D01*
X116528Y161426D01*
X116722Y162402D01*
X116528Y163377D01*
X115976Y164204D01*
X115149Y164757D01*
X114173Y164951D01*
X108472D01*
Y165480D01*
D02*
G37*
G36*
X70663Y155798D02*
Y152711D01*
X72127D01*
Y154134D01*
X71997Y154790D01*
X71625Y155346D01*
X71069Y155717D01*
X70663Y155798D01*
D02*
G37*
G36*
X79043Y164772D02*
X72531D01*
Y159244D01*
X74394D01*
Y155474D01*
X74201Y155346D01*
X73830Y154790D01*
X73699Y154134D01*
Y150787D01*
X73830Y150131D01*
X74201Y149575D01*
X74757Y149204D01*
X75413Y149073D01*
X76069Y149204D01*
X76625Y149575D01*
X76997Y150131D01*
X77127Y150787D01*
Y154134D01*
X76997Y154790D01*
X76625Y155346D01*
X76433Y155474D01*
Y159244D01*
X79043D01*
Y164772D01*
D02*
G37*
G36*
X60413Y155848D02*
X59758Y155717D01*
X59201Y155346D01*
X58830Y154790D01*
X58699Y154134D01*
Y150787D01*
X58830Y150131D01*
X59201Y149575D01*
X59394Y149447D01*
Y146237D01*
X59087Y146110D01*
X58614Y145637D01*
X58358Y145019D01*
Y144351D01*
X58614Y143733D01*
X59087Y143260D01*
X59705Y143004D01*
X60374D01*
X60992Y143260D01*
X61465Y143733D01*
X61721Y144351D01*
Y145019D01*
X61465Y145637D01*
X61433Y145669D01*
Y149447D01*
X61625Y149575D01*
X61997Y150131D01*
X62127Y150787D01*
Y154134D01*
X61997Y154790D01*
X61625Y155346D01*
X61069Y155717D01*
X60413Y155848D01*
D02*
G37*
G36*
X96976Y155480D02*
X82472D01*
Y149480D01*
X87175D01*
Y144220D01*
X85130D01*
Y136213D01*
X99910D01*
Y144220D01*
X92273D01*
Y149480D01*
X96976D01*
Y155480D01*
D02*
G37*
G36*
X33825Y142764D02*
X19325D01*
Y139716D01*
X19120Y139579D01*
X18964Y139424D01*
X18743Y139093D01*
X18665Y138703D01*
Y131279D01*
X18260Y130874D01*
X18004Y130256D01*
Y129587D01*
X18260Y128969D01*
X18733Y128496D01*
X19351Y128240D01*
X20019D01*
X20637Y128496D01*
X21110Y128969D01*
X21366Y129587D01*
Y130256D01*
X21110Y130874D01*
X20705Y131279D01*
Y136764D01*
X33825D01*
Y142764D01*
D02*
G37*
G36*
X33799Y135539D02*
X33130D01*
X32512Y135283D01*
X32039Y134810D01*
X31784Y134193D01*
Y133524D01*
X31891Y133264D01*
X31557Y132764D01*
X30825D01*
Y128957D01*
X30805Y128858D01*
X30825Y128760D01*
Y126764D01*
X45325D01*
Y132764D01*
X35372D01*
X35038Y133264D01*
X35146Y133524D01*
Y134193D01*
X34890Y134810D01*
X34417Y135283D01*
X33799Y135539D01*
D02*
G37*
G36*
X33825Y122764D02*
X26825D01*
Y120014D01*
X33825D01*
Y122764D01*
D02*
G37*
G36*
Y119514D02*
X26825D01*
Y116764D01*
X33825D01*
Y119514D01*
D02*
G37*
G36*
X60413Y134391D02*
X59758Y134261D01*
X59201Y133889D01*
X58830Y133333D01*
X58699Y132677D01*
Y129331D01*
X58830Y128675D01*
X58987Y128440D01*
X52897Y122350D01*
X48811D01*
Y115839D01*
X54339D01*
Y120908D01*
X60874Y127444D01*
X61082Y127756D01*
X61625Y128119D01*
X61997Y128675D01*
X62127Y129331D01*
Y132677D01*
X61997Y133333D01*
X61625Y133889D01*
X61069Y134261D01*
X60413Y134391D01*
D02*
G37*
G36*
X21654Y111766D02*
X21068Y111649D01*
X20572Y111318D01*
X20503Y111248D01*
X20171Y110752D01*
X20055Y110167D01*
Y107587D01*
X18634D01*
Y100840D01*
X24358D01*
Y107587D01*
X23114D01*
Y109888D01*
X23183Y110236D01*
X23066Y110821D01*
X22735Y111318D01*
X22239Y111649D01*
X21654Y111766D01*
D02*
G37*
G36*
X47646Y122350D02*
X42118D01*
Y119443D01*
X37725Y115050D01*
X37173Y114224D01*
X36979Y113248D01*
Y107587D01*
X36665D01*
Y93594D01*
X42390D01*
Y107587D01*
X42077D01*
Y112192D01*
X45723Y115839D01*
X47646D01*
Y122350D01*
D02*
G37*
G36*
X24358Y100340D02*
X21746D01*
Y93594D01*
X24358D01*
Y100340D01*
D02*
G37*
G36*
X21246D02*
X18634D01*
Y93594D01*
X21246D01*
Y100340D01*
D02*
G37*
G36*
X188492Y26091D02*
X182337D01*
Y21904D01*
X188492D01*
Y26091D01*
D02*
G37*
G36*
X181837D02*
X175681D01*
Y21904D01*
X181837D01*
Y26091D01*
D02*
G37*
G36*
X163886D02*
X157730D01*
Y21904D01*
X163886D01*
Y26091D01*
D02*
G37*
G36*
X157230D02*
X151075D01*
Y21904D01*
X157230D01*
Y26091D01*
D02*
G37*
G36*
X188492Y21404D02*
X182087D01*
X175681D01*
Y17217D01*
X179573D01*
Y13780D01*
X179689Y13194D01*
X180021Y12698D01*
X180517Y12367D01*
X181102Y12250D01*
X181688Y12367D01*
X182184Y12698D01*
X182515Y13194D01*
X182632Y13780D01*
Y17217D01*
X188492D01*
Y21404D01*
D02*
G37*
G36*
X163886Y21404D02*
X157480D01*
X151075D01*
Y17217D01*
X154967D01*
Y13780D01*
X155083Y13194D01*
X155415Y12698D01*
X155911Y12367D01*
X156496Y12250D01*
X157081Y12367D01*
X157578Y12698D01*
X157909Y13194D01*
X158026Y13780D01*
Y17217D01*
X163886D01*
Y21404D01*
D02*
G37*
G36*
X22467Y31996D02*
X20840D01*
X19232Y31741D01*
X17683Y31238D01*
X16233Y30499D01*
X14916Y29542D01*
X13765Y28391D01*
X12808Y27074D01*
X12069Y25624D01*
X11566Y24075D01*
X11311Y22467D01*
Y20840D01*
X11566Y19232D01*
X12069Y17683D01*
X12808Y16233D01*
X13765Y14916D01*
X14916Y13765D01*
X16233Y12808D01*
X17683Y12069D01*
X19232Y11566D01*
X20840Y11311D01*
X22467D01*
X24075Y11566D01*
X25624Y12069D01*
X27074Y12808D01*
X28391Y13765D01*
X29542Y14916D01*
X30499Y16233D01*
X31238Y17683D01*
X31741Y19232D01*
X31996Y20840D01*
Y22467D01*
X31741Y24075D01*
X31238Y25624D01*
X30499Y27074D01*
X29542Y28391D01*
X28391Y29542D01*
X27074Y30499D01*
X25624Y31238D01*
X24075Y31741D01*
X22467Y31996D01*
D02*
G37*
G36*
X133858Y171805D02*
X133273Y171689D01*
X132777Y171357D01*
X132445Y170861D01*
X132329Y170276D01*
Y170178D01*
X132445Y169592D01*
X132777Y169096D01*
X132860Y169013D01*
Y164713D01*
X132806Y164632D01*
X132676Y163976D01*
Y162553D01*
X136104D01*
Y163976D01*
X135973Y164632D01*
X135919Y164713D01*
Y169646D01*
X135803Y170231D01*
X135471Y170728D01*
X135137Y171062D01*
X134940Y171357D01*
X134443Y171689D01*
X133858Y171805D01*
D02*
G37*
G36*
X136104Y162053D02*
X134640D01*
Y158966D01*
X135046Y159046D01*
X135602Y159418D01*
X135973Y159974D01*
X136104Y160630D01*
Y162053D01*
D02*
G37*
G36*
X134140D02*
X132676D01*
Y160630D01*
X132806Y159974D01*
X133178Y159418D01*
X133734Y159046D01*
X134140Y158966D01*
Y162053D01*
D02*
G37*
G36*
X81996Y124417D02*
X80959D01*
Y123085D01*
X81996D01*
Y124417D01*
D02*
G37*
G36*
X80459D02*
X79421D01*
Y123085D01*
X80459D01*
Y124417D01*
D02*
G37*
G36*
X81996Y122585D02*
X80959D01*
Y121252D01*
X81996D01*
Y122585D01*
D02*
G37*
G36*
X80459D02*
X79421D01*
Y121252D01*
X80459D01*
Y122585D01*
D02*
G37*
G36*
X99910Y123630D02*
X92770D01*
Y119876D01*
X99910D01*
Y123630D01*
D02*
G37*
G36*
X92270D02*
X85130D01*
Y119876D01*
X92270D01*
Y123630D01*
D02*
G37*
G36*
X99910Y119376D02*
X92770D01*
Y115622D01*
X99910D01*
Y119376D01*
D02*
G37*
G36*
X92270D02*
X85130D01*
Y115622D01*
X92270D01*
Y119376D01*
D02*
G37*
G36*
X107980Y108177D02*
X96707D01*
Y94935D01*
X107980D01*
Y108177D01*
D02*
G37*
G36*
X77469D02*
X66195D01*
Y94935D01*
X77469D01*
Y108177D01*
D02*
G37*
G36*
X96207D02*
X84933D01*
Y94935D01*
X96207D01*
Y108177D01*
D02*
G37*
G36*
X77469Y94435D02*
X66195D01*
Y81193D01*
X77469D01*
Y94435D01*
D02*
G37*
G36*
X244614Y103018D02*
X237612D01*
Y100268D01*
X244614D01*
Y103018D01*
D02*
G37*
G36*
X237112D02*
X230110D01*
Y100268D01*
X237112D01*
Y103018D01*
D02*
G37*
G36*
X188492Y69398D02*
X182337D01*
Y65211D01*
X188492D01*
Y69398D01*
D02*
G37*
G36*
X181837D02*
X175681D01*
Y65211D01*
X181837D01*
Y69398D01*
D02*
G37*
G36*
X232587Y70382D02*
X220722D01*
Y62258D01*
X232587D01*
Y70382D01*
D02*
G37*
G36*
X220222D02*
X208358D01*
Y62258D01*
X220222D01*
Y70382D01*
D02*
G37*
G36*
X188492Y64711D02*
X182337D01*
Y60524D01*
X188492D01*
Y64711D01*
D02*
G37*
G36*
X181837D02*
X175681D01*
Y60524D01*
X181837D01*
Y64711D01*
D02*
G37*
G36*
X232587Y61758D02*
X220722D01*
Y53634D01*
X232587D01*
Y61758D01*
D02*
G37*
G36*
X220222D02*
X208358D01*
Y53634D01*
X220222D01*
Y61758D01*
D02*
G37*
G36*
X188492Y49713D02*
X182337D01*
Y45526D01*
X188492D01*
Y49713D01*
D02*
G37*
G36*
X181837D02*
X175681D01*
Y45526D01*
X181837D01*
Y49713D01*
D02*
G37*
G36*
X163886D02*
X157730D01*
Y45526D01*
X163886D01*
Y49713D01*
D02*
G37*
G36*
X157230D02*
X151075D01*
Y45526D01*
X157230D01*
Y49713D01*
D02*
G37*
G36*
X188492Y45026D02*
X182337D01*
Y40839D01*
X188492D01*
Y45026D01*
D02*
G37*
G36*
X181837D02*
X175681D01*
Y40839D01*
X181837D01*
Y45026D01*
D02*
G37*
G36*
X163886Y45026D02*
X157730D01*
Y40839D01*
X163886D01*
Y45026D01*
D02*
G37*
G36*
X157230D02*
X151075D01*
Y40839D01*
X157230D01*
Y45026D01*
D02*
G37*
G36*
X120656Y108571D02*
X118043D01*
Y101825D01*
X120656D01*
Y108571D01*
D02*
G37*
G36*
X123768D02*
X121156D01*
Y101575D01*
Y94579D01*
X123768D01*
Y100201D01*
X125254D01*
X125839Y100317D01*
X126336Y100649D01*
X126770Y101083D01*
X127066Y101281D01*
X127397Y101777D01*
X127514Y102362D01*
X127397Y102947D01*
X127066Y103444D01*
X126569Y103775D01*
X125984Y103892D01*
X125886D01*
X125301Y103775D01*
X124805Y103444D01*
X124621Y103260D01*
X123768D01*
Y108571D01*
D02*
G37*
G36*
X120656Y101325D02*
X118043D01*
Y94579D01*
X120656D01*
Y101325D01*
D02*
G37*
G36*
X299949Y103650D02*
X297337D01*
Y96904D01*
X299949D01*
Y103650D01*
D02*
G37*
G36*
X296837D02*
X294224D01*
Y96904D01*
X296837D01*
Y103650D01*
D02*
G37*
G36*
X286130Y103256D02*
X274856D01*
Y90014D01*
X286130D01*
Y103256D01*
D02*
G37*
G36*
X274356D02*
X263083D01*
Y90014D01*
X274356D01*
Y103256D01*
D02*
G37*
G36*
X299949Y96403D02*
X297337D01*
Y89657D01*
X299949D01*
Y96403D01*
D02*
G37*
G36*
X296837D02*
X294224D01*
Y89657D01*
X296837D01*
Y96403D01*
D02*
G37*
G36*
X286130Y89514D02*
X274856D01*
Y76272D01*
X286130D01*
Y89514D01*
D02*
G37*
G36*
X274356D02*
X263083D01*
Y76272D01*
X274356D01*
Y89514D01*
D02*
G37*
G36*
X257599Y81017D02*
X250275D01*
Y75078D01*
X252917D01*
Y71768D01*
X252995Y71377D01*
X253216Y71047D01*
X261007Y63255D01*
X261338Y63034D01*
X261728Y62957D01*
X262728D01*
Y57965D01*
X268453D01*
Y71957D01*
X262728D01*
Y64996D01*
X262151D01*
X254957Y72190D01*
Y75078D01*
X257599D01*
Y81017D01*
D02*
G37*
G36*
X232587Y31012D02*
X220722D01*
Y22888D01*
X232587D01*
Y31012D01*
D02*
G37*
G36*
X220222D02*
X208358D01*
Y22888D01*
X220222D01*
Y31012D01*
D02*
G37*
G36*
X232587Y22388D02*
X220722D01*
Y14264D01*
X232587D01*
Y22388D01*
D02*
G37*
G36*
X220222D02*
X208358D01*
Y14264D01*
X220222D01*
Y22388D01*
D02*
G37*
G36*
X373532Y66543D02*
X366392D01*
Y62789D01*
X373532D01*
Y66543D01*
D02*
G37*
G36*
X365892D02*
X358752D01*
Y62789D01*
X365892D01*
Y66543D01*
D02*
G37*
G36*
X342646Y68433D02*
X339896D01*
Y61431D01*
X342646D01*
Y68433D01*
D02*
G37*
G36*
X339396D02*
X336646D01*
Y61431D01*
X339396D01*
Y68433D01*
D02*
G37*
G36*
X373532Y62289D02*
X366392D01*
Y58535D01*
X373532D01*
Y62289D01*
D02*
G37*
G36*
X365892D02*
X358752D01*
Y58535D01*
X365892D01*
Y62289D01*
D02*
G37*
G36*
X342646Y60931D02*
X339896D01*
Y53929D01*
X342646D01*
Y60931D01*
D02*
G37*
G36*
X339396D02*
X336646D01*
Y53929D01*
X339396D01*
Y60931D01*
D02*
G37*
G36*
X376091Y48531D02*
X372691D01*
Y42573D01*
X376091D01*
Y48531D01*
D02*
G37*
G36*
X372191D02*
X368791D01*
Y42573D01*
X372191D01*
Y48531D01*
D02*
G37*
G36*
X376091Y42073D02*
X372691D01*
Y36114D01*
X376091D01*
Y42073D01*
D02*
G37*
G36*
X372191D02*
X368791D01*
Y36114D01*
X372191D01*
Y42073D01*
D02*
G37*
G36*
X372861Y31996D02*
X371233D01*
X369625Y31741D01*
X368077Y31238D01*
X366627Y30499D01*
X365310Y29542D01*
X364158Y28391D01*
X363201Y27074D01*
X362462Y25624D01*
X361959Y24075D01*
X361705Y22467D01*
Y20840D01*
X361959Y19232D01*
X362462Y17683D01*
X363201Y16233D01*
X364158Y14916D01*
X365310Y13765D01*
X366627Y12808D01*
X368077Y12069D01*
X369625Y11566D01*
X371233Y11311D01*
X372861D01*
X374469Y11566D01*
X376017Y12069D01*
X377468Y12808D01*
X378785Y13765D01*
X379936Y14916D01*
X380893Y16233D01*
X381632Y17683D01*
X382135Y19232D01*
X382390Y20840D01*
Y22467D01*
X382135Y24075D01*
X381632Y25624D01*
X380893Y27074D01*
X379936Y28391D01*
X378785Y29542D01*
X377468Y30499D01*
X376017Y31238D01*
X374469Y31741D01*
X372861Y31996D01*
D02*
G37*
G36*
X141445Y90264D02*
X130171D01*
Y77022D01*
X141445D01*
Y90264D01*
D02*
G37*
G36*
X129671D02*
X118398D01*
Y77022D01*
X129671D01*
Y90264D01*
D02*
G37*
G36*
X108335Y76878D02*
X105722D01*
Y70132D01*
X108335D01*
Y76878D01*
D02*
G37*
G36*
X105222D02*
X102610D01*
Y70132D01*
X105222D01*
Y76878D01*
D02*
G37*
G36*
X141445Y76522D02*
X130171D01*
Y63279D01*
X141445D01*
Y76522D01*
D02*
G37*
G36*
X129671D02*
X118398D01*
Y63279D01*
X129671D01*
Y76522D01*
D02*
G37*
G36*
X108335Y69632D02*
X105722D01*
Y62886D01*
X108335D01*
Y69632D01*
D02*
G37*
G36*
X105222D02*
X102610D01*
Y62886D01*
X105222D01*
Y69632D01*
D02*
G37*
G36*
X61543Y33669D02*
X61274D01*
Y29974D01*
X64969D01*
Y30244D01*
X64700Y31247D01*
X64180Y32147D01*
X63446Y32881D01*
X62546Y33400D01*
X61543Y33669D01*
D02*
G37*
G36*
X60774D02*
X60504D01*
X59501Y33400D01*
X58601Y32881D01*
X57867Y32147D01*
X57348Y31247D01*
X57079Y30244D01*
Y29974D01*
X60774D01*
Y33669D01*
D02*
G37*
G36*
X126504D02*
X125465D01*
X124462Y33400D01*
X123562Y32881D01*
X122828Y32147D01*
X122308Y31247D01*
X122039Y30244D01*
Y29205D01*
X122308Y28202D01*
X122828Y27302D01*
X123562Y26568D01*
X124462Y26048D01*
X125465Y25780D01*
X126504D01*
X127507Y26048D01*
X128407Y26568D01*
X129141Y27302D01*
X129660Y28202D01*
X129929Y29205D01*
Y30244D01*
X129660Y31247D01*
X129141Y32147D01*
X128407Y32881D01*
X127507Y33400D01*
X126504Y33669D01*
D02*
G37*
G36*
X116661D02*
X115622D01*
X114619Y33400D01*
X113719Y32881D01*
X112985Y32147D01*
X112466Y31247D01*
X112197Y30244D01*
Y29205D01*
X112466Y28202D01*
X112985Y27302D01*
X113719Y26568D01*
X114619Y26048D01*
X115622Y25780D01*
X116661D01*
X117664Y26048D01*
X118564Y26568D01*
X119298Y27302D01*
X119818Y28202D01*
X120087Y29205D01*
Y30244D01*
X119818Y31247D01*
X119298Y32147D01*
X118564Y32881D01*
X117664Y33400D01*
X116661Y33669D01*
D02*
G37*
G36*
X64969Y29474D02*
X61274D01*
Y25780D01*
X61543D01*
X62546Y26048D01*
X63446Y26568D01*
X64180Y27302D01*
X64700Y28202D01*
X64969Y29205D01*
Y29474D01*
D02*
G37*
G36*
X60774D02*
X57079D01*
Y29205D01*
X57348Y28202D01*
X57867Y27302D01*
X58601Y26568D01*
X59501Y26048D01*
X60504Y25780D01*
X60774D01*
Y29474D01*
D02*
G37*
%LPD*%
D15*
X198451Y275153D02*
Y280621D01*
X163697Y268543D02*
Y277708D01*
X169863Y283874D02*
X195198D01*
X198451Y280621D01*
Y275153D02*
X201704Y271900D01*
X201715D01*
X205115Y268501D01*
X205709D01*
X230315Y268309D02*
Y275648D01*
X225322Y293980D02*
X248150D01*
X205709Y276775D02*
Y290154D01*
X199951Y275775D02*
Y286404D01*
X221736Y290394D02*
X225322Y293980D01*
X187812Y298543D02*
X199951Y286404D01*
X202326Y273400D02*
X209821D01*
X215741Y267480D02*
X229486D01*
X221736Y284227D02*
Y290394D01*
X229486Y267480D02*
X230315Y268309D01*
X221736Y284227D02*
X230315Y275648D01*
X199951Y275775D02*
X202326Y273400D01*
X278895Y335671D02*
X294760Y351535D01*
X263031Y283547D02*
X278895Y299412D01*
X203471Y263980D02*
X236650D01*
X237236Y264566D02*
Y270480D01*
X191929Y275522D02*
Y280807D01*
X175197Y298543D02*
X187812D01*
X205709Y290154D02*
X210852D01*
X218178Y297480D01*
X240986D01*
X249236D01*
X209821Y273400D02*
X215741Y267480D01*
X249236Y297480D02*
X258906Y307150D01*
X163697Y277708D02*
X169863Y283874D01*
X87799Y299213D02*
X92520D01*
X87598Y299413D02*
X87799Y299213D01*
X96457Y288779D02*
Y295276D01*
X92520Y299213D02*
X96457Y295276D01*
Y282480D02*
Y288779D01*
X93504Y279528D02*
X96457Y282480D01*
X82677Y279528D02*
X93504D01*
X82776Y282579D02*
X89468D01*
X82677Y282677D02*
X82776Y282579D01*
X89468D02*
X89567Y282480D01*
X88192Y291138D02*
X91275Y288056D01*
Y287662D02*
X91535Y287402D01*
X91275Y287662D02*
Y288056D01*
X87598Y291138D02*
X88192D01*
X71848Y296569D02*
X76929Y301650D01*
Y309252D01*
X264764Y287402D02*
X276894Y299532D01*
X259547Y287402D02*
X264764D01*
X236389Y283547D02*
X263031D01*
X276894Y299532D02*
Y338670D01*
X278895Y299412D02*
Y335671D01*
X191929Y275522D02*
X203471Y263980D01*
X303211Y315429D02*
X359230D01*
X293205Y325435D02*
X303211Y315429D01*
X294705Y326056D02*
X303832Y316929D01*
X359230Y315429D02*
X366173Y322372D01*
X358609Y316929D02*
X364673Y322993D01*
X303832Y316929D02*
X358609D01*
X295105Y109768D02*
X299511Y114173D01*
X215765Y109768D02*
X295105D01*
X299511Y114173D02*
X306394D01*
X334744Y201087D02*
Y210399D01*
X183759Y342520D02*
X238189D01*
X186336Y350394D02*
X237427D01*
X73819Y252264D02*
Y257514D01*
X276894Y338670D02*
X294760Y356535D01*
X71127Y260206D02*
Y261550D01*
Y260206D02*
X73819Y257514D01*
X70669Y252329D02*
Y254921D01*
Y252329D02*
X78152Y244846D01*
X83350D01*
X131772Y342402D02*
X142732Y353362D01*
X183367D01*
X186336Y350394D01*
X54921Y252329D02*
X65404Y241846D01*
X89340Y340902D02*
X132772D01*
X137358Y345488D01*
X180790D01*
X58071Y252329D02*
Y254921D01*
X236650Y263980D02*
X237236Y264566D01*
X58071Y252329D02*
X67053Y243346D01*
X79736Y246346D02*
X83971D01*
X233236Y274480D02*
Y280395D01*
X105829Y224488D02*
X118937D01*
X54921Y252329D02*
Y254921D01*
X67053Y243346D02*
X82728D01*
X83971Y246346D02*
X105829Y224488D01*
X108268Y300354D02*
Y310780D01*
X91137Y342402D02*
X131772D01*
X65404Y241846D02*
X82107D01*
X180790Y345488D02*
X183759Y342520D01*
X178580Y334646D02*
X243701D01*
X129390Y77303D02*
Y151575D01*
X124390Y148110D02*
Y166657D01*
X337303Y179012D02*
Y187303D01*
X184508Y195154D02*
Y215551D01*
X276575Y167323D02*
Y208563D01*
X202756Y217717D02*
Y232418D01*
X251181Y343307D02*
Y360236D01*
X65413Y126257D02*
Y158356D01*
X244488Y343307D02*
X247244D01*
X239173Y343504D02*
X243701D01*
X238189Y342520D02*
X239173Y343504D01*
X57087Y350961D02*
Y354331D01*
Y350961D02*
X62116Y345932D01*
X84311D01*
X89340Y340902D01*
X175611Y337614D02*
X178580Y334646D01*
X90507Y337614D02*
X175611D01*
X87507Y340614D02*
X90507Y337614D01*
X53457Y340614D02*
X87507D01*
X43307Y350764D02*
X53457Y340614D01*
X43307Y350764D02*
Y354134D01*
X43307Y354134D02*
X43307Y354134D01*
X175197Y278543D02*
X183447D01*
X184033Y277958D01*
Y277129D02*
Y277958D01*
X171947Y265043D02*
X184033Y277129D01*
X156533Y265043D02*
X171947D01*
X143857Y277719D02*
X156533Y265043D01*
X143857Y277719D02*
Y291179D01*
X131182Y303854D02*
X143857Y291179D01*
X111768Y303854D02*
X131182D01*
X108268Y300354D02*
X111768Y303854D01*
X189114Y288543D02*
X189272Y288386D01*
X163697Y288543D02*
X189114D01*
X108268Y290354D02*
Y299921D01*
X79933Y339114D02*
X108268Y310780D01*
X63925Y339114D02*
X79933D01*
X60998Y336187D02*
X63925Y339114D01*
X60998Y302992D02*
Y336187D01*
X58071Y300065D02*
X60998Y302992D01*
X58071Y288386D02*
Y300065D01*
X76772Y309409D02*
Y317913D01*
Y309409D02*
X76929Y309252D01*
X69896Y296569D02*
X71848D01*
X64370Y291043D02*
X69896Y296569D01*
X64370Y288386D02*
Y291043D01*
X43406Y324803D02*
X49213D01*
X43307Y324705D02*
X43406Y324803D01*
X33465Y330193D02*
Y335531D01*
Y330193D02*
X38953Y324705D01*
X43307D01*
X41142Y263779D02*
X49213D01*
X38673Y266248D02*
X41142Y263779D01*
X35721Y266248D02*
X38673D01*
X35433Y266535D02*
X35721Y266248D01*
X41929Y260630D02*
X49213D01*
X38673Y257374D02*
X41929Y260630D01*
X35721Y257374D02*
X38673D01*
X35433Y257087D02*
X35721Y257374D01*
X118231Y270317D02*
X118268Y270354D01*
X118231Y256354D02*
Y270317D01*
Y256354D02*
X118816Y255768D01*
X230560D01*
X249822Y275031D01*
Y276894D01*
X249236Y277480D02*
X249822Y276894D01*
X240986Y277480D02*
X249236D01*
X111854Y270354D02*
X118268D01*
X99327Y282881D02*
X111854Y270354D01*
X79312Y337614D02*
X99327Y317599D01*
Y282881D02*
Y317599D01*
X64546Y337614D02*
X79312D01*
X62884Y335951D02*
X64546Y337614D01*
X62884Y302756D02*
Y335951D01*
X61221Y301093D02*
X62884Y302756D01*
X61221Y288386D02*
Y301093D01*
X69882Y278543D02*
Y278912D01*
X70669Y279699D01*
Y288386D01*
X19685Y138703D02*
X19840Y138858D01*
X19685Y129921D02*
Y138703D01*
X42323Y281496D02*
X42691D01*
X43873Y282677D01*
X49213D01*
X71850Y228346D02*
X71850Y228346D01*
X25433Y228346D02*
X71850D01*
X24606Y229173D02*
Y234252D01*
Y229173D02*
X25433Y228346D01*
X71693Y238347D02*
X71850Y238189D01*
X45433Y238347D02*
X71693D01*
X60811Y264764D02*
X72195D01*
X76968Y259990D01*
Y254921D02*
Y259990D01*
X56102Y301181D02*
Y308425D01*
X56929Y309252D01*
X66929Y301181D02*
Y309252D01*
Y267157D02*
X71922D01*
X77231Y261849D01*
X78432D01*
X79651Y260630D01*
X82677D01*
X337303Y222146D02*
X338425Y223268D01*
X337303Y206496D02*
Y222146D01*
X352205Y180945D02*
X364173Y192913D01*
X352205Y156299D02*
Y180945D01*
X339862Y202240D02*
Y206496D01*
Y202240D02*
X349189Y192913D01*
X364173D01*
X252185Y287480D02*
X252264Y287402D01*
X229486Y287480D02*
X252185D01*
X342421Y176673D02*
Y183268D01*
X332283Y166535D02*
X342421Y176673D01*
X331693Y166535D02*
X332283D01*
X253937Y71768D02*
Y78048D01*
Y71768D02*
X261728Y63976D01*
X264606D01*
X265591Y64961D01*
X315653Y97189D02*
Y114173D01*
X315118Y96653D02*
X315653Y97189D01*
X214193Y120689D02*
X222067D01*
X222441Y121063D01*
X208170Y120689D02*
X214193D01*
X214779Y121275D01*
Y122103D01*
X207945Y128937D02*
X214779Y122103D01*
X200592Y128937D02*
X207945D01*
X209844Y115689D02*
X215765Y109768D01*
X208170Y115689D02*
X209844D01*
X253937Y87307D02*
Y97359D01*
X244528Y106768D02*
X253937Y97359D01*
X228040Y106768D02*
X244528D01*
X226961Y105689D02*
X228040Y106768D01*
X208170Y105689D02*
X226961D01*
X229946Y115157D02*
X230315D01*
X229356Y114567D02*
X229946Y115157D01*
X222441Y114567D02*
X229356D01*
X204272Y110689D02*
X208170D01*
X203686Y111275D02*
X204272Y110689D01*
X203686Y111275D02*
Y115962D01*
X205594Y117870D01*
X218744D01*
X222047Y114567D01*
X186714Y110689D02*
X204272D01*
X62378Y119095D02*
X66142D01*
X52421Y109138D02*
X62378Y119095D01*
X52421Y70527D02*
Y109138D01*
Y70527D02*
X53067Y69882D01*
X56929D01*
X60153Y130743D02*
X60413Y131004D01*
X60153Y128165D02*
Y130743D01*
X51575Y119587D02*
X60153Y128165D01*
X51575Y119095D02*
Y119587D01*
X70413Y129331D02*
Y131004D01*
Y129331D02*
X72835Y126909D01*
Y119095D02*
Y126909D01*
X122221Y116142D02*
X127559D01*
X115058Y108979D02*
X122221Y116142D01*
X115058Y87856D02*
Y108979D01*
X107895Y80693D02*
X115058Y87856D01*
X94118Y80693D02*
X107895D01*
X87441Y74016D02*
X94118Y80693D01*
X87441Y69882D02*
Y74016D01*
X124390Y128563D02*
Y140847D01*
Y128563D02*
X125984Y126969D01*
X351482Y328346D02*
X351850D01*
X349801Y330028D02*
X351482Y328346D01*
X338197Y330028D02*
X349801D01*
X337598Y329429D02*
X338197Y330028D01*
X132677Y126476D02*
Y126969D01*
Y126476D02*
X138937Y120217D01*
Y101575D02*
Y120217D01*
X80421Y129421D02*
X80709Y129134D01*
X80421Y129421D02*
Y129717D01*
X79134Y131004D02*
X80421Y129717D01*
X75413Y131004D02*
X79134D01*
X65945Y159946D02*
Y168307D01*
Y159946D02*
X67594Y158296D01*
Y140496D02*
Y158296D01*
Y140496D02*
X75413Y132677D01*
Y131004D02*
Y132677D01*
X139764Y167533D02*
Y171850D01*
X139390Y167159D02*
X139764Y167533D01*
X139390Y162303D02*
Y167159D01*
X157579Y147441D02*
X158465Y148327D01*
X147638Y147441D02*
X157579D01*
X147638Y144858D02*
Y147441D01*
X143626Y140847D02*
X147638Y144858D01*
X139390Y140847D02*
X143626D01*
X129390Y151575D02*
X148757D01*
X152005Y154823D01*
X158465D01*
X129390Y151575D02*
Y162303D01*
Y77303D02*
X129921Y76772D01*
X147638Y153740D02*
Y170410D01*
X142934Y175114D02*
X147638Y170410D01*
X132846Y175114D02*
X142934D01*
X124390Y166657D02*
X132846Y175114D01*
X95906Y119626D02*
X124390Y148110D01*
X92520Y119626D02*
X95906D01*
X60039Y144685D02*
Y145054D01*
X60413Y145428D01*
Y152461D01*
X139272Y178543D02*
X139764D01*
X133839Y183976D02*
X139272Y178543D01*
X110394Y183976D02*
X133839D01*
X75413Y161634D02*
X75787Y162008D01*
X75413Y152461D02*
Y161634D01*
X357102Y332347D02*
X357362Y332087D01*
X355330Y332347D02*
X357102D01*
X351850Y335827D02*
X355330Y332347D01*
X75787Y168701D02*
Y183945D01*
X73787Y185945D02*
X75787Y183945D01*
X72992Y185945D02*
X73787D01*
X297924Y336535D02*
X300394D01*
X296174Y338285D02*
X297924Y336535D01*
X295291Y338285D02*
X296174D01*
X294705Y337700D02*
X295291Y338285D01*
X294705Y326056D02*
Y337700D01*
X364673Y322993D02*
Y328582D01*
X360048Y333207D02*
X364673Y328582D01*
X358629Y333207D02*
X360048D01*
X357509Y332087D02*
X358629Y333207D01*
X357362Y332087D02*
X357509D01*
X297924Y341535D02*
X300394D01*
X296174Y339785D02*
X297924Y341535D01*
X294670Y339785D02*
X296174D01*
X293205Y338321D02*
X294670Y339785D01*
X293205Y325435D02*
Y338321D01*
X366173Y322372D02*
Y329203D01*
X360669Y334707D02*
X366173Y329203D01*
X358629Y334707D02*
X360669D01*
X357509Y335827D02*
X358629Y334707D01*
X357362Y335827D02*
X357509D01*
X82107Y241846D02*
X84488Y239465D01*
Y195945D02*
Y239465D01*
X89961Y348425D02*
X90551Y349016D01*
X76870Y348425D02*
X89961D01*
X73130Y352165D02*
X76870Y348425D01*
X72835Y352165D02*
X73130D01*
X82728Y243346D02*
X98183Y227892D01*
Y209431D02*
Y227892D01*
Y209431D02*
X113638Y193976D01*
X121890D01*
X334646Y189961D02*
X337303Y187303D01*
X332935Y174644D02*
X337303Y179012D01*
X325234Y174644D02*
X332935D01*
X320866Y170276D02*
X325234Y174644D01*
X320866Y166539D02*
Y170276D01*
X334646Y197835D02*
Y200988D01*
X334744Y201087D01*
X333661Y211482D02*
Y211614D01*
Y211482D02*
X334744Y210399D01*
X95276Y266732D02*
X95472Y266929D01*
X88681Y266732D02*
X95276D01*
X85335Y270079D02*
X88681Y266732D01*
X82677Y270079D02*
X85335D01*
X132677Y97562D02*
Y116142D01*
Y97562D02*
X136161Y94079D01*
X141713D01*
X142299Y94665D01*
Y123780D01*
X134390Y131690D02*
X142299Y123780D01*
X134390Y131690D02*
Y140847D01*
X90551Y342988D02*
Y349016D01*
Y342988D02*
X91137Y342402D01*
X237427Y350394D02*
X238411Y351378D01*
X189508Y200468D02*
Y204823D01*
Y200468D02*
X194701Y195276D01*
X203740D01*
X193583Y239252D02*
X194882Y240551D01*
X162244Y239252D02*
X193583D01*
X210728Y211417D02*
X211614Y212303D01*
X202756Y211417D02*
X210728D01*
X202756Y208835D02*
Y211417D01*
X198744Y204823D02*
X202756Y208835D01*
X194508Y204823D02*
X198744D01*
X203740Y154567D02*
Y188583D01*
Y154567D02*
X210472Y147835D01*
Y143701D02*
Y147835D01*
X293898Y177362D02*
X295276Y178740D01*
X285591Y177362D02*
X293898D01*
X294291Y191560D02*
Y191929D01*
Y191560D02*
X295276Y190576D01*
Y185433D02*
Y190576D01*
X267717Y196850D02*
X270946D01*
X271575Y197480D01*
Y197835D01*
X281575Y190630D02*
Y197835D01*
X279921Y188976D02*
X281575Y190630D01*
X303937Y203543D02*
X305118Y204724D01*
X296260Y203543D02*
X303937D01*
X295972Y203256D02*
X296260Y203543D01*
X295972Y202961D02*
Y203256D01*
X290846Y197835D02*
X295972Y202961D01*
X286575Y197835D02*
X290846D01*
X268901Y188976D02*
X273228D01*
X264185Y184261D02*
X268901Y188976D01*
X264185Y159031D02*
Y184261D01*
X259469Y154315D02*
X264185Y159031D01*
X241831Y154315D02*
X259469D01*
X239016Y151500D02*
X241831Y154315D01*
X239016Y143504D02*
Y151500D01*
X184508Y215551D02*
X203875D01*
X207123Y218799D01*
X211614D01*
X184508Y215551D02*
Y226279D01*
Y195154D02*
X184563Y195099D01*
Y179611D02*
Y195099D01*
X184508Y179555D02*
X184563Y179611D01*
X184508Y152106D02*
Y179555D01*
Y152106D02*
X185039Y151575D01*
X238411Y351378D02*
X243701D01*
X330709Y341535D02*
X330969Y341796D01*
Y343174D01*
X332784Y344988D01*
X333571D01*
X333858Y345276D01*
X333571Y350681D02*
X333858Y350394D01*
X332784Y350681D02*
X333571D01*
X331929Y351535D02*
X332784Y350681D01*
X322835Y351535D02*
X331929D01*
X83350Y244846D02*
X107208Y220988D01*
X138232D01*
X146496Y229252D01*
X150748D01*
X73819Y252264D02*
X79736Y246346D01*
X70866Y261811D02*
X71127Y261550D01*
X66929Y319882D02*
Y330512D01*
X276575Y208563D02*
X277378Y207760D01*
X297462D01*
X299113Y209411D01*
Y209569D01*
X300764Y211221D01*
X305118D01*
X276575Y208563D02*
Y219291D01*
X286575D02*
Y223268D01*
X280512Y229331D02*
X286575Y223268D01*
X269094Y229331D02*
X280512D01*
X286266Y209842D02*
X296260D01*
X279394Y216715D02*
X286266Y209842D01*
X279394Y216715D02*
Y221230D01*
X277478Y223146D02*
X279394Y221230D01*
X273756Y223146D02*
X277478D01*
X271575Y220965D02*
X273756Y223146D01*
X260827Y196850D02*
X271575Y207598D01*
Y220965D01*
X217520Y194882D02*
Y219623D01*
X214883Y222260D02*
X217520Y219623D01*
X208346Y222260D02*
X214883D01*
X204385Y218299D02*
X208346Y222260D01*
X203043Y218299D02*
X204385D01*
X202756Y218012D02*
X203043Y218299D01*
X198052Y237122D02*
X202756Y232418D01*
X185996Y237122D02*
X198052D01*
X179508Y230634D02*
X185996Y237122D01*
X179508Y226279D02*
Y230634D01*
X294760Y351535D02*
X300394D01*
X233236Y280395D02*
X236389Y283547D01*
X233236Y274480D02*
X237236Y270480D01*
X341209Y348122D02*
X341496Y347835D01*
X339205Y348122D02*
X341209D01*
X336933Y350394D02*
X339205Y348122D01*
X333858Y350394D02*
X336933D01*
X330238Y347835D02*
X333858D01*
X328939Y346535D02*
X330238Y347835D01*
X322835Y346535D02*
X328939D01*
X294760Y356535D02*
X300394D01*
X258906Y307150D02*
Y358946D01*
X243835Y374016D02*
X258906Y358946D01*
X230807Y374016D02*
X243835D01*
X341209Y345563D02*
X341496Y345276D01*
X338421Y345563D02*
X341209D01*
X336437Y347547D02*
X338421Y345563D01*
X334146Y347547D02*
X336437D01*
X333858Y347835D02*
X334146Y347547D01*
X239665Y360236D02*
X244094D01*
X237697Y358268D02*
X239665Y360236D01*
X230807Y358268D02*
X237697D01*
X57021Y272572D02*
X66995D01*
X73819Y279396D01*
Y288386D01*
X43307Y360236D02*
Y368110D01*
X42323Y184008D02*
Y187008D01*
X40323Y182008D02*
X42323Y184008D01*
X39215Y182008D02*
X40323D01*
X194882Y230095D02*
Y233858D01*
X194769Y229981D02*
X194882Y230095D01*
X194769Y226540D02*
Y229981D01*
X194508Y226279D02*
X194769Y226540D01*
X62992Y277559D02*
X67520Y282087D01*
Y288386D01*
X33465Y130498D02*
Y133858D01*
X31825Y128858D02*
X33465Y130498D01*
X57087Y263779D02*
X57347Y263519D01*
Y261452D02*
Y263519D01*
Y261452D02*
X61221Y257579D01*
Y254921D02*
Y257579D01*
X24708Y191929D02*
X45276D01*
X24629Y192008D02*
X24708Y191929D01*
X174315Y106039D02*
X174842D01*
X175191Y105689D01*
X186714D01*
X169472Y110055D02*
X173591Y105936D01*
X169472Y110055D02*
Y125316D01*
X170224Y126067D01*
X176399D01*
X179269Y128937D01*
X194292D01*
X57087Y359350D02*
Y368799D01*
X180040Y120689D02*
X186714D01*
X179855Y120874D02*
X180040Y120689D01*
X174992Y120874D02*
X179855D01*
X173228Y122638D02*
X174992Y120874D01*
X247047Y217362D02*
X247205Y217520D01*
X247047Y209724D02*
Y217362D01*
Y209724D02*
X247205Y209567D01*
X67913Y248031D02*
Y248400D01*
X67520Y248794D02*
X67913Y248400D01*
X67520Y248794D02*
Y254921D01*
X157480Y358268D02*
X170768D01*
X170768Y366142D02*
X170768Y366142D01*
X156890Y366142D02*
X170768D01*
X61409Y162360D02*
X65413Y158356D01*
X61409Y162360D02*
Y166347D01*
X59449Y168307D02*
X61409Y166347D01*
X65413Y126257D02*
X69406Y122265D01*
Y115924D02*
Y122265D01*
X65489Y112008D02*
X69406Y115924D01*
X57838Y112008D02*
X65489D01*
X53921Y108091D02*
X57838Y112008D01*
X53921Y81279D02*
Y108091D01*
Y81279D02*
X56622Y78578D01*
X70398D01*
X74961Y74016D01*
Y69882D02*
Y74016D01*
X374016Y289823D02*
Y300197D01*
X367709Y337295D02*
X370276Y339862D01*
X359634Y337295D02*
X367709D01*
X357362Y339567D02*
X359634Y337295D01*
X321330Y361535D02*
X322835D01*
X320409Y362456D02*
X321330Y361535D01*
X320409Y362456D02*
Y364531D01*
X315158Y369783D02*
X320409Y364531D01*
X230807Y381890D02*
X238083D01*
X260405Y359567D01*
Y306235D02*
Y359567D01*
X248150Y293980D02*
X260405Y306235D01*
X341496Y350394D02*
X348425D01*
X341496Y350394D02*
X341496Y350394D01*
X170768Y381890D02*
X170768Y381890D01*
X164764Y381890D02*
X170768D01*
X160827Y377953D02*
X164764Y381890D01*
X156890Y377953D02*
X160827D01*
X131890Y370079D02*
X143421Y381610D01*
X153527D01*
X156890Y378248D01*
Y377953D02*
Y378248D01*
X131890Y370079D02*
X132655Y369313D01*
X134761D01*
X145807Y358268D01*
X145866D01*
X127423Y370079D02*
X131890D01*
X127119Y370382D02*
X127423Y370079D01*
X124500Y370382D02*
X127119D01*
X122047Y372835D02*
X124500Y370382D01*
X122047Y372835D02*
Y374410D01*
X117004D02*
X122047D01*
X106299Y363705D02*
X117004Y374410D01*
X106299Y359646D02*
Y363705D01*
X79724Y237205D02*
Y238189D01*
D22*
X87598Y308071D02*
D03*
Y316345D02*
D03*
Y291138D02*
D03*
Y299413D02*
D03*
X320866Y166539D02*
D03*
Y158264D02*
D03*
X205709Y298429D02*
D03*
Y268501D02*
D03*
Y276775D02*
D03*
Y290154D02*
D03*
D23*
X96457Y288779D02*
D03*
Y301772D02*
D03*
D24*
X82677Y279528D02*
D03*
X49213Y282677D02*
D03*
Y279528D02*
D03*
Y276378D02*
D03*
Y273228D02*
D03*
Y270079D02*
D03*
Y266929D02*
D03*
Y263779D02*
D03*
Y260630D02*
D03*
X82677D02*
D03*
Y263779D02*
D03*
Y266929D02*
D03*
Y270079D02*
D03*
Y273228D02*
D03*
Y276378D02*
D03*
Y282677D02*
D03*
D25*
X339646Y61181D02*
D03*
X329646Y72677D02*
D03*
X278622Y246220D02*
D03*
X268622Y257716D02*
D03*
D26*
X372441Y42323D02*
D03*
X355906D02*
D03*
D27*
X319882Y280315D02*
D03*
Y286614D02*
D03*
X310039Y280315D02*
D03*
Y286614D02*
D03*
X147638Y320472D02*
D03*
X157874D02*
D03*
X106299Y353346D02*
D03*
X72835Y358465D02*
D03*
Y352165D02*
D03*
X106299Y359646D02*
D03*
X157874Y326772D02*
D03*
X147638D02*
D03*
D28*
X43307Y375295D02*
D03*
Y368799D02*
D03*
X57087Y375295D02*
D03*
Y368799D02*
D03*
D29*
X39528Y100591D02*
D03*
X21496D02*
D03*
X257047Y143504D02*
D03*
X239016D02*
D03*
X228504Y143701D02*
D03*
X210472D02*
D03*
X176024Y176378D02*
D03*
X194055D02*
D03*
X283622Y64961D02*
D03*
X265591D02*
D03*
X297087Y96653D02*
D03*
X315118D02*
D03*
X267559Y177362D02*
D03*
X120905Y101575D02*
D03*
X285591Y177362D02*
D03*
X138937Y101575D02*
D03*
X74961Y69882D02*
D03*
X56929D02*
D03*
X105472D02*
D03*
X87441D02*
D03*
D30*
X30512Y75787D02*
D03*
X248031Y168307D02*
D03*
X219488Y168504D02*
D03*
X185039Y151575D02*
D03*
X274606Y89764D02*
D03*
X306102Y71850D02*
D03*
X276575Y152559D02*
D03*
X129921Y76772D02*
D03*
X65945Y94685D02*
D03*
X96457D02*
D03*
D31*
X44882Y119095D02*
D03*
X51575D02*
D03*
X125984Y126969D02*
D03*
X132677D02*
D03*
Y116142D02*
D03*
X125984D02*
D03*
X181299Y191929D02*
D03*
X187992D02*
D03*
X279921Y188976D02*
D03*
X273228D02*
D03*
X72835Y119095D02*
D03*
X66142D02*
D03*
X262402Y229331D02*
D03*
X269094D02*
D03*
D32*
X145866Y358268D02*
D03*
D33*
X155905D02*
D03*
D34*
X170768Y326772D02*
D03*
X170768Y334646D02*
D03*
Y342520D02*
D03*
Y350394D02*
D03*
Y358268D02*
D03*
Y366142D02*
D03*
Y374016D02*
D03*
Y381890D02*
D03*
X230807D02*
D03*
Y374016D02*
D03*
Y366142D02*
D03*
Y358268D02*
D03*
Y350394D02*
D03*
Y342520D02*
D03*
Y334646D02*
D03*
Y326772D02*
D03*
D35*
X92520Y140217D02*
D03*
Y119626D02*
D03*
X226378Y211083D02*
D03*
Y190492D02*
D03*
X307087Y25138D02*
D03*
Y45728D02*
D03*
X366142Y62539D02*
D03*
Y83130D02*
D03*
X374016Y289823D02*
D03*
Y269232D02*
D03*
D36*
X80709Y129134D02*
D03*
Y122835D02*
D03*
X147638Y147441D02*
D03*
Y153740D02*
D03*
X296260Y203543D02*
D03*
Y209842D02*
D03*
X202756Y211417D02*
D03*
Y217717D02*
D03*
D37*
X314961Y266043D02*
D03*
Y255610D02*
D03*
D38*
X240986Y297480D02*
D03*
X229486Y287480D02*
D03*
X240986Y277480D02*
D03*
X229486Y267480D02*
D03*
X27715Y172008D02*
D03*
X26575Y119764D02*
D03*
X163697Y268543D02*
D03*
X175197Y278543D02*
D03*
X163697Y288543D02*
D03*
X175197Y298543D02*
D03*
X38075Y129764D02*
D03*
X26575Y139764D02*
D03*
X38075Y149764D02*
D03*
X39215Y182008D02*
D03*
X27715Y192008D02*
D03*
X39215Y202008D02*
D03*
D39*
X139390Y162303D02*
D03*
X134390D02*
D03*
X129390D02*
D03*
X124390D02*
D03*
X139390Y140847D02*
D03*
X134390D02*
D03*
X129390D02*
D03*
X124390D02*
D03*
X286575Y219291D02*
D03*
X281575D02*
D03*
X276575D02*
D03*
X271575D02*
D03*
X286575Y197835D02*
D03*
X281575D02*
D03*
X276575D02*
D03*
X271575D02*
D03*
X179508Y226279D02*
D03*
X60413Y152461D02*
D03*
X194508Y226279D02*
D03*
X189508D02*
D03*
X184508D02*
D03*
X194508Y204823D02*
D03*
X189508D02*
D03*
X184508D02*
D03*
X179508D02*
D03*
X75413Y152461D02*
D03*
X70413D02*
D03*
X65413D02*
D03*
X75413Y131004D02*
D03*
X70413D02*
D03*
X65413D02*
D03*
X60413D02*
D03*
D40*
X139764Y178543D02*
D03*
Y171850D02*
D03*
X295276Y185433D02*
D03*
Y178740D02*
D03*
X173228Y129331D02*
D03*
Y122638D02*
D03*
X194882Y240551D02*
D03*
Y233858D02*
D03*
X203740Y195276D02*
D03*
Y188583D02*
D03*
X75787Y168701D02*
D03*
Y162008D02*
D03*
D41*
X158465Y154823D02*
D03*
Y148327D02*
D03*
X305118Y211221D02*
D03*
Y204724D02*
D03*
X211614Y218799D02*
D03*
Y212303D02*
D03*
X222441Y114567D02*
D03*
Y121063D02*
D03*
D42*
X248858Y113268D02*
D03*
X237362Y103268D02*
D03*
X258701Y219567D02*
D03*
X247205Y209567D02*
D03*
X237047Y234331D02*
D03*
X225551Y224331D02*
D03*
X150748Y229252D02*
D03*
X162244Y239252D02*
D03*
X107441Y214488D02*
D03*
X118937Y224488D02*
D03*
X101221Y162480D02*
D03*
X84488Y195945D02*
D03*
X72992Y185945D02*
D03*
X110394Y183976D02*
D03*
X121890Y193976D02*
D03*
X89724Y152480D02*
D03*
D43*
X253937Y87307D02*
D03*
Y78048D02*
D03*
D44*
X259547Y287402D02*
D03*
X252264D02*
D03*
D45*
X191929Y280807D02*
D03*
Y288090D02*
D03*
X337598Y329429D02*
D03*
Y322146D02*
D03*
X371063Y339862D02*
D03*
Y347146D02*
D03*
D46*
X308858Y377953D02*
D03*
X315158D02*
D03*
X308858Y370079D02*
D03*
X315158D02*
D03*
D47*
X322835Y326535D02*
D03*
Y331535D02*
D03*
Y336535D02*
D03*
Y341535D02*
D03*
Y346535D02*
D03*
Y351535D02*
D03*
Y356535D02*
D03*
Y361535D02*
D03*
X300394Y326535D02*
D03*
Y331535D02*
D03*
Y336535D02*
D03*
Y341535D02*
D03*
Y346535D02*
D03*
Y351535D02*
D03*
Y356535D02*
D03*
D48*
Y361535D02*
D03*
D49*
X372205Y156299D02*
D03*
X362205D02*
D03*
X352205D02*
D03*
D50*
X362205Y116142D02*
D03*
D51*
X95472Y274409D02*
D03*
Y266929D02*
D03*
X36417Y287992D02*
D03*
Y280512D02*
D03*
D52*
X108268Y290354D02*
D03*
X128268D02*
D03*
X118268Y270354D02*
D03*
D53*
X54921Y254921D02*
D03*
X58071D02*
D03*
X61221D02*
D03*
X64370D02*
D03*
X67520D02*
D03*
X70669D02*
D03*
X73819D02*
D03*
X76968D02*
D03*
Y288386D02*
D03*
X73819D02*
D03*
X70669D02*
D03*
X67520D02*
D03*
X64370D02*
D03*
X61221D02*
D03*
X58071D02*
D03*
X54921D02*
D03*
D54*
X25591Y281496D02*
D03*
Y287402D02*
D03*
D55*
X15748Y304232D02*
D03*
Y335531D02*
D03*
X33465Y304232D02*
D03*
Y335531D02*
D03*
D56*
X43465Y218347D02*
D03*
X338425Y223268D02*
D03*
Y243268D02*
D03*
X358425Y233268D02*
D03*
X23465Y228346D02*
D03*
X43465Y238347D02*
D03*
D57*
X331693Y289567D02*
D03*
Y271457D02*
D03*
Y280512D02*
D03*
D58*
X122047Y348031D02*
D03*
X90551Y375394D02*
D03*
Y349016D02*
D03*
X122047Y374410D02*
D03*
D59*
X251181Y334646D02*
D03*
X150197Y366142D02*
D03*
X156890D02*
D03*
X150197Y377953D02*
D03*
X156890D02*
D03*
X251181Y351575D02*
D03*
X244488D02*
D03*
X251181Y360236D02*
D03*
X244488D02*
D03*
X251181Y343307D02*
D03*
X244488D02*
D03*
Y334646D02*
D03*
D60*
X66929Y330512D02*
D03*
X76929D02*
D03*
X56929Y309252D02*
D03*
Y330512D02*
D03*
X66929Y309252D02*
D03*
X76929D02*
D03*
D61*
X35433Y261811D02*
D03*
Y266535D02*
D03*
Y257087D02*
D03*
D62*
X208170Y105689D02*
D03*
Y110689D02*
D03*
Y115689D02*
D03*
Y120689D02*
D03*
X186714Y105689D02*
D03*
Y110689D02*
D03*
Y115689D02*
D03*
Y120689D02*
D03*
D63*
X342421Y206496D02*
D03*
X339862D02*
D03*
X337303D02*
D03*
X334744D02*
D03*
X342421Y183268D02*
D03*
X339862D02*
D03*
X337303D02*
D03*
X334744D02*
D03*
D64*
X306394Y114173D02*
D03*
X315653D02*
D03*
D65*
X331693Y158268D02*
D03*
Y166535D02*
D03*
D66*
X220472Y22638D02*
D03*
Y62008D02*
D03*
D67*
X200592Y128937D02*
D03*
X194292D02*
D03*
D68*
X182087Y21654D02*
D03*
Y45276D02*
D03*
X157480Y21654D02*
D03*
Y45276D02*
D03*
X182087Y88583D02*
D03*
Y64961D02*
D03*
D69*
X59449Y168307D02*
D03*
X65945D02*
D03*
D70*
X341496Y345276D02*
D03*
Y347835D02*
D03*
Y350394D02*
D03*
X333858Y345276D02*
D03*
Y347835D02*
D03*
Y350394D02*
D03*
D71*
X43307Y360236D02*
D03*
Y354134D02*
D03*
X57087Y360433D02*
D03*
Y354331D02*
D03*
D72*
X43307Y317028D02*
D03*
Y324705D02*
D03*
D73*
X73819Y238189D02*
D03*
X79724D02*
D03*
D74*
X71850Y228346D02*
D03*
X79921D02*
D03*
D75*
X359252Y280512D02*
D03*
D123*
X347598Y42323D02*
G03*
X337598Y32323I0J-10000D01*
G01*
X87598Y299413D02*
Y308071D01*
X347598Y42323D02*
X355906D01*
X337598Y29724D02*
Y32323D01*
X329646Y44311D02*
Y72677D01*
X339035Y97347D02*
Y131351D01*
Y97347D02*
X353252Y83130D01*
X366142D01*
X339035Y131351D02*
X349705Y142020D01*
X310472Y25138D02*
X329646Y44311D01*
X307087Y25138D02*
X310472D01*
X289566Y283465D02*
X292716Y280315D01*
X289370Y283465D02*
X289566D01*
X292716Y280315D02*
X310039D01*
X289370Y283465D02*
X312583Y306677D01*
X352287Y359705D02*
X370610D01*
X377697Y352618D01*
Y329653D02*
Y352618D01*
X354721Y306677D02*
X377697Y329653D01*
X334039Y377953D02*
X352287Y359705D01*
X312583Y306677D02*
X354721D01*
X38575Y150264D02*
X42980D01*
X38075Y149764D02*
X38575Y150264D01*
X42980D02*
X52165Y159449D01*
Y199803D01*
X248858Y113268D02*
X294362D01*
X345807Y164713D01*
X315158Y377953D02*
X334039D01*
X285693Y266043D02*
X324768D01*
X135827Y326772D02*
X170768D01*
X307087Y45728D02*
Y70866D01*
X324768Y266043D02*
X330150Y271425D01*
X287323Y233268D02*
X358425D01*
X279122Y241469D02*
X287323Y233268D01*
X279122Y241469D02*
Y245721D01*
X278622Y246220D02*
X279122Y245721D01*
X278622Y258972D02*
X285693Y266043D01*
X278622Y246220D02*
Y258972D01*
X44618Y118831D02*
X44882Y119095D01*
X44618Y118339D02*
Y118831D01*
X39528Y113248D02*
X44618Y118339D01*
X39528Y100591D02*
Y113248D01*
X89724Y141720D02*
Y152480D01*
Y141720D02*
X91228Y140217D01*
X92520D01*
X334646Y197835D02*
X340090Y192390D01*
X340362D01*
X345807Y186945D01*
Y164713D02*
Y186945D01*
X79921Y228346D02*
Y237008D01*
X79724Y237205D02*
X79921Y237008D01*
X79461Y227886D02*
X79921Y228346D01*
X79461Y226909D02*
Y227886D01*
X54559Y202008D02*
X79461Y226909D01*
X40354Y202008D02*
X54559D01*
X225551Y211910D02*
Y224331D01*
Y211910D02*
X226378Y211083D01*
X228142Y143339D02*
X228504Y143701D01*
X228142Y139205D02*
Y143339D01*
X223642Y134705D02*
X228142Y139205D01*
X199941Y134705D02*
X223642D01*
X185039Y149606D02*
X199941Y134705D01*
X185039Y149606D02*
Y151575D01*
X170276Y147638D02*
X181102D01*
X185039Y151575D01*
X262402Y220067D02*
Y229331D01*
X261902Y219567D02*
X262402Y220067D01*
X258701Y219567D02*
X261902D01*
X306102Y71850D02*
X307087Y70866D01*
X296260Y47244D02*
X296272Y47232D01*
X305583D01*
X307087Y45728D01*
X74961Y57386D02*
Y69882D01*
X72618Y55043D02*
X74961Y57386D01*
X49288Y55043D02*
X72618D01*
X30512Y73819D02*
X49288Y55043D01*
X30512Y73819D02*
Y75787D01*
Y53150D02*
Y75787D01*
Y53150D02*
X51181Y32480D01*
X222441Y234252D02*
X236968D01*
X237047Y234331D01*
X101299Y162402D02*
X114173D01*
X101221Y162480D02*
X101299Y162402D01*
X372138Y156232D02*
X372205Y156299D01*
X372138Y152689D02*
Y156232D01*
X361469Y142020D02*
X372138Y152689D01*
X349705Y142020D02*
X361469D01*
X374016Y264228D02*
Y269232D01*
X353055Y243268D02*
X374016Y264228D01*
X343347Y243268D02*
X353055D01*
X142717Y375984D02*
X144028Y377295D01*
X149835D01*
X150197Y377658D01*
Y377953D01*
X142717Y373917D02*
Y375984D01*
Y373917D02*
X149835Y366799D01*
Y366504D02*
Y366799D01*
Y366504D02*
X150197Y366142D01*
X251181Y343307D02*
X255906Y338583D01*
D124*
X96457Y301772D02*
Y309055D01*
X315158Y369783D02*
Y377658D01*
X374016Y347146D02*
Y351093D01*
X315158Y358661D02*
Y369783D01*
X337598Y319110D02*
Y322146D01*
X310039Y288779D02*
Y294291D01*
X319882Y288779D02*
Y294291D01*
X331693Y289567D02*
Y295276D01*
X172736Y129331D02*
X173228D01*
X162819Y139248D02*
X172736Y129331D01*
X162819Y139248D02*
Y164420D01*
X129263Y197976D02*
X162819Y164420D01*
X128205Y197976D02*
X129263D01*
X111693Y214488D02*
X128205Y197976D01*
X107441Y214488D02*
X111693D01*
X194055Y176378D02*
Y190758D01*
X192884Y191929D02*
X194055Y190758D01*
X187992Y191929D02*
X192884D01*
X268622Y253465D02*
Y257716D01*
X264294Y249136D02*
X268622Y253465D01*
X105435Y249136D02*
X264294D01*
X90792Y263779D02*
X105435Y249136D01*
X82677Y263779D02*
X90792D01*
X82608Y263849D02*
X82677Y263779D01*
X78060Y263849D02*
X82608D01*
X72070Y269839D02*
X78060Y263849D01*
X62094Y269839D02*
X72070D01*
X59185Y266929D02*
X62094Y269839D01*
X49213Y266929D02*
X59185D01*
X49143Y273298D02*
X49213Y273228D01*
X43632Y273298D02*
X49143D01*
X41045Y275884D02*
X43632Y273298D01*
X41045Y275884D02*
Y276080D01*
X36614Y280512D02*
X41045Y276080D01*
X43307Y287052D02*
Y317028D01*
X39991Y283736D02*
X43307Y287052D01*
X39839Y283736D02*
X39991D01*
X36614Y280512D02*
X39839Y283736D01*
X36417Y280512D02*
X36614D01*
X36417Y273663D02*
Y280512D01*
Y273663D02*
X43082Y266998D01*
X49143D01*
X49213Y266929D01*
X35925Y281004D02*
X36417Y280512D01*
X26083Y281004D02*
X35925D01*
X25591Y281496D02*
X26083Y281004D01*
X179508Y198598D02*
Y204823D01*
Y198598D02*
X180420Y197685D01*
Y192808D02*
Y197685D01*
Y192808D02*
X181299Y191929D01*
X303356Y346860D02*
X315158Y358661D01*
X300718Y346860D02*
X303356D01*
X300394Y346535D02*
X300718Y346860D01*
X363189Y167225D02*
Y167323D01*
X362205Y166241D02*
X363189Y167225D01*
X362205Y156299D02*
Y166241D01*
X363189Y95472D02*
Y115157D01*
X362205Y116142D02*
X363189Y115157D01*
X342471Y213533D02*
X342520Y213583D01*
X342471Y206545D02*
Y213533D01*
X342421Y206496D02*
X342471Y206545D01*
X339403Y177330D02*
Y177428D01*
X339862Y177887D01*
Y183268D01*
X332677Y179134D02*
X332747Y179203D01*
Y179628D01*
X334630Y181512D01*
X327756Y153543D02*
X327825Y153613D01*
Y154991D01*
X331102Y158268D01*
X331693D01*
X320866Y152559D02*
Y158264D01*
X314961Y249016D02*
Y255610D01*
X303150Y370079D02*
X308858D01*
X308858Y370079D01*
X302165Y377953D02*
X308858D01*
X290354Y361221D02*
X290452D01*
X290767Y361535D01*
X300394D01*
X283622Y49055D02*
X296260Y36417D01*
X283622Y49055D02*
Y64961D01*
X281496Y223425D02*
X281535Y223386D01*
Y219331D02*
Y223386D01*
Y219331D02*
X281575Y219291D01*
X266732Y168307D02*
X266802Y168376D01*
Y176605D01*
X267559Y177362D01*
X250984Y328740D02*
Y328838D01*
X251181Y329035D01*
Y334646D01*
X230315Y320866D02*
Y320964D01*
X230807Y321456D01*
Y326772D01*
X188976Y232185D02*
Y232283D01*
Y232185D02*
X189508Y231654D01*
Y226279D02*
Y231654D01*
X181102Y13780D02*
Y20669D01*
X182087Y21654D01*
X173228Y187992D02*
X176024Y185197D01*
Y176378D02*
Y185197D01*
X170276Y88583D02*
X182087D01*
X182087Y88583D01*
X157480Y312008D02*
Y312106D01*
X157874Y312500D01*
Y320472D01*
X156496Y13780D02*
Y20669D01*
X157480Y21654D01*
X147638Y313976D02*
Y320472D01*
X133858Y170178D02*
Y170276D01*
Y170178D02*
X134390Y169646D01*
Y162303D02*
Y169646D01*
X127953Y268701D02*
Y268799D01*
X128268Y269114D01*
Y290354D01*
X125886Y102362D02*
X125984D01*
X125254Y101730D02*
X125886Y102362D01*
X121061Y101730D02*
X125254D01*
X120905Y101575D02*
X121061Y101730D01*
X116142Y345472D02*
X120095D01*
X122047Y347425D01*
Y348031D01*
X106299Y346457D02*
Y353346D01*
X102264Y270669D02*
X102362D01*
X100280Y272654D02*
X102264Y270669D01*
X97228Y272654D02*
X100280D01*
X95472Y274409D02*
X97228Y272654D01*
X98327Y375000D02*
X98425D01*
X97934Y375394D02*
X98327Y375000D01*
X90551Y375394D02*
X97934D01*
X94361Y273298D02*
X95472Y274409D01*
X82746Y273298D02*
X94361D01*
X82677Y273228D02*
X82746Y273298D01*
X77898Y328740D02*
X81693D01*
X76929Y329709D02*
X77898Y328740D01*
X76929Y329709D02*
Y330512D01*
X72835Y358465D02*
Y364173D01*
X71850Y146653D02*
Y146751D01*
X70483Y148119D02*
X71850Y146751D01*
X70483Y148119D02*
Y152391D01*
X70413Y152461D02*
X70483Y152391D01*
X62894Y375000D02*
X62992D01*
X62599Y375295D02*
X62894Y375000D01*
X57087Y375295D02*
X62599D01*
X43727Y276994D02*
X43824D01*
X44372Y276447D01*
X49143D01*
X49213Y276378D01*
X49115Y375000D02*
X49213D01*
X48721Y374606D02*
X49115Y375000D01*
X43307Y374606D02*
X48721D01*
X43293Y270578D02*
X43391D01*
X43821Y270148D01*
X49143D01*
X49213Y270079D01*
X36417Y287992D02*
Y293307D01*
X29528Y261811D02*
X35433D01*
X42254Y172175D02*
X42323Y172244D01*
X27882Y172175D02*
X42254D01*
X27715Y172008D02*
X27882Y172175D01*
X26575Y218504D02*
X26644Y218435D01*
X45345D01*
X45433Y218347D01*
X25591Y287402D02*
Y292323D01*
X21584Y110167D02*
X21654Y110236D01*
X21584Y100679D02*
Y110167D01*
X21496Y100591D02*
X21584Y100679D01*
X15748Y335531D02*
Y342520D01*
X15858Y118858D02*
X19840D01*
X15691Y119025D02*
X15858Y118858D01*
X11593Y119025D02*
X15691D01*
X11524Y119095D02*
X11593Y119025D01*
D125*
X319882Y280315D02*
X331693D01*
Y280512D01*
X310039Y280315D02*
X319882D01*
D126*
X327756Y29724D02*
D03*
X337598D02*
D03*
X61024D02*
D03*
X51181D02*
D03*
X125984D02*
D03*
X116142D02*
D03*
D127*
X357362Y320866D02*
D03*
Y324606D02*
D03*
Y332087D02*
D03*
Y335827D02*
D03*
Y339567D02*
D03*
Y343307D02*
D03*
Y347047D02*
D03*
X351850Y320866D02*
D03*
Y324606D02*
D03*
Y328346D02*
D03*
Y332087D02*
D03*
Y335827D02*
D03*
Y343307D02*
D03*
Y347047D02*
D03*
X89567Y282480D02*
D03*
X91535Y287402D02*
D03*
X96457Y309055D02*
D03*
X339567Y85630D02*
D03*
Y81037D02*
D03*
Y76444D02*
D03*
Y71850D02*
D03*
X334646Y16732D02*
D03*
X337598D02*
D03*
X340551D02*
D03*
X343504D02*
D03*
X374016Y351093D02*
D03*
X337598Y319110D02*
D03*
X310039Y294291D02*
D03*
X331693Y295276D02*
D03*
X319882Y294291D02*
D03*
X42323Y172244D02*
D03*
X45276Y191929D02*
D03*
X42323Y187008D02*
D03*
X11524Y119095D02*
D03*
X302165Y377953D02*
D03*
X303150Y370079D02*
D03*
X290354Y361221D02*
D03*
X142717Y375984D02*
D03*
X135827Y326772D02*
D03*
X255906Y338583D02*
D03*
X188976Y232283D02*
D03*
X43727Y276994D02*
D03*
X43293Y270578D02*
D03*
X29528Y261811D02*
D03*
X102362Y270669D02*
D03*
X127953Y268701D02*
D03*
X81693Y328740D02*
D03*
X72835Y364173D02*
D03*
X62992Y375000D02*
D03*
X49213D02*
D03*
X98425D02*
D03*
X116142Y345472D02*
D03*
X106299Y346457D02*
D03*
X157480Y312008D02*
D03*
X147638Y313976D02*
D03*
X230315Y320866D02*
D03*
X250984Y328740D02*
D03*
X173228Y187992D02*
D03*
X266732Y168307D02*
D03*
X281496Y223425D02*
D03*
X314961Y249016D02*
D03*
X342520Y213583D02*
D03*
X339403Y177330D02*
D03*
X332677Y179134D02*
D03*
X363189Y167323D02*
D03*
Y95472D02*
D03*
X327756Y153543D02*
D03*
X320866Y152559D02*
D03*
X296260Y36417D02*
D03*
X156496Y13780D02*
D03*
X181102D02*
D03*
X170276Y88583D02*
D03*
X133858Y170276D02*
D03*
X71850Y146653D02*
D03*
X125984Y102362D02*
D03*
X21654Y110236D02*
D03*
X26575Y218504D02*
D03*
X36417Y293307D02*
D03*
X25591Y292323D02*
D03*
X15748Y342520D02*
D03*
X247047Y217520D02*
D03*
X67913Y248031D02*
D03*
X170276Y147638D02*
D03*
X249016Y132874D02*
D03*
X267717Y196850D02*
D03*
X294291Y191929D02*
D03*
X222441Y234252D02*
D03*
X333661Y211614D02*
D03*
X334646Y189961D02*
D03*
X80709Y111221D02*
D03*
X60039Y144685D02*
D03*
X114173Y162402D02*
D03*
X258858Y102362D02*
D03*
X230315Y115157D02*
D03*
X174213Y106299D02*
D03*
X296260Y47244D02*
D03*
X66929Y319882D02*
D03*
X70866Y261811D02*
D03*
X57087Y263779D02*
D03*
X33465Y133858D02*
D03*
X57021Y272572D02*
D03*
X66929Y267157D02*
D03*
X60811Y264764D02*
D03*
X19685Y129921D02*
D03*
X69882Y278543D02*
D03*
X62992Y277559D02*
D03*
X24606Y234252D02*
D03*
X42323Y281496D02*
D03*
X56102Y301181D02*
D03*
X66929D02*
D03*
X76772Y317913D02*
D03*
X49213Y324803D02*
D03*
X374016Y300197D02*
D03*
X238779Y351378D02*
D03*
X330709Y341535D02*
D03*
D128*
X362205Y325787D02*
D03*
Y341535D02*
D03*
X347008D02*
D03*
Y325787D02*
D03*
D129*
X289370Y293307D02*
D03*
Y283465D02*
D03*
X374016Y192913D02*
D03*
X364173D02*
D03*
D130*
X21654Y372047D02*
D03*
Y21654D02*
D03*
X372047D02*
D03*
Y372047D02*
D03*
D131*
X82677Y295275D02*
D03*
X206693Y307086D02*
D03*
X230315D02*
D03*
X147638D02*
D03*
X194882D02*
D03*
X171260D02*
D03*
X112205D02*
D03*
X135827D02*
D03*
X183071D02*
D03*
X218504D02*
D03*
X118110Y295275D02*
D03*
X153543D02*
D03*
X165354D02*
D03*
X372047Y330709D02*
D03*
X366142Y295275D02*
D03*
X372047Y283465D02*
D03*
X366142Y248031D02*
D03*
Y224409D02*
D03*
X372047Y212598D02*
D03*
X366142Y200787D02*
D03*
Y177165D02*
D03*
X372047Y165354D02*
D03*
Y141732D02*
D03*
Y94488D02*
D03*
X360236Y377953D02*
D03*
X354331Y366142D02*
D03*
X360236Y354331D02*
D03*
X354331Y295275D02*
D03*
Y271654D02*
D03*
X360236Y259842D02*
D03*
X354331Y224409D02*
D03*
X360236Y212598D02*
D03*
X354331Y200787D02*
D03*
X348425Y377953D02*
D03*
X342520Y342520D02*
D03*
Y295275D02*
D03*
X348425Y283465D02*
D03*
X342520Y271654D02*
D03*
X348425Y259842D02*
D03*
X342520Y248031D02*
D03*
X348425Y212598D02*
D03*
X342520Y153543D02*
D03*
X348425Y94488D02*
D03*
X330709Y366142D02*
D03*
X336614Y354331D02*
D03*
Y259842D02*
D03*
X330709Y248031D02*
D03*
Y200787D02*
D03*
X336614Y165354D02*
D03*
Y141732D02*
D03*
X330709Y106299D02*
D03*
Y82677D02*
D03*
Y11811D02*
D03*
X324803Y259842D02*
D03*
Y212598D02*
D03*
X318898Y200787D02*
D03*
X324803Y188976D02*
D03*
X318898Y177165D02*
D03*
Y129921D02*
D03*
X324803Y118110D02*
D03*
X318898Y106299D02*
D03*
X324803Y94488D02*
D03*
Y70866D02*
D03*
Y47244D02*
D03*
X318898Y11811D02*
D03*
X307086Y342520D02*
D03*
X312992Y330709D02*
D03*
X307086Y271654D02*
D03*
Y248031D02*
D03*
Y224409D02*
D03*
X312992Y188976D02*
D03*
X307086Y177165D02*
D03*
X312992Y165354D02*
D03*
X307086Y106299D02*
D03*
Y35433D02*
D03*
Y11811D02*
D03*
X295275Y318898D02*
D03*
X301181Y307086D02*
D03*
X295275Y271654D02*
D03*
X301181Y259842D02*
D03*
X295275Y224409D02*
D03*
X301181Y188976D02*
D03*
Y165354D02*
D03*
Y141732D02*
D03*
X295275Y11811D02*
D03*
X289370Y377953D02*
D03*
X283465Y366142D02*
D03*
X289370Y330709D02*
D03*
X283465Y318898D02*
D03*
X289370Y307086D02*
D03*
X283465Y271654D02*
D03*
X289370Y259842D02*
D03*
X283465Y248031D02*
D03*
X289370Y212598D02*
D03*
Y188976D02*
D03*
Y118110D02*
D03*
X277559Y377953D02*
D03*
X271654Y366142D02*
D03*
X277559Y354331D02*
D03*
X271654Y342520D02*
D03*
X277559Y283465D02*
D03*
X271654Y248031D02*
D03*
X277559Y236220D02*
D03*
Y118110D02*
D03*
X265748Y377953D02*
D03*
X259842Y366142D02*
D03*
X265748Y354331D02*
D03*
Y307086D02*
D03*
X259842Y295275D02*
D03*
Y271654D02*
D03*
X265748Y236220D02*
D03*
Y212598D02*
D03*
Y118110D02*
D03*
X253937Y377953D02*
D03*
X248031Y366142D02*
D03*
Y318898D02*
D03*
X253937Y307086D02*
D03*
Y259842D02*
D03*
Y236220D02*
D03*
X248031Y224409D02*
D03*
Y200787D02*
D03*
X253937Y118110D02*
D03*
X236220Y318898D02*
D03*
X242126Y307086D02*
D03*
Y259842D02*
D03*
X236220Y200787D02*
D03*
X242126Y118110D02*
D03*
X230315Y377953D02*
D03*
X224409Y366142D02*
D03*
X230315Y354331D02*
D03*
X224409Y318898D02*
D03*
Y200787D02*
D03*
X218504Y377953D02*
D03*
X212598Y366142D02*
D03*
X218504Y354331D02*
D03*
Y330709D02*
D03*
X212598Y318898D02*
D03*
X218504Y236220D02*
D03*
X212598Y200787D02*
D03*
X218504Y141732D02*
D03*
X206693Y377953D02*
D03*
X200787Y366142D02*
D03*
X206693Y354331D02*
D03*
Y330709D02*
D03*
X200787Y318898D02*
D03*
X206693Y236220D02*
D03*
X200787Y200787D02*
D03*
Y177165D02*
D03*
Y153543D02*
D03*
Y82677D02*
D03*
X194882Y377953D02*
D03*
X188976Y366142D02*
D03*
X194882Y354331D02*
D03*
X188976Y318898D02*
D03*
Y271654D02*
D03*
X194882Y259842D02*
D03*
Y212598D02*
D03*
X188976Y177165D02*
D03*
X194882Y118110D02*
D03*
Y94488D02*
D03*
Y23622D02*
D03*
X188976Y11811D02*
D03*
X183071Y377953D02*
D03*
X177165Y366142D02*
D03*
Y342520D02*
D03*
Y318898D02*
D03*
X183071Y259842D02*
D03*
Y118110D02*
D03*
X171260Y377953D02*
D03*
X165354Y318898D02*
D03*
X171260Y259842D02*
D03*
Y236220D02*
D03*
X165354Y224409D02*
D03*
X171260Y212598D02*
D03*
X165354Y200787D02*
D03*
Y177165D02*
D03*
X171260Y165354D02*
D03*
Y141732D02*
D03*
Y94488D02*
D03*
X165354Y82677D02*
D03*
X171260Y23622D02*
D03*
X165354Y11811D02*
D03*
X153543Y342520D02*
D03*
X159449Y259842D02*
D03*
X153543Y224409D02*
D03*
X159449Y212598D02*
D03*
X153543Y200787D02*
D03*
X159449Y188976D02*
D03*
Y141732D02*
D03*
X153543Y129921D02*
D03*
Y106299D02*
D03*
X159449Y94488D02*
D03*
X153543Y82677D02*
D03*
X141732Y366142D02*
D03*
Y342520D02*
D03*
Y271654D02*
D03*
X147638Y259842D02*
D03*
Y236220D02*
D03*
Y212598D02*
D03*
X141732Y200787D02*
D03*
X147638Y188976D02*
D03*
Y118110D02*
D03*
X141732Y11811D02*
D03*
X135827Y354331D02*
D03*
X129921Y318898D02*
D03*
X135827Y259842D02*
D03*
Y236220D02*
D03*
X129921Y224409D02*
D03*
X135827Y212598D02*
D03*
X129921Y177165D02*
D03*
Y11811D02*
D03*
X118110Y366142D02*
D03*
X124016Y330709D02*
D03*
X118110Y318898D02*
D03*
X124016Y259842D02*
D03*
Y236220D02*
D03*
Y212598D02*
D03*
X118110Y200787D02*
D03*
X124016Y188976D02*
D03*
X118110Y177165D02*
D03*
Y129921D02*
D03*
Y11811D02*
D03*
X112205Y377953D02*
D03*
Y330709D02*
D03*
X106299Y318898D02*
D03*
X112205Y259842D02*
D03*
Y236220D02*
D03*
Y188976D02*
D03*
X106299Y177165D02*
D03*
Y11811D02*
D03*
X94488Y366142D02*
D03*
X100394Y330709D02*
D03*
X94488Y318898D02*
D03*
X100394Y259842D02*
D03*
Y236220D02*
D03*
X94488Y224409D02*
D03*
Y200787D02*
D03*
X100394Y188976D02*
D03*
X94488Y177165D02*
D03*
Y59055D02*
D03*
Y11811D02*
D03*
X82677Y366142D02*
D03*
Y318898D02*
D03*
X88583Y259842D02*
D03*
Y212598D02*
D03*
Y188976D02*
D03*
X82677Y177165D02*
D03*
X88583Y165354D02*
D03*
X82677Y59055D02*
D03*
Y11811D02*
D03*
X76772Y377953D02*
D03*
Y212598D02*
D03*
X70866Y200787D02*
D03*
Y177165D02*
D03*
X76772Y141732D02*
D03*
X70866Y59055D02*
D03*
Y11811D02*
D03*
X64961Y354331D02*
D03*
X59055Y224409D02*
D03*
Y200787D02*
D03*
Y177165D02*
D03*
X64961Y70866D02*
D03*
X59055Y59055D02*
D03*
Y11811D02*
D03*
X47244Y366142D02*
D03*
Y342520D02*
D03*
Y295275D02*
D03*
Y177165D02*
D03*
X53150Y141732D02*
D03*
X47244Y129921D02*
D03*
Y106299D02*
D03*
Y82677D02*
D03*
Y11811D02*
D03*
X35433Y366142D02*
D03*
Y342520D02*
D03*
X41339Y330709D02*
D03*
X35433Y318898D02*
D03*
Y248031D02*
D03*
X41339Y165354D02*
D03*
X35433Y59055D02*
D03*
Y35433D02*
D03*
X41339Y23622D02*
D03*
X35433Y11811D02*
D03*
X29528Y354331D02*
D03*
X23622Y342520D02*
D03*
X29528Y330709D02*
D03*
X23622Y318898D02*
D03*
Y271654D02*
D03*
Y200787D02*
D03*
Y153543D02*
D03*
X29528Y94488D02*
D03*
X23622Y59055D02*
D03*
X29528Y47244D02*
D03*
X23622Y35433D02*
D03*
X17717Y354331D02*
D03*
X11811Y318898D02*
D03*
Y295275D02*
D03*
X17717Y283465D02*
D03*
X11811Y271654D02*
D03*
X17717Y259842D02*
D03*
X11811Y248031D02*
D03*
X17717Y236220D02*
D03*
Y212598D02*
D03*
X11811Y200787D02*
D03*
X17717Y188976D02*
D03*
X11811Y177165D02*
D03*
X17717Y165354D02*
D03*
X11811Y153543D02*
D03*
X17717Y141732D02*
D03*
X11811Y129921D02*
D03*
Y106299D02*
D03*
Y82677D02*
D03*
Y59055D02*
D03*
X17717Y47244D02*
D03*
X11811Y35433D02*
D03*
Y11811D02*
D03*
D132*
X348425Y350394D02*
D03*
X131890Y370079D02*
D03*
M02*
