M48
;Layer_Color=9474304
;FILE_FORMAT=2:5
INCH,TZ
;TYPE=PLATED
T1F00S00C0.01181
T2F00S00C0.01378
T3F00S00C0.01575
T5F00S00C0.02756
T6F00S00C0.02800
T7F00S00C0.03000
T8F00S00C0.03937
T9F00S00C0.13780
%
T01
X11524Y119095
X21654Y110236
X19685Y129921
X33465Y133858
X71850Y146653
X125984Y102362
X170276Y88583
X181102Y126969
X170276Y147638
X230315Y115157
X249016Y132874
X258858Y102362
X296260Y47244
Y36417
X181102Y13780
X156496
X334646Y16732
X337598
X340551
X343504
X339567Y71850
Y76444
Y81037
Y85630
X363189Y95472
X327756Y153543
X320866Y152559
X332677Y179134
X339403Y177330
X334646Y189961
X333661Y211614
X342520Y213583
X314961Y249016
X319882Y294291
X331693Y295276
X374016Y300197
X363189Y167323
X294291Y191929
X267717Y196850
X266732Y168307
X247047Y217520
X222441Y234252
X173228Y187992
X157480Y312008
X310039Y294291
X91535Y287402
X89567Y282480
X69882Y278543
X62992Y277559
X57021Y272572
X57087Y263779
X60811Y264764
X66929Y267157
X70866Y261811
X67913Y248031
X43293Y270578
X43727Y276994
X42323Y281496
X36417Y293307
X25591Y292323
X14764Y280512
X29528Y261811
X24606Y234252
X26575Y218504
X12342Y214567
X45276Y191929
X42323Y187008
Y172244
X115157Y162402
X102362Y270669
X96457Y309055
X66929Y301181
X56102
X66929Y319882
X76772Y317913
X81693Y328740
X107283Y334646
X106299Y346457
X116142Y345472
X134843Y334646
X135827Y326772
X147638Y313976
Y350394
X142717Y375984
X98425Y375000
X62992
X49213
X72835Y364173
X49213Y324803
X15748Y342520
X238779Y351378
X255906Y338583
X250984Y328740
X230315Y320866
X290354Y361221
X303150Y370079
X302165Y377953
X330709Y341535
X337598Y319110
X374016Y351093
T02
X11811Y11811
X35433
X47244
X59055
X70866
X82677
X94488
X106299
X118110
X129921
X141732
X153543Y82677
Y106299
X147638Y118110
X153543Y129921
X118110
X47244
X53150Y141732
X17717
X23622Y153543
X11811
Y129921
Y106299
Y82677
Y59055
X23622
X35433
X29528Y47244
X17717
X23622Y35433
X35433
X41339Y23622
X11811Y35433
X59055Y59055
X70866
X82677
X94488
X64961Y70866
X47244Y82677
Y106299
X29528Y94488
X159449
X171260
X165354Y82677
X200787
X194882Y94488
Y118110
X200787Y153543
X218504Y141732
X242126Y118110
X253937
X265748
X277559
X289370
X307086Y106299
X301181Y141732
X307086Y35433
Y11811
X295275
X188976
X194882Y23622
X171260
X165354Y11811
X171260Y141732
X159449
X318898Y129921
X324803Y118110
X330709Y106299
X318898
X324803Y94488
X330709Y82677
X324803Y70866
Y47244
X330709Y11811
X318898
X348425Y94488
X336614Y141732
X342520Y153543
X372047Y141732
Y165354
X336614
X312992
X318898Y177165
X324803Y188976
X312992
X318898Y200787
X330709
X324803Y212598
X348425
X354331Y224409
Y200787
X366142
Y248031
X360236Y259842
X348425
X336614
X324803
X330709Y248031
X342520
Y271654
X354331
X348425Y283465
X354331Y295275
X366142
X372047Y283465
X342520Y295275
X301181Y307086
X289370
X265748
X253937
X242126
X230315
X218504
X206693
X194882
X183071
X171260
X165354Y295275
X171260Y259842
X183071
X194882
X188976Y271654
X157486Y254363
X171260Y236220
X165354Y224409
X171260Y212598
X159449
X165354Y200787
X159449Y188976
X165354Y177165
X171260Y165354
X188976Y177165
X200787
Y200787
X194882Y212598
X206693Y238130
X218504
X254159Y235999
X265748Y236220
X277559
X283465Y248031
X271654
X289370Y259842
X301181
X307086Y271654
X295275
X283465
X277559Y283465
X259842Y295275
Y271654
X253937Y259842
X242126
X248031Y224409
Y200787
X236220
X224409
X265748Y212598
X295275Y224409
X307086
Y248031
X301181Y188976
X289370
X307086Y177165
X301181Y165354
X147638Y188976
X153543Y200787
X141732
X147638Y212598
X135827
X124016
X129921Y224409
X135827Y236220
X147638
X153543Y224409
X147638Y259842
X135827
X124016
X112205
X100394
X88583
X100394Y236220
X112205
X124016
X118110Y200787
X124016Y188976
X112205
X100394
X88583
X94488Y200787
X88583Y212598
X76772
X70866Y200787
X59055
Y224409
X94488
Y177165
X106299
X118110
X82677
X70866
X59055
X47244
X41339Y165354
X17717
X11811Y177165
X17717Y188976
X23622Y198130
X11811Y200787
X17717Y212598
Y236220
X16220Y248031
X17717Y259842
X16220Y271654
X23622
X17717Y285374
X11811Y295275
X47244
X82677
X153543
X147638Y307086
X140964Y270885
X35433Y248031
X88583Y165354
X94488Y318898
X106299
X118110
X129921
X124016Y330709
X112205
X100394
X82677Y318898
Y366142
X94488
X118110
X112205Y377953
X76772
X64961Y354331
X47244Y366142
X35433
X29528Y354331
X17717
X23622Y342520
X35433
X47244
X41339Y330709
X29528
X35433Y318898
X23622
X11811
X141732Y342520
X153543
X135827Y354331
X141732Y366142
X177165
X188976
X200787
X212598
X224409
X230315Y377953
X218504
X206693
X194882
X183071
X171260
X177165Y342520
Y318898
X188976
X200787
X212598
X224409
X236220
X248031
X283465
X295275
X289370Y330709
X307086Y342520
X271654
X277559Y354331
X265748
X271654Y366142
X283465
X289370Y377953
X277559
X265748
X253937
X259842Y366142
X248031
X230315Y354331
X218504
X206693
X194882
X206693Y330709
X218504
X165354Y318898
X312992Y330709
X342520Y342520
X336614Y354331
X330709Y366142
X354331
X360236Y377953
X348425
X360236Y354331
X372047Y330709
T03
X351850Y320866
Y324606
Y328346
Y332087
Y335827
X357362
Y332087
Y324606
Y320866
Y339567
Y343307
Y347047
X351850
Y343307
T05
X365158Y63976
X375000
X375984Y182087
X366142
Y210630
X375984
X289370Y283465
Y293307
T06
X131890Y370079
X348425Y350394
T07
X51181Y29724
X116142
X327756
T08
X61024Y29724
X125984
X337598
T09
X21654Y21654
X372047
X21654Y372047
X372047
M30
