G04*
G04 #@! TF.GenerationSoftware,Altium Limited,Altium Designer,21.4.1 (30)*
G04*
G04 Layer_Color=16711935*
%FSLAX25Y25*%
%MOIN*%
G70*
G04*
G04 #@! TF.SameCoordinates,7B2BD0F0-F325-43E0-8A4B-F521747280A9*
G04*
G04*
G04 #@! TF.FilePolarity,Negative*
G04*
G01*
G75*
%ADD115C,0.05315*%
%ADD116C,0.07480*%
%ADD117C,0.02953*%
%ADD118O,0.03347X0.06890*%
%ADD119C,0.20276*%
%ADD120C,0.05591*%
%ADD121C,0.03347*%
D115*
X365158Y63976D02*
D03*
X375000D02*
D03*
X366142Y182087D02*
D03*
X375984D02*
D03*
X366142Y210630D02*
D03*
X375984D02*
D03*
X289370Y293307D02*
D03*
Y283465D02*
D03*
D116*
X327756Y29724D02*
D03*
X337598D02*
D03*
X61024D02*
D03*
X51181D02*
D03*
X125984D02*
D03*
X116142D02*
D03*
D117*
X357362Y320866D02*
D03*
Y324606D02*
D03*
Y332087D02*
D03*
Y335827D02*
D03*
Y339567D02*
D03*
Y343307D02*
D03*
Y347047D02*
D03*
X351850Y320866D02*
D03*
Y324606D02*
D03*
Y328346D02*
D03*
Y332087D02*
D03*
Y335827D02*
D03*
Y343307D02*
D03*
Y347047D02*
D03*
X107283Y334646D02*
D03*
X134843D02*
D03*
X147638Y350394D02*
D03*
X142717Y375984D02*
D03*
X14764Y280512D02*
D03*
X12342Y214567D02*
D03*
X26575Y218504D02*
D03*
X222441Y234252D02*
D03*
X342520Y213583D02*
D03*
X96457Y309055D02*
D03*
X135827Y326772D02*
D03*
X115157Y162402D02*
D03*
X181102Y126969D02*
D03*
X89567Y282480D02*
D03*
X91535Y287402D02*
D03*
X339567Y85630D02*
D03*
Y81037D02*
D03*
Y76444D02*
D03*
Y71850D02*
D03*
X334646Y16732D02*
D03*
X337598D02*
D03*
X340551D02*
D03*
X343504D02*
D03*
X374016Y351093D02*
D03*
X337598Y319110D02*
D03*
X310039Y294291D02*
D03*
X331693Y295276D02*
D03*
X319882Y294291D02*
D03*
X42323Y172244D02*
D03*
X45276Y191929D02*
D03*
X42323Y187008D02*
D03*
X11524Y119095D02*
D03*
X302165Y377953D02*
D03*
X303150Y370079D02*
D03*
X290354Y361221D02*
D03*
X255906Y338583D02*
D03*
X43727Y276994D02*
D03*
X43293Y270578D02*
D03*
X29528Y261811D02*
D03*
X102362Y270669D02*
D03*
X81693Y328740D02*
D03*
X72835Y364173D02*
D03*
X62992Y375000D02*
D03*
X49213D02*
D03*
X98425D02*
D03*
X116142Y345472D02*
D03*
X106299Y346457D02*
D03*
X157480Y312008D02*
D03*
X147638Y313976D02*
D03*
X230315Y320866D02*
D03*
X250984Y328740D02*
D03*
X173228Y187992D02*
D03*
X266732Y168307D02*
D03*
X314961Y249016D02*
D03*
X339403Y177330D02*
D03*
X332677Y179134D02*
D03*
X363189Y167323D02*
D03*
Y95472D02*
D03*
X327756Y153543D02*
D03*
X320866Y152559D02*
D03*
X296260Y36417D02*
D03*
X156496Y13780D02*
D03*
X181102D02*
D03*
X170276Y88583D02*
D03*
X71850Y146653D02*
D03*
X125984Y102362D02*
D03*
X21654Y110236D02*
D03*
X36417Y293307D02*
D03*
X25591Y292323D02*
D03*
X15748Y342520D02*
D03*
X247047Y217520D02*
D03*
X67913Y248031D02*
D03*
X170276Y147638D02*
D03*
X249016Y132874D02*
D03*
X267717Y196850D02*
D03*
X294291Y191929D02*
D03*
X333661Y211614D02*
D03*
X334646Y189961D02*
D03*
X258858Y102362D02*
D03*
X230315Y115157D02*
D03*
X296260Y47244D02*
D03*
X66929Y319882D02*
D03*
X70866Y261811D02*
D03*
X57087Y263779D02*
D03*
X33465Y133858D02*
D03*
X57021Y272572D02*
D03*
X66929Y267157D02*
D03*
X60811Y264764D02*
D03*
X19685Y129921D02*
D03*
X69882Y278543D02*
D03*
X62992Y277559D02*
D03*
X24606Y234252D02*
D03*
X42323Y281496D02*
D03*
X56102Y301181D02*
D03*
X66929D02*
D03*
X76772Y317913D02*
D03*
X49213Y324803D02*
D03*
X374016Y300197D02*
D03*
X238779Y351378D02*
D03*
X330709Y341535D02*
D03*
D118*
X362205Y325787D02*
D03*
Y341535D02*
D03*
X347008D02*
D03*
Y325787D02*
D03*
D119*
X21654Y372047D02*
D03*
Y21654D02*
D03*
X372047D02*
D03*
Y372047D02*
D03*
D120*
X131890Y370079D02*
D03*
X348425Y350394D02*
D03*
D121*
X17717Y285374D02*
D03*
X16220Y248031D02*
D03*
Y271654D02*
D03*
X17717Y236220D02*
D03*
Y212598D02*
D03*
X11811Y200787D02*
D03*
X23622Y198130D02*
D03*
X348425Y259842D02*
D03*
X360236D02*
D03*
X366142Y200787D02*
D03*
X348425Y212598D02*
D03*
X254159Y235999D02*
D03*
X157486Y254363D02*
D03*
X206693Y238130D02*
D03*
X140964Y270885D02*
D03*
X218504Y238130D02*
D03*
X147638Y307086D02*
D03*
Y259842D02*
D03*
X183071D02*
D03*
X265748Y236220D02*
D03*
X82677Y295275D02*
D03*
X129921Y318898D02*
D03*
X206693Y307086D02*
D03*
X230315D02*
D03*
X194882D02*
D03*
X171260D02*
D03*
X183071D02*
D03*
X218504D02*
D03*
X153543Y295275D02*
D03*
X165354D02*
D03*
X372047Y330709D02*
D03*
X366142Y295275D02*
D03*
X372047Y283465D02*
D03*
X366142Y248031D02*
D03*
X372047Y165354D02*
D03*
Y141732D02*
D03*
X360236Y377953D02*
D03*
X354331Y366142D02*
D03*
X360236Y354331D02*
D03*
X354331Y295275D02*
D03*
Y271654D02*
D03*
Y224409D02*
D03*
Y200787D02*
D03*
X348425Y377953D02*
D03*
X342520Y342520D02*
D03*
Y295275D02*
D03*
X348425Y283465D02*
D03*
X342520Y271654D02*
D03*
Y248031D02*
D03*
Y153543D02*
D03*
X348425Y94488D02*
D03*
X330709Y366142D02*
D03*
X336614Y354331D02*
D03*
Y259842D02*
D03*
X330709Y248031D02*
D03*
Y200787D02*
D03*
X336614Y165354D02*
D03*
Y141732D02*
D03*
X330709Y106299D02*
D03*
Y82677D02*
D03*
Y11811D02*
D03*
X324803Y259842D02*
D03*
Y212598D02*
D03*
X318898Y200787D02*
D03*
X324803Y188976D02*
D03*
X318898Y177165D02*
D03*
Y129921D02*
D03*
X324803Y118110D02*
D03*
X318898Y106299D02*
D03*
X324803Y94488D02*
D03*
Y70866D02*
D03*
Y47244D02*
D03*
X318898Y11811D02*
D03*
X307086Y342520D02*
D03*
X312992Y330709D02*
D03*
X307086Y271654D02*
D03*
Y248031D02*
D03*
Y224409D02*
D03*
X312992Y188976D02*
D03*
X307086Y177165D02*
D03*
X312992Y165354D02*
D03*
X307086Y106299D02*
D03*
Y35433D02*
D03*
Y11811D02*
D03*
X295275Y318898D02*
D03*
X301181Y307086D02*
D03*
X295275Y271654D02*
D03*
X301181Y259842D02*
D03*
X295275Y224409D02*
D03*
X301181Y188976D02*
D03*
Y165354D02*
D03*
Y141732D02*
D03*
X295275Y11811D02*
D03*
X289370Y377953D02*
D03*
X283465Y366142D02*
D03*
X289370Y330709D02*
D03*
X283465Y318898D02*
D03*
X289370Y307086D02*
D03*
X283465Y271654D02*
D03*
X289370Y259842D02*
D03*
X283465Y248031D02*
D03*
X289370Y188976D02*
D03*
Y118110D02*
D03*
X277559Y377953D02*
D03*
X271654Y366142D02*
D03*
X277559Y354331D02*
D03*
X271654Y342520D02*
D03*
X277559Y283465D02*
D03*
X271654Y248031D02*
D03*
X277559Y236220D02*
D03*
Y118110D02*
D03*
X265748Y377953D02*
D03*
X259842Y366142D02*
D03*
X265748Y354331D02*
D03*
Y307086D02*
D03*
X259842Y295275D02*
D03*
Y271654D02*
D03*
X265748Y212598D02*
D03*
Y118110D02*
D03*
X253937Y377953D02*
D03*
X248031Y366142D02*
D03*
Y318898D02*
D03*
X253937Y307086D02*
D03*
Y259842D02*
D03*
X248031Y224409D02*
D03*
Y200787D02*
D03*
X253937Y118110D02*
D03*
X236220Y318898D02*
D03*
X242126Y307086D02*
D03*
Y259842D02*
D03*
X236220Y200787D02*
D03*
X242126Y118110D02*
D03*
X230315Y377953D02*
D03*
X224409Y366142D02*
D03*
X230315Y354331D02*
D03*
X224409Y318898D02*
D03*
Y200787D02*
D03*
X218504Y377953D02*
D03*
X212598Y366142D02*
D03*
X218504Y354331D02*
D03*
Y330709D02*
D03*
X212598Y318898D02*
D03*
X218504Y141732D02*
D03*
X206693Y377953D02*
D03*
X200787Y366142D02*
D03*
X206693Y354331D02*
D03*
Y330709D02*
D03*
X200787Y318898D02*
D03*
Y200787D02*
D03*
Y177165D02*
D03*
Y153543D02*
D03*
Y82677D02*
D03*
X194882Y377953D02*
D03*
X188976Y366142D02*
D03*
X194882Y354331D02*
D03*
X188976Y318898D02*
D03*
Y271654D02*
D03*
X194882Y259842D02*
D03*
Y212598D02*
D03*
X188976Y177165D02*
D03*
X194882Y118110D02*
D03*
Y94488D02*
D03*
Y23622D02*
D03*
X188976Y11811D02*
D03*
X183071Y377953D02*
D03*
X177165Y366142D02*
D03*
Y342520D02*
D03*
Y318898D02*
D03*
X171260Y377953D02*
D03*
X165354Y318898D02*
D03*
X171260Y259842D02*
D03*
Y236220D02*
D03*
X165354Y224409D02*
D03*
X171260Y212598D02*
D03*
X165354Y200787D02*
D03*
Y177165D02*
D03*
X171260Y165354D02*
D03*
Y141732D02*
D03*
Y94488D02*
D03*
X165354Y82677D02*
D03*
X171260Y23622D02*
D03*
X165354Y11811D02*
D03*
X153543Y342520D02*
D03*
Y224409D02*
D03*
X159449Y212598D02*
D03*
X153543Y200787D02*
D03*
X159449Y188976D02*
D03*
Y141732D02*
D03*
X153543Y129921D02*
D03*
Y106299D02*
D03*
X159449Y94488D02*
D03*
X153543Y82677D02*
D03*
X141732Y366142D02*
D03*
Y342520D02*
D03*
X147638Y236220D02*
D03*
Y212598D02*
D03*
X141732Y200787D02*
D03*
X147638Y188976D02*
D03*
Y118110D02*
D03*
X141732Y11811D02*
D03*
X135827Y354331D02*
D03*
Y259842D02*
D03*
Y236220D02*
D03*
X129921Y224409D02*
D03*
X135827Y212598D02*
D03*
X129921Y11811D02*
D03*
X118110Y366142D02*
D03*
X124016Y330709D02*
D03*
X118110Y318898D02*
D03*
X124016Y259842D02*
D03*
Y236220D02*
D03*
Y212598D02*
D03*
X118110Y200787D02*
D03*
X124016Y188976D02*
D03*
X118110Y177165D02*
D03*
Y129921D02*
D03*
Y11811D02*
D03*
X112205Y377953D02*
D03*
Y330709D02*
D03*
X106299Y318898D02*
D03*
X112205Y259842D02*
D03*
Y236220D02*
D03*
Y188976D02*
D03*
X106299Y177165D02*
D03*
Y11811D02*
D03*
X94488Y366142D02*
D03*
X100394Y330709D02*
D03*
X94488Y318898D02*
D03*
X100394Y259842D02*
D03*
Y236220D02*
D03*
X94488Y224409D02*
D03*
Y200787D02*
D03*
X100394Y188976D02*
D03*
X94488Y177165D02*
D03*
Y59055D02*
D03*
Y11811D02*
D03*
X82677Y366142D02*
D03*
Y318898D02*
D03*
X88583Y259842D02*
D03*
Y212598D02*
D03*
Y188976D02*
D03*
X82677Y177165D02*
D03*
X88583Y165354D02*
D03*
X82677Y59055D02*
D03*
Y11811D02*
D03*
X76772Y377953D02*
D03*
Y212598D02*
D03*
X70866Y200787D02*
D03*
Y177165D02*
D03*
Y59055D02*
D03*
Y11811D02*
D03*
X64961Y354331D02*
D03*
X59055Y224409D02*
D03*
Y200787D02*
D03*
Y177165D02*
D03*
X64961Y70866D02*
D03*
X59055Y59055D02*
D03*
Y11811D02*
D03*
X47244Y366142D02*
D03*
Y342520D02*
D03*
Y295275D02*
D03*
Y177165D02*
D03*
X53150Y141732D02*
D03*
X47244Y129921D02*
D03*
Y106299D02*
D03*
Y82677D02*
D03*
Y11811D02*
D03*
X35433Y366142D02*
D03*
Y342520D02*
D03*
X41339Y330709D02*
D03*
X35433Y318898D02*
D03*
Y248031D02*
D03*
X41339Y165354D02*
D03*
X35433Y59055D02*
D03*
Y35433D02*
D03*
X41339Y23622D02*
D03*
X35433Y11811D02*
D03*
X29528Y354331D02*
D03*
X23622Y342520D02*
D03*
X29528Y330709D02*
D03*
X23622Y318898D02*
D03*
Y271654D02*
D03*
Y153543D02*
D03*
X29528Y94488D02*
D03*
X23622Y59055D02*
D03*
X29528Y47244D02*
D03*
X23622Y35433D02*
D03*
X17717Y354331D02*
D03*
X11811Y318898D02*
D03*
Y295275D02*
D03*
X17717Y259842D02*
D03*
Y188976D02*
D03*
X11811Y177165D02*
D03*
X17717Y165354D02*
D03*
X11811Y153543D02*
D03*
X17717Y141732D02*
D03*
X11811Y129921D02*
D03*
Y106299D02*
D03*
Y82677D02*
D03*
Y59055D02*
D03*
X17717Y47244D02*
D03*
X11811Y35433D02*
D03*
Y11811D02*
D03*
M02*
