G04*
G04 #@! TF.GenerationSoftware,Altium Limited,Altium Designer,21.4.1 (30)*
G04*
G04 Layer_Color=255*
%FSLAX25Y25*%
%MOIN*%
G70*
G04*
G04 #@! TF.SameCoordinates,7B2BD0F0-F325-43E0-8A4B-F521747280A9*
G04*
G04*
G04 #@! TF.FilePolarity,Positive*
G04*
G01*
G75*
%ADD126C,0.04724*%
%ADD127C,0.06890*%
%ADD128C,0.02362*%
%ADD129O,0.02756X0.06299*%
%ADD130C,0.19685*%
D126*
X365158Y63976D02*
D03*
X375000D02*
D03*
X366142Y182087D02*
D03*
X375984D02*
D03*
X366142Y210630D02*
D03*
X375984D02*
D03*
X289370Y293307D02*
D03*
Y283465D02*
D03*
D127*
X327756Y29724D02*
D03*
X337598D02*
D03*
X61024D02*
D03*
X51181D02*
D03*
X125984D02*
D03*
X116142D02*
D03*
D128*
X357362Y320866D02*
D03*
Y324606D02*
D03*
Y332087D02*
D03*
Y335827D02*
D03*
Y339567D02*
D03*
Y343307D02*
D03*
Y347047D02*
D03*
X351850Y320866D02*
D03*
Y324606D02*
D03*
Y328346D02*
D03*
Y332087D02*
D03*
Y335827D02*
D03*
Y343307D02*
D03*
Y347047D02*
D03*
D129*
X362205Y325787D02*
D03*
Y341535D02*
D03*
X347008D02*
D03*
Y325787D02*
D03*
D130*
X21654Y372047D02*
D03*
Y21654D02*
D03*
X372047D02*
D03*
Y372047D02*
D03*
M02*
