G04*
G04 #@! TF.GenerationSoftware,Altium Limited,Altium Designer,21.4.1 (30)*
G04*
G04 Layer_Color=8388736*
%FSLAX25Y25*%
%MOIN*%
G70*
G04*
G04 #@! TF.SameCoordinates,7B2BD0F0-F325-43E0-8A4B-F521747280A9*
G04*
G04*
G04 #@! TF.FilePolarity,Negative*
G04*
G01*
G75*
%ADD24R,0.13504X0.05000*%
%ADD25R,0.25000X0.05000*%
%ADD26R,0.05938X0.04750*%
%ADD33R,0.05000X0.13504*%
%ADD43R,0.13500X0.05000*%
%ADD45R,0.06324X0.04939*%
%ADD55R,0.05315X0.03740*%
%ADD56R,0.05118X0.06102*%
%ADD61R,0.07480X0.01575*%
%ADD64R,0.04939X0.06324*%
%ADD65R,0.04724X0.03543*%
%ADD68R,0.11811X0.07874*%
%ADD71R,0.05709X0.03740*%
%ADD75R,0.06890X0.12008*%
%ADD76O,0.02953X0.06299*%
%ADD77R,0.04331X0.04921*%
%ADD78R,0.05315X0.13583*%
%ADD79R,0.22638X0.26575*%
%ADD80R,0.06102X0.05118*%
%ADD81O,0.06299X0.02953*%
%ADD82O,0.08268X0.02953*%
%ADD83R,0.06299X0.05709*%
%ADD84R,0.03740X0.03740*%
%ADD85R,0.05512X0.05394*%
%ADD86R,0.08661X0.05394*%
%ADD87R,0.09449X0.04528*%
%ADD88R,0.05118X0.06102*%
%ADD89R,0.14370X0.07598*%
%ADD90R,0.02165X0.02756*%
%ADD91R,0.05906X0.09843*%
%ADD92R,0.06299X0.05512*%
%ADD93R,0.04724X0.06299*%
%ADD94R,0.06299X0.04724*%
%ADD95R,0.05709X0.06299*%
%ADD96O,0.08858X0.03583*%
%ADD97R,0.08858X0.03583*%
%ADD98R,0.04724X0.11811*%
%ADD99R,0.41929X0.28937*%
%ADD100R,0.06496X0.06102*%
%ADD101O,0.02953X0.08268*%
%ADD102R,0.07677X0.04528*%
%ADD103R,0.06496X0.09646*%
%ADD104R,0.05315X0.05906*%
%ADD105R,0.04528X0.12795*%
%ADD106R,0.07598X0.14370*%
G04:AMPARAMS|DCode=107|XSize=23.62mil|YSize=61.02mil|CornerRadius=4.9mil|HoleSize=0mil|Usage=FLASHONLY|Rotation=180.000|XOffset=0mil|YOffset=0mil|HoleType=Round|Shape=RoundedRectangle|*
%AMROUNDEDRECTD107*
21,1,0.02362,0.05122,0,0,180.0*
21,1,0.01382,0.06102,0,0,180.0*
1,1,0.00980,-0.00691,0.02561*
1,1,0.00980,0.00691,0.02561*
1,1,0.00980,0.00691,-0.02561*
1,1,0.00980,-0.00691,-0.02561*
%
%ADD107ROUNDEDRECTD107*%
%ADD108R,0.23819X0.16339*%
%ADD109R,0.02756X0.02165*%
%ADD110R,0.03740X0.02165*%
%ADD111R,0.05906X0.04331*%
%ADD112R,0.04528X0.05906*%
%ADD113R,0.05512X0.06693*%
%ADD114R,0.07677X0.13583*%
%ADD115C,0.05315*%
%ADD116C,0.07480*%
%ADD117C,0.02953*%
%ADD118O,0.03347X0.06890*%
%ADD119C,0.20276*%
%ADD120C,0.05591*%
%ADD121C,0.03347*%
D24*
X225551Y224331D02*
D03*
X237047Y234331D02*
D03*
X248858Y113268D02*
D03*
X237362Y103268D02*
D03*
X258701Y219567D02*
D03*
X247205Y209567D02*
D03*
X150748Y229252D02*
D03*
X162244Y239252D02*
D03*
X107441Y214488D02*
D03*
X118937Y224488D02*
D03*
X104173Y162480D02*
D03*
X84488Y195945D02*
D03*
X72992Y185945D02*
D03*
X110394Y183976D02*
D03*
X121890Y193976D02*
D03*
X92677Y152480D02*
D03*
D25*
X359252Y243110D02*
D03*
X339252Y253110D02*
D03*
Y233110D02*
D03*
X43465Y218347D02*
D03*
X23465Y228346D02*
D03*
X43465Y238347D02*
D03*
D26*
X119095Y309255D02*
D03*
Y300981D02*
D03*
X130905Y300781D02*
D03*
Y309055D02*
D03*
X87598Y308071D02*
D03*
Y316345D02*
D03*
Y291138D02*
D03*
Y299413D02*
D03*
X320866Y166539D02*
D03*
Y158264D02*
D03*
X205709Y298429D02*
D03*
Y268501D02*
D03*
Y276775D02*
D03*
Y290154D02*
D03*
D33*
X339646Y61181D02*
D03*
X329646Y72677D02*
D03*
X278622Y246220D02*
D03*
X268622Y257716D02*
D03*
D43*
X240986Y297480D02*
D03*
X229486Y287480D02*
D03*
X240986Y277480D02*
D03*
X229486Y267480D02*
D03*
X27715Y172008D02*
D03*
X26575Y119764D02*
D03*
X163697Y268543D02*
D03*
X175197Y278543D02*
D03*
X163697Y288543D02*
D03*
X175197Y298543D02*
D03*
X38075Y129764D02*
D03*
X26575Y139764D02*
D03*
X38075Y149764D02*
D03*
X39215Y182008D02*
D03*
X27715Y192008D02*
D03*
X39215Y202008D02*
D03*
D45*
X253937Y87307D02*
D03*
Y78048D02*
D03*
D55*
X25591Y281496D02*
D03*
Y287402D02*
D03*
D56*
X15748Y304232D02*
D03*
Y335531D02*
D03*
X33465Y304232D02*
D03*
Y335531D02*
D03*
D61*
X35433Y261811D02*
D03*
Y266535D02*
D03*
Y257087D02*
D03*
D64*
X306394Y114173D02*
D03*
X315653D02*
D03*
D65*
X331693Y158268D02*
D03*
Y166535D02*
D03*
D68*
X182087Y21654D02*
D03*
Y45276D02*
D03*
X157480Y21654D02*
D03*
Y45276D02*
D03*
X182087Y88583D02*
D03*
Y64961D02*
D03*
D71*
X43307Y317028D02*
D03*
Y324705D02*
D03*
D75*
X355906Y42323D02*
D03*
X372441D02*
D03*
D76*
X179508Y204823D02*
D03*
X184508D02*
D03*
X189508D02*
D03*
X194508D02*
D03*
X179508Y226279D02*
D03*
X184508D02*
D03*
X189508D02*
D03*
X194508D02*
D03*
X54961Y129921D02*
D03*
X59961D02*
D03*
X64961D02*
D03*
X69961D02*
D03*
X54961Y151378D02*
D03*
X59961D02*
D03*
X64961D02*
D03*
X69961D02*
D03*
X124390Y140847D02*
D03*
X129390D02*
D03*
X134390D02*
D03*
X139390D02*
D03*
X124390Y162303D02*
D03*
X129390D02*
D03*
X134390D02*
D03*
X139390D02*
D03*
X271575Y197835D02*
D03*
X276575D02*
D03*
X281575D02*
D03*
X286575D02*
D03*
X271575Y219291D02*
D03*
X276575D02*
D03*
X281575D02*
D03*
X286575D02*
D03*
D77*
X107283Y309646D02*
D03*
Y296654D02*
D03*
X96457Y288779D02*
D03*
Y301772D02*
D03*
D78*
X56929Y69882D02*
D03*
X74961D02*
D03*
X39528Y100591D02*
D03*
X21496D02*
D03*
X257047Y143504D02*
D03*
X239016D02*
D03*
X228504Y143701D02*
D03*
X210472D02*
D03*
X176024Y176378D02*
D03*
X194055D02*
D03*
X283622Y64961D02*
D03*
X265591D02*
D03*
X297087Y96653D02*
D03*
X315118D02*
D03*
X267559Y177362D02*
D03*
X120905Y101575D02*
D03*
X285591Y177362D02*
D03*
X138937Y101575D02*
D03*
X105472Y69882D02*
D03*
X87441D02*
D03*
D79*
X65945Y94685D02*
D03*
X30512Y75787D02*
D03*
X248031Y168307D02*
D03*
X219488Y168504D02*
D03*
X185039Y151575D02*
D03*
X274606Y89764D02*
D03*
X306102Y71850D02*
D03*
X276575Y152559D02*
D03*
X129921Y76772D02*
D03*
X96457Y94685D02*
D03*
D80*
X44618Y121685D02*
D03*
Y114992D02*
D03*
X133858Y179134D02*
D03*
Y172441D02*
D03*
X295276Y185433D02*
D03*
Y178740D02*
D03*
X64961Y121457D02*
D03*
Y114764D02*
D03*
X173228Y129331D02*
D03*
Y122638D02*
D03*
X203740Y195276D02*
D03*
Y188583D02*
D03*
X63976Y161024D02*
D03*
Y167717D02*
D03*
D81*
X208170Y105689D02*
D03*
Y110689D02*
D03*
Y115689D02*
D03*
Y120689D02*
D03*
X186714Y105689D02*
D03*
Y110689D02*
D03*
Y115689D02*
D03*
Y120689D02*
D03*
D82*
X82677Y279528D02*
D03*
X49213Y282677D02*
D03*
Y279528D02*
D03*
Y276378D02*
D03*
Y273228D02*
D03*
Y270079D02*
D03*
Y266929D02*
D03*
Y263779D02*
D03*
Y260630D02*
D03*
X82677D02*
D03*
Y263779D02*
D03*
Y266929D02*
D03*
Y270079D02*
D03*
Y273228D02*
D03*
Y276378D02*
D03*
Y282677D02*
D03*
D83*
X319882Y280315D02*
D03*
Y286614D02*
D03*
X310039Y280315D02*
D03*
Y286614D02*
D03*
X147638Y320472D02*
D03*
X157874D02*
D03*
X106299Y353346D02*
D03*
X72835Y358465D02*
D03*
Y352165D02*
D03*
X106299Y359646D02*
D03*
X157874Y326772D02*
D03*
X147638D02*
D03*
D84*
X43307Y375295D02*
D03*
Y368799D02*
D03*
X57087Y375295D02*
D03*
Y368799D02*
D03*
D85*
X145866Y358268D02*
D03*
D86*
X155905D02*
D03*
D87*
X170768Y326772D02*
D03*
X170768Y334646D02*
D03*
Y342520D02*
D03*
Y350394D02*
D03*
Y358268D02*
D03*
Y366142D02*
D03*
Y374016D02*
D03*
Y381890D02*
D03*
X230807D02*
D03*
Y374016D02*
D03*
Y366142D02*
D03*
Y358268D02*
D03*
Y350394D02*
D03*
Y342520D02*
D03*
Y334646D02*
D03*
Y326772D02*
D03*
D88*
X125984Y126969D02*
D03*
X132677D02*
D03*
Y116142D02*
D03*
X125984D02*
D03*
X181299Y191929D02*
D03*
X187992D02*
D03*
X279921Y188976D02*
D03*
X273228D02*
D03*
X183071Y239173D02*
D03*
X176378D02*
D03*
X262402Y229331D02*
D03*
X269094D02*
D03*
D89*
X101378Y140217D02*
D03*
Y119626D02*
D03*
X226378Y211083D02*
D03*
Y190492D02*
D03*
X307087Y25138D02*
D03*
Y45728D02*
D03*
X374016Y289823D02*
D03*
Y269232D02*
D03*
D90*
X82677Y137598D02*
D03*
Y143898D02*
D03*
X158465Y148425D02*
D03*
Y154724D02*
D03*
X312992Y204528D02*
D03*
Y210827D02*
D03*
X202756Y211417D02*
D03*
Y217717D02*
D03*
D91*
X314961Y266043D02*
D03*
Y255610D02*
D03*
D92*
X149606Y155118D02*
D03*
Y148622D02*
D03*
X303150Y210925D02*
D03*
Y204429D02*
D03*
X211614Y218799D02*
D03*
Y212303D02*
D03*
X222441Y114567D02*
D03*
Y121063D02*
D03*
X76772Y142717D02*
D03*
Y136221D02*
D03*
D93*
X259547Y287402D02*
D03*
X252264D02*
D03*
D94*
X191929Y280807D02*
D03*
Y288090D02*
D03*
X337598Y329429D02*
D03*
Y322146D02*
D03*
X371063Y339862D02*
D03*
Y347146D02*
D03*
D95*
X308858Y377953D02*
D03*
X315158D02*
D03*
X308858Y370079D02*
D03*
X315158D02*
D03*
D96*
X322835Y326535D02*
D03*
Y331535D02*
D03*
Y336535D02*
D03*
Y341535D02*
D03*
Y346535D02*
D03*
Y351535D02*
D03*
Y356535D02*
D03*
Y361535D02*
D03*
X300394Y326535D02*
D03*
Y331535D02*
D03*
Y336535D02*
D03*
Y341535D02*
D03*
Y346535D02*
D03*
Y351535D02*
D03*
Y356535D02*
D03*
D97*
Y361535D02*
D03*
D98*
X372205Y156299D02*
D03*
X362205D02*
D03*
X352205D02*
D03*
D99*
X362205Y116142D02*
D03*
D100*
X95472Y274409D02*
D03*
Y266929D02*
D03*
X36417Y287992D02*
D03*
Y280512D02*
D03*
D101*
X54921Y254921D02*
D03*
X58071D02*
D03*
X61221D02*
D03*
X64370D02*
D03*
X67520D02*
D03*
X70669D02*
D03*
X73819D02*
D03*
X76968D02*
D03*
Y288386D02*
D03*
X73819D02*
D03*
X70669D02*
D03*
X67520D02*
D03*
X64370D02*
D03*
X61221D02*
D03*
X58071D02*
D03*
X54921D02*
D03*
D102*
X331693Y289567D02*
D03*
Y271457D02*
D03*
Y280512D02*
D03*
D103*
X122047Y348031D02*
D03*
X90551Y375394D02*
D03*
Y349016D02*
D03*
X122047Y374410D02*
D03*
D104*
X251181Y334646D02*
D03*
X150197Y366142D02*
D03*
X156890D02*
D03*
X150197Y377953D02*
D03*
X156890D02*
D03*
X251181Y351575D02*
D03*
X244488D02*
D03*
X251181Y360236D02*
D03*
X244488D02*
D03*
X251181Y343307D02*
D03*
X244488D02*
D03*
Y334646D02*
D03*
D105*
X66929Y330512D02*
D03*
X76929D02*
D03*
X56929Y309252D02*
D03*
Y330512D02*
D03*
X66929Y309252D02*
D03*
X76929D02*
D03*
D106*
X376969Y86614D02*
D03*
X356378D02*
D03*
D107*
X342421Y206496D02*
D03*
X339862D02*
D03*
X337303D02*
D03*
X334744D02*
D03*
X342421Y183268D02*
D03*
X339862D02*
D03*
X337303D02*
D03*
X334744D02*
D03*
D108*
X220472Y22638D02*
D03*
Y62008D02*
D03*
D109*
X200592Y128937D02*
D03*
X194292D02*
D03*
D110*
X341496Y345276D02*
D03*
Y347835D02*
D03*
Y350394D02*
D03*
X333858Y345276D02*
D03*
Y347835D02*
D03*
Y350394D02*
D03*
D111*
X43307Y360236D02*
D03*
Y354134D02*
D03*
X57087Y360433D02*
D03*
Y354331D02*
D03*
D112*
X73819Y238189D02*
D03*
X79724D02*
D03*
D113*
X71850Y228346D02*
D03*
X79921D02*
D03*
D114*
X359252Y280512D02*
D03*
D115*
X365158Y63976D02*
D03*
X375000D02*
D03*
X366142Y182087D02*
D03*
X375984D02*
D03*
X366142Y210630D02*
D03*
X375984D02*
D03*
X289370Y293307D02*
D03*
Y283465D02*
D03*
D116*
X327756Y29724D02*
D03*
X337598D02*
D03*
X61024D02*
D03*
X51181D02*
D03*
X125984D02*
D03*
X116142D02*
D03*
D117*
X357362Y320866D02*
D03*
Y324606D02*
D03*
Y332087D02*
D03*
Y335827D02*
D03*
Y339567D02*
D03*
Y343307D02*
D03*
Y347047D02*
D03*
X351850Y320866D02*
D03*
Y324606D02*
D03*
Y328346D02*
D03*
Y332087D02*
D03*
Y335827D02*
D03*
Y343307D02*
D03*
Y347047D02*
D03*
X107283Y334646D02*
D03*
X134843D02*
D03*
X147638Y350394D02*
D03*
X142717Y375984D02*
D03*
X14764Y280512D02*
D03*
X12342Y214567D02*
D03*
X26575Y218504D02*
D03*
X222441Y234252D02*
D03*
X342520Y213583D02*
D03*
X96457Y309055D02*
D03*
X135827Y326772D02*
D03*
X115157Y162402D02*
D03*
X181102Y126969D02*
D03*
X89567Y282480D02*
D03*
X91535Y287402D02*
D03*
X339567Y85630D02*
D03*
Y81037D02*
D03*
Y76444D02*
D03*
Y71850D02*
D03*
X334646Y16732D02*
D03*
X337598D02*
D03*
X340551D02*
D03*
X343504D02*
D03*
X374016Y351093D02*
D03*
X337598Y319110D02*
D03*
X310039Y294291D02*
D03*
X331693Y295276D02*
D03*
X319882Y294291D02*
D03*
X42323Y172244D02*
D03*
X45276Y191929D02*
D03*
X42323Y187008D02*
D03*
X11524Y119095D02*
D03*
X302165Y377953D02*
D03*
X303150Y370079D02*
D03*
X290354Y361221D02*
D03*
X255906Y338583D02*
D03*
X43727Y276994D02*
D03*
X43293Y270578D02*
D03*
X29528Y261811D02*
D03*
X102362Y270669D02*
D03*
X81693Y328740D02*
D03*
X72835Y364173D02*
D03*
X62992Y375000D02*
D03*
X49213D02*
D03*
X98425D02*
D03*
X116142Y345472D02*
D03*
X106299Y346457D02*
D03*
X157480Y312008D02*
D03*
X147638Y313976D02*
D03*
X230315Y320866D02*
D03*
X250984Y328740D02*
D03*
X173228Y187992D02*
D03*
X266732Y168307D02*
D03*
X314961Y249016D02*
D03*
X339403Y177330D02*
D03*
X332677Y179134D02*
D03*
X363189Y167323D02*
D03*
Y95472D02*
D03*
X327756Y153543D02*
D03*
X320866Y152559D02*
D03*
X296260Y36417D02*
D03*
X156496Y13780D02*
D03*
X181102D02*
D03*
X170276Y88583D02*
D03*
X71850Y146653D02*
D03*
X125984Y102362D02*
D03*
X21654Y110236D02*
D03*
X36417Y293307D02*
D03*
X25591Y292323D02*
D03*
X15748Y342520D02*
D03*
X247047Y217520D02*
D03*
X67913Y248031D02*
D03*
X170276Y147638D02*
D03*
X249016Y132874D02*
D03*
X267717Y196850D02*
D03*
X294291Y191929D02*
D03*
X333661Y211614D02*
D03*
X334646Y189961D02*
D03*
X258858Y102362D02*
D03*
X230315Y115157D02*
D03*
X296260Y47244D02*
D03*
X66929Y319882D02*
D03*
X70866Y261811D02*
D03*
X57087Y263779D02*
D03*
X33465Y133858D02*
D03*
X57021Y272572D02*
D03*
X66929Y267157D02*
D03*
X60811Y264764D02*
D03*
X19685Y129921D02*
D03*
X69882Y278543D02*
D03*
X62992Y277559D02*
D03*
X24606Y234252D02*
D03*
X42323Y281496D02*
D03*
X56102Y301181D02*
D03*
X66929D02*
D03*
X76772Y317913D02*
D03*
X49213Y324803D02*
D03*
X374016Y300197D02*
D03*
X238779Y351378D02*
D03*
X330709Y341535D02*
D03*
D118*
X362205Y325787D02*
D03*
Y341535D02*
D03*
X347008D02*
D03*
Y325787D02*
D03*
D119*
X21654Y372047D02*
D03*
Y21654D02*
D03*
X372047D02*
D03*
Y372047D02*
D03*
D120*
X131890Y370079D02*
D03*
X348425Y350394D02*
D03*
D121*
X17717Y285374D02*
D03*
X16220Y248031D02*
D03*
Y271654D02*
D03*
X17717Y236220D02*
D03*
Y212598D02*
D03*
X11811Y200787D02*
D03*
X23622Y198130D02*
D03*
X348425Y259842D02*
D03*
X360236D02*
D03*
X366142Y200787D02*
D03*
X348425Y212598D02*
D03*
X254159Y235999D02*
D03*
X157486Y254363D02*
D03*
X206693Y238130D02*
D03*
X140964Y270885D02*
D03*
X218504Y238130D02*
D03*
X147638Y307086D02*
D03*
Y259842D02*
D03*
X183071D02*
D03*
X265748Y236220D02*
D03*
X82677Y295275D02*
D03*
X129921Y318898D02*
D03*
X206693Y307086D02*
D03*
X230315D02*
D03*
X194882D02*
D03*
X171260D02*
D03*
X183071D02*
D03*
X218504D02*
D03*
X153543Y295275D02*
D03*
X165354D02*
D03*
X372047Y330709D02*
D03*
X366142Y295275D02*
D03*
X372047Y283465D02*
D03*
X366142Y248031D02*
D03*
X372047Y165354D02*
D03*
Y141732D02*
D03*
X360236Y377953D02*
D03*
X354331Y366142D02*
D03*
X360236Y354331D02*
D03*
X354331Y295275D02*
D03*
Y271654D02*
D03*
Y224409D02*
D03*
Y200787D02*
D03*
X348425Y377953D02*
D03*
X342520Y342520D02*
D03*
Y295275D02*
D03*
X348425Y283465D02*
D03*
X342520Y271654D02*
D03*
Y248031D02*
D03*
Y153543D02*
D03*
X348425Y94488D02*
D03*
X330709Y366142D02*
D03*
X336614Y354331D02*
D03*
Y259842D02*
D03*
X330709Y248031D02*
D03*
Y200787D02*
D03*
X336614Y165354D02*
D03*
Y141732D02*
D03*
X330709Y106299D02*
D03*
Y82677D02*
D03*
Y11811D02*
D03*
X324803Y259842D02*
D03*
Y212598D02*
D03*
X318898Y200787D02*
D03*
X324803Y188976D02*
D03*
X318898Y177165D02*
D03*
Y129921D02*
D03*
X324803Y118110D02*
D03*
X318898Y106299D02*
D03*
X324803Y94488D02*
D03*
Y70866D02*
D03*
Y47244D02*
D03*
X318898Y11811D02*
D03*
X307086Y342520D02*
D03*
X312992Y330709D02*
D03*
X307086Y271654D02*
D03*
Y248031D02*
D03*
Y224409D02*
D03*
X312992Y188976D02*
D03*
X307086Y177165D02*
D03*
X312992Y165354D02*
D03*
X307086Y106299D02*
D03*
Y35433D02*
D03*
Y11811D02*
D03*
X295275Y318898D02*
D03*
X301181Y307086D02*
D03*
X295275Y271654D02*
D03*
X301181Y259842D02*
D03*
X295275Y224409D02*
D03*
X301181Y188976D02*
D03*
Y165354D02*
D03*
Y141732D02*
D03*
X295275Y11811D02*
D03*
X289370Y377953D02*
D03*
X283465Y366142D02*
D03*
X289370Y330709D02*
D03*
X283465Y318898D02*
D03*
X289370Y307086D02*
D03*
X283465Y271654D02*
D03*
X289370Y259842D02*
D03*
X283465Y248031D02*
D03*
X289370Y188976D02*
D03*
Y118110D02*
D03*
X277559Y377953D02*
D03*
X271654Y366142D02*
D03*
X277559Y354331D02*
D03*
X271654Y342520D02*
D03*
X277559Y283465D02*
D03*
X271654Y248031D02*
D03*
X277559Y236220D02*
D03*
Y118110D02*
D03*
X265748Y377953D02*
D03*
X259842Y366142D02*
D03*
X265748Y354331D02*
D03*
Y307086D02*
D03*
X259842Y295275D02*
D03*
Y271654D02*
D03*
X265748Y212598D02*
D03*
Y118110D02*
D03*
X253937Y377953D02*
D03*
X248031Y366142D02*
D03*
Y318898D02*
D03*
X253937Y307086D02*
D03*
Y259842D02*
D03*
X248031Y224409D02*
D03*
Y200787D02*
D03*
X253937Y118110D02*
D03*
X236220Y318898D02*
D03*
X242126Y307086D02*
D03*
Y259842D02*
D03*
X236220Y200787D02*
D03*
X242126Y118110D02*
D03*
X230315Y377953D02*
D03*
X224409Y366142D02*
D03*
X230315Y354331D02*
D03*
X224409Y318898D02*
D03*
Y200787D02*
D03*
X218504Y377953D02*
D03*
X212598Y366142D02*
D03*
X218504Y354331D02*
D03*
Y330709D02*
D03*
X212598Y318898D02*
D03*
X218504Y141732D02*
D03*
X206693Y377953D02*
D03*
X200787Y366142D02*
D03*
X206693Y354331D02*
D03*
Y330709D02*
D03*
X200787Y318898D02*
D03*
Y200787D02*
D03*
Y177165D02*
D03*
Y153543D02*
D03*
Y82677D02*
D03*
X194882Y377953D02*
D03*
X188976Y366142D02*
D03*
X194882Y354331D02*
D03*
X188976Y318898D02*
D03*
Y271654D02*
D03*
X194882Y259842D02*
D03*
Y212598D02*
D03*
X188976Y177165D02*
D03*
X194882Y118110D02*
D03*
Y94488D02*
D03*
Y23622D02*
D03*
X188976Y11811D02*
D03*
X183071Y377953D02*
D03*
X177165Y366142D02*
D03*
Y342520D02*
D03*
Y318898D02*
D03*
X171260Y377953D02*
D03*
X165354Y318898D02*
D03*
X171260Y259842D02*
D03*
Y236220D02*
D03*
X165354Y224409D02*
D03*
X171260Y212598D02*
D03*
X165354Y200787D02*
D03*
Y177165D02*
D03*
X171260Y165354D02*
D03*
Y141732D02*
D03*
Y94488D02*
D03*
X165354Y82677D02*
D03*
X171260Y23622D02*
D03*
X165354Y11811D02*
D03*
X153543Y342520D02*
D03*
Y224409D02*
D03*
X159449Y212598D02*
D03*
X153543Y200787D02*
D03*
X159449Y188976D02*
D03*
Y141732D02*
D03*
X153543Y129921D02*
D03*
Y106299D02*
D03*
X159449Y94488D02*
D03*
X153543Y82677D02*
D03*
X141732Y366142D02*
D03*
Y342520D02*
D03*
X147638Y236220D02*
D03*
Y212598D02*
D03*
X141732Y200787D02*
D03*
X147638Y188976D02*
D03*
Y118110D02*
D03*
X141732Y11811D02*
D03*
X135827Y354331D02*
D03*
Y259842D02*
D03*
Y236220D02*
D03*
X129921Y224409D02*
D03*
X135827Y212598D02*
D03*
X129921Y11811D02*
D03*
X118110Y366142D02*
D03*
X124016Y330709D02*
D03*
X118110Y318898D02*
D03*
X124016Y259842D02*
D03*
Y236220D02*
D03*
Y212598D02*
D03*
X118110Y200787D02*
D03*
X124016Y188976D02*
D03*
X118110Y177165D02*
D03*
Y129921D02*
D03*
Y11811D02*
D03*
X112205Y377953D02*
D03*
Y330709D02*
D03*
X106299Y318898D02*
D03*
X112205Y259842D02*
D03*
Y236220D02*
D03*
Y188976D02*
D03*
X106299Y177165D02*
D03*
Y11811D02*
D03*
X94488Y366142D02*
D03*
X100394Y330709D02*
D03*
X94488Y318898D02*
D03*
X100394Y259842D02*
D03*
Y236220D02*
D03*
X94488Y224409D02*
D03*
Y200787D02*
D03*
X100394Y188976D02*
D03*
X94488Y177165D02*
D03*
Y59055D02*
D03*
Y11811D02*
D03*
X82677Y366142D02*
D03*
Y318898D02*
D03*
X88583Y259842D02*
D03*
Y212598D02*
D03*
Y188976D02*
D03*
X82677Y177165D02*
D03*
X88583Y165354D02*
D03*
X82677Y59055D02*
D03*
Y11811D02*
D03*
X76772Y377953D02*
D03*
Y212598D02*
D03*
X70866Y200787D02*
D03*
Y177165D02*
D03*
Y59055D02*
D03*
Y11811D02*
D03*
X64961Y354331D02*
D03*
X59055Y224409D02*
D03*
Y200787D02*
D03*
Y177165D02*
D03*
X64961Y70866D02*
D03*
X59055Y59055D02*
D03*
Y11811D02*
D03*
X47244Y366142D02*
D03*
Y342520D02*
D03*
Y295275D02*
D03*
Y177165D02*
D03*
X53150Y141732D02*
D03*
X47244Y129921D02*
D03*
Y106299D02*
D03*
Y82677D02*
D03*
Y11811D02*
D03*
X35433Y366142D02*
D03*
Y342520D02*
D03*
X41339Y330709D02*
D03*
X35433Y318898D02*
D03*
Y248031D02*
D03*
X41339Y165354D02*
D03*
X35433Y59055D02*
D03*
Y35433D02*
D03*
X41339Y23622D02*
D03*
X35433Y11811D02*
D03*
X29528Y354331D02*
D03*
X23622Y342520D02*
D03*
X29528Y330709D02*
D03*
X23622Y318898D02*
D03*
Y271654D02*
D03*
Y153543D02*
D03*
X29528Y94488D02*
D03*
X23622Y59055D02*
D03*
X29528Y47244D02*
D03*
X23622Y35433D02*
D03*
X17717Y354331D02*
D03*
X11811Y318898D02*
D03*
Y295275D02*
D03*
X17717Y259842D02*
D03*
Y188976D02*
D03*
X11811Y177165D02*
D03*
X17717Y165354D02*
D03*
X11811Y153543D02*
D03*
X17717Y141732D02*
D03*
X11811Y129921D02*
D03*
Y106299D02*
D03*
Y82677D02*
D03*
Y59055D02*
D03*
X17717Y47244D02*
D03*
X11811Y35433D02*
D03*
Y11811D02*
D03*
M02*
