G04*
G04 #@! TF.GenerationSoftware,Altium Limited,Altium Designer,21.4.1 (30)*
G04*
G04 Layer_Physical_Order=2*
G04 Layer_Color=16711680*
%FSLAX25Y25*%
%MOIN*%
G70*
G04*
G04 #@! TF.SameCoordinates,7B2BD0F0-F325-43E0-8A4B-F521747280A9*
G04*
G04*
G04 #@! TF.FilePolarity,Positive*
G04*
G01*
G75*
%ADD15C,0.01000*%
%ADD122C,0.04000*%
%ADD126C,0.04724*%
%ADD127C,0.06890*%
%ADD128C,0.02362*%
%ADD129O,0.02756X0.06299*%
%ADD130C,0.19685*%
%ADD131C,0.05000*%
%ADD132C,0.02756*%
G36*
X238769Y392078D02*
X239149Y390495D01*
X239772Y388991D01*
X240623Y387603D01*
X241680Y386365D01*
X242918Y385308D01*
X244306Y384457D01*
X245810Y383834D01*
X247393Y383454D01*
X249016Y383326D01*
X383326D01*
X383326Y102362D01*
X383326Y102362D01*
Y10374D01*
X10374Y10374D01*
Y212274D01*
X10875Y212541D01*
X11367Y212212D01*
X12342Y212018D01*
X13318Y212212D01*
X14145Y212765D01*
X14697Y213592D01*
X14891Y214567D01*
Y276050D01*
X16566Y277725D01*
X17119Y278552D01*
X17313Y279528D01*
Y280512D01*
X17119Y281487D01*
X16566Y282314D01*
X15739Y282867D01*
X14764Y283061D01*
X13788Y282867D01*
X12961Y282314D01*
X12409Y281487D01*
X12233Y280601D01*
X10875Y279243D01*
X10374Y279450D01*
Y383326D01*
X151575D01*
X153198Y383454D01*
X154781Y383834D01*
X156285Y384457D01*
X157673Y385308D01*
X158911Y386365D01*
X159968Y387603D01*
X160819Y388991D01*
X161442Y390495D01*
X161822Y392078D01*
X161886Y392898D01*
X238704D01*
X238769Y392078D01*
D02*
G37*
%LPC*%
G36*
X372861Y382390D02*
X371233D01*
X369625Y382135D01*
X368077Y381632D01*
X366627Y380893D01*
X365310Y379936D01*
X364158Y378785D01*
X363201Y377468D01*
X362462Y376017D01*
X361959Y374469D01*
X361705Y372861D01*
Y371233D01*
X361959Y369625D01*
X362462Y368077D01*
X363201Y366627D01*
X364158Y365310D01*
X365310Y364158D01*
X366627Y363201D01*
X368077Y362462D01*
X369625Y361959D01*
X371233Y361705D01*
X372861D01*
X374469Y361959D01*
X376017Y362462D01*
X377468Y363201D01*
X378785Y364158D01*
X379936Y365310D01*
X380893Y366627D01*
X381632Y368077D01*
X382135Y369625D01*
X382390Y371233D01*
Y372861D01*
X382135Y374469D01*
X381632Y376017D01*
X380893Y377468D01*
X379936Y378785D01*
X378785Y379936D01*
X377468Y380893D01*
X376017Y381632D01*
X374469Y382135D01*
X372861Y382390D01*
D02*
G37*
G36*
X22467D02*
X20840D01*
X19232Y382135D01*
X17683Y381632D01*
X16233Y380893D01*
X14916Y379936D01*
X13765Y378785D01*
X12808Y377468D01*
X12069Y376017D01*
X11566Y374469D01*
X11311Y372861D01*
Y371233D01*
X11566Y369625D01*
X12069Y368077D01*
X12808Y366627D01*
X13765Y365310D01*
X14916Y364158D01*
X16233Y363201D01*
X17683Y362462D01*
X19232Y361959D01*
X20840Y361705D01*
X22467D01*
X24075Y361959D01*
X25624Y362462D01*
X27074Y363201D01*
X28391Y364158D01*
X29542Y365310D01*
X30499Y366627D01*
X31238Y368077D01*
X31741Y369625D01*
X31996Y371233D01*
Y372861D01*
X31741Y374469D01*
X31238Y376017D01*
X30499Y377468D01*
X29542Y378785D01*
X28391Y379936D01*
X27074Y380893D01*
X25624Y381632D01*
X24075Y382135D01*
X22467Y382390D01*
D02*
G37*
G36*
X147972Y352075D02*
X147303D01*
X146686Y351819D01*
X146213Y351346D01*
X146133Y351153D01*
X145983D01*
X145593Y351075D01*
X145262Y350854D01*
X134122Y339714D01*
X133900Y339383D01*
X133823Y338993D01*
Y336003D01*
X133417Y335598D01*
X133161Y334980D01*
Y334311D01*
X133417Y333693D01*
X133890Y333221D01*
X134508Y332965D01*
X135177D01*
X135795Y333221D01*
X136268Y333693D01*
X136524Y334311D01*
Y334980D01*
X136268Y335598D01*
X135862Y336003D01*
Y338570D01*
X146405Y349113D01*
X146541D01*
X146686Y348969D01*
X147303Y348713D01*
X147972D01*
X148590Y348969D01*
X149063Y349441D01*
X149319Y350059D01*
Y350728D01*
X149063Y351346D01*
X148590Y351819D01*
X147972Y352075D01*
D02*
G37*
G36*
X352185Y348728D02*
X352100D01*
Y347297D01*
X353532D01*
Y347382D01*
X353276Y348000D01*
X352803Y348472D01*
X352185Y348728D01*
D02*
G37*
G36*
X357697D02*
X357612D01*
Y347297D01*
X359043D01*
Y347382D01*
X358787Y348000D01*
X358314Y348472D01*
X357697Y348728D01*
D02*
G37*
G36*
X357112D02*
X357028D01*
X356410Y348472D01*
X355937Y348000D01*
X355681Y347382D01*
Y347297D01*
X357112D01*
Y348728D01*
D02*
G37*
G36*
X142717Y378533D02*
X130724D01*
X129749Y378339D01*
X128922Y377787D01*
X125087Y373952D01*
X124535Y373125D01*
X124341Y372150D01*
Y335709D01*
X124535Y334733D01*
X125087Y333906D01*
X134024Y324969D01*
X134851Y324417D01*
X135827Y324223D01*
X189961D01*
X190936Y324417D01*
X191763Y324969D01*
X202828Y336034D01*
X254850D01*
X270020Y320864D01*
Y300266D01*
X270214Y299291D01*
X270766Y298464D01*
X286642Y282588D01*
X286703Y282360D01*
X287080Y281707D01*
X287613Y281174D01*
X288265Y280797D01*
X288993Y280602D01*
X289747D01*
X290475Y280797D01*
X291127Y281174D01*
X291660Y281707D01*
X292037Y282360D01*
X292232Y283088D01*
Y283841D01*
X292037Y284569D01*
X291660Y285222D01*
X291127Y285755D01*
X290475Y286132D01*
X290247Y286193D01*
X275117Y301322D01*
Y321920D01*
X274923Y322895D01*
X274371Y323722D01*
X257708Y340385D01*
X256881Y340938D01*
X255906Y341132D01*
X201772D01*
X200796Y340938D01*
X199969Y340385D01*
X188905Y329321D01*
X136883D01*
X129439Y336765D01*
Y367580D01*
X129939Y367787D01*
X130048Y367678D01*
X130732Y367283D01*
X131495Y367079D01*
X132285D01*
X133048Y367283D01*
X133172Y367355D01*
X142208Y358318D01*
X142539Y358097D01*
X142929Y358020D01*
X339357D01*
X345701Y351676D01*
X345630Y351552D01*
X345425Y350789D01*
Y349999D01*
X345630Y349236D01*
X346025Y348552D01*
X346583Y347993D01*
X347267Y347598D01*
X348030Y347394D01*
X348820D01*
X349583Y347598D01*
X349760Y347700D01*
X350086Y347446D01*
X350169Y347359D01*
Y347297D01*
X351600D01*
Y348728D01*
X351516D01*
X351502Y348723D01*
X351154Y349119D01*
X351221Y349236D01*
X351425Y349999D01*
Y350789D01*
X351221Y351552D01*
X350826Y352236D01*
X350267Y352794D01*
X349583Y353189D01*
X348820Y353394D01*
X348030D01*
X347267Y353189D01*
X347143Y353118D01*
X340500Y359760D01*
X340170Y359981D01*
X339779Y360059D01*
X143351D01*
X134614Y368797D01*
X134685Y368921D01*
X134890Y369684D01*
Y370474D01*
X134685Y371237D01*
X134290Y371921D01*
X133732Y372479D01*
X133048Y372874D01*
X132820Y372935D01*
X132886Y373435D01*
X142717D01*
X143692Y373629D01*
X144519Y374182D01*
X145071Y375009D01*
X145265Y375984D01*
X145071Y376960D01*
X144519Y377787D01*
X143692Y378339D01*
X142717Y378533D01*
D02*
G37*
G36*
X359043Y346797D02*
X357362D01*
X355681D01*
Y346713D01*
X355937Y346095D01*
X356410Y345622D01*
X356713Y345497D01*
Y344956D01*
X356359Y344809D01*
X355876Y344327D01*
X353336D01*
X352854Y344809D01*
X352500Y344956D01*
Y345497D01*
X352803Y345622D01*
X353276Y346095D01*
X353532Y346713D01*
Y346797D01*
X351850D01*
X350169D01*
Y346713D01*
X350425Y346095D01*
X350898Y345622D01*
X351201Y345497D01*
Y344956D01*
X350847Y344809D01*
X350348Y344311D01*
X350079Y343659D01*
Y342955D01*
X350348Y342303D01*
X350831Y341821D01*
Y339815D01*
X348858Y337842D01*
X348637Y337511D01*
X348559Y337121D01*
Y329491D01*
X348059Y329224D01*
X347776Y329413D01*
X347008Y329566D01*
X346240Y329413D01*
X345589Y328978D01*
X345154Y328327D01*
X345001Y327559D01*
Y324016D01*
X345154Y323248D01*
X345589Y322597D01*
X346240Y322162D01*
X347008Y322009D01*
X347776Y322162D01*
X348427Y322597D01*
X348862Y323248D01*
X349015Y324016D01*
Y325521D01*
X349477Y325712D01*
X350123Y325066D01*
X350079Y324959D01*
Y324254D01*
X350348Y323603D01*
X350847Y323104D01*
X351201Y322958D01*
Y322417D01*
X350898Y322291D01*
X350425Y321818D01*
X350169Y321200D01*
Y321116D01*
X351850D01*
X353532D01*
Y321200D01*
X353276Y321818D01*
X352803Y322291D01*
X352500Y322417D01*
Y322958D01*
X352854Y323104D01*
X353336Y323587D01*
X355876D01*
X356359Y323104D01*
X356713Y322958D01*
Y322417D01*
X356410Y322291D01*
X355937Y321818D01*
X355681Y321200D01*
Y321116D01*
X357362D01*
X359043D01*
Y321200D01*
X358787Y321818D01*
X358314Y322291D01*
X358012Y322417D01*
Y322958D01*
X358366Y323104D01*
X358864Y323603D01*
X359134Y324254D01*
Y324959D01*
X359072Y325108D01*
X359736Y325771D01*
X360198Y325580D01*
Y324016D01*
X360350Y323248D01*
X360786Y322597D01*
X361437Y322162D01*
X362205Y322009D01*
X362973Y322162D01*
X363624Y322597D01*
X364059Y323248D01*
X364212Y324016D01*
Y326894D01*
X364712Y327101D01*
X372996Y318817D01*
Y301555D01*
X372591Y301149D01*
X372335Y300531D01*
Y299863D01*
X372591Y299245D01*
X373063Y298772D01*
X373681Y298516D01*
X374350D01*
X374968Y298772D01*
X375441Y299245D01*
X375697Y299863D01*
Y300531D01*
X375441Y301149D01*
X375035Y301555D01*
Y319239D01*
X374958Y319629D01*
X374737Y319960D01*
X363948Y330749D01*
X363617Y330970D01*
X363227Y331047D01*
X361182D01*
X360792Y330970D01*
X360461Y330749D01*
X358765Y329052D01*
X358544Y328722D01*
X358467Y328331D01*
Y327386D01*
X357459Y326378D01*
X357010D01*
X356359Y326108D01*
X355876Y325626D01*
X353336D01*
X352854Y326108D01*
X352618Y326206D01*
Y326747D01*
X352854Y326845D01*
X353352Y327343D01*
X353622Y327994D01*
Y328699D01*
X353352Y329350D01*
X352854Y329848D01*
X352618Y329946D01*
Y330487D01*
X352854Y330585D01*
X353352Y331083D01*
X353622Y331734D01*
Y332416D01*
X355752Y334546D01*
X356137D01*
X356359Y334325D01*
X356594Y334227D01*
Y333686D01*
X356359Y333589D01*
X355860Y333090D01*
X355591Y332439D01*
Y331734D01*
X355860Y331083D01*
X356359Y330585D01*
X357010Y330315D01*
X357715D01*
X358366Y330585D01*
X358864Y331083D01*
X359134Y331734D01*
Y332439D01*
X358864Y333090D01*
X358366Y333589D01*
X358130Y333686D01*
Y334227D01*
X358366Y334325D01*
X358864Y334823D01*
X359134Y335474D01*
Y336179D01*
X358864Y336830D01*
X358366Y337329D01*
X358130Y337426D01*
Y337967D01*
X358366Y338065D01*
X358864Y338563D01*
X359134Y339214D01*
Y339919D01*
X358864Y340570D01*
X358366Y341069D01*
X358130Y341166D01*
Y341708D01*
X358366Y341805D01*
X358864Y342303D01*
X359134Y342955D01*
Y343659D01*
X358864Y344311D01*
X358366Y344809D01*
X358012Y344956D01*
Y345497D01*
X358314Y345622D01*
X358787Y346095D01*
X359043Y346713D01*
Y346797D01*
D02*
G37*
G36*
X239114Y353059D02*
X238445D01*
X237827Y352803D01*
X237354Y352330D01*
X237098Y351712D01*
Y351044D01*
X237354Y350426D01*
X237827Y349953D01*
X238445Y349697D01*
X239114D01*
X239732Y349953D01*
X240137Y350358D01*
X320444D01*
X329028Y341775D01*
Y341201D01*
X329283Y340583D01*
X329756Y340110D01*
X330374Y339854D01*
X331043D01*
X331661Y340110D01*
X332134Y340583D01*
X332390Y341201D01*
Y341870D01*
X332134Y342488D01*
X331661Y342961D01*
X331043Y343216D01*
X330469D01*
X321587Y352099D01*
X321256Y352320D01*
X320866Y352397D01*
X240137D01*
X239732Y352803D01*
X239114Y353059D01*
D02*
G37*
G36*
X362205Y345314D02*
X361437Y345161D01*
X360786Y344726D01*
X360350Y344075D01*
X360198Y343307D01*
Y339764D01*
X360350Y338996D01*
X360786Y338345D01*
X361437Y337910D01*
X362205Y337757D01*
X362973Y337910D01*
X363624Y338345D01*
X364059Y338996D01*
X364212Y339764D01*
Y343307D01*
X364059Y344075D01*
X363624Y344726D01*
X362973Y345161D01*
X362205Y345314D01*
D02*
G37*
G36*
X347008D02*
X346240Y345161D01*
X345589Y344726D01*
X345154Y344075D01*
X345001Y343307D01*
Y339764D01*
X345154Y338996D01*
X345589Y338345D01*
X346240Y337910D01*
X347008Y337757D01*
X347776Y337910D01*
X348427Y338345D01*
X348862Y338996D01*
X349015Y339764D01*
Y343307D01*
X348862Y344075D01*
X348427Y344726D01*
X347776Y345161D01*
X347008Y345314D01*
D02*
G37*
G36*
X107618Y336327D02*
X106949D01*
X106331Y336071D01*
X105926Y335665D01*
X93504D01*
X93114Y335588D01*
X92783Y335367D01*
X77011Y319595D01*
X76533D01*
X70603Y325524D01*
X70272Y325745D01*
X69882Y325823D01*
X50570D01*
X50165Y326228D01*
X49547Y326484D01*
X48878D01*
X48260Y326228D01*
X47787Y325755D01*
X47532Y325137D01*
Y324469D01*
X47787Y323851D01*
X48260Y323378D01*
X48878Y323122D01*
X49547D01*
X50165Y323378D01*
X50570Y323784D01*
X69460D01*
X75090Y318153D01*
Y317579D01*
X75346Y316961D01*
X75819Y316488D01*
X76437Y316232D01*
X77106D01*
X77724Y316488D01*
X78197Y316961D01*
X78453Y317579D01*
Y318153D01*
X93926Y333626D01*
X105926D01*
X106331Y333221D01*
X106949Y332965D01*
X107618D01*
X108236Y333221D01*
X108709Y333693D01*
X108965Y334311D01*
Y334980D01*
X108709Y335598D01*
X108236Y336071D01*
X107618Y336327D01*
D02*
G37*
G36*
X359043Y320616D02*
X357612D01*
Y319185D01*
X357697D01*
X358314Y319441D01*
X358787Y319914D01*
X359043Y320532D01*
Y320616D01*
D02*
G37*
G36*
X357112D02*
X355681D01*
Y320532D01*
X355937Y319914D01*
X356410Y319441D01*
X357028Y319185D01*
X357112D01*
Y320616D01*
D02*
G37*
G36*
X353532D02*
X352100D01*
Y319185D01*
X352185D01*
X352803Y319441D01*
X353276Y319914D01*
X353532Y320532D01*
Y320616D01*
D02*
G37*
G36*
X351600D02*
X350169D01*
Y320532D01*
X350425Y319914D01*
X350898Y319441D01*
X351516Y319185D01*
X351600D01*
Y320616D01*
D02*
G37*
G36*
X289747Y296169D02*
X289620D01*
Y293557D01*
X292232D01*
Y293684D01*
X292037Y294412D01*
X291660Y295064D01*
X291127Y295597D01*
X290475Y295974D01*
X289747Y296169D01*
D02*
G37*
G36*
X289120D02*
X288993D01*
X288265Y295974D01*
X287613Y295597D01*
X287080Y295064D01*
X286703Y294412D01*
X286508Y293684D01*
Y293557D01*
X289120D01*
Y296169D01*
D02*
G37*
G36*
X292232Y293057D02*
X289620D01*
Y290445D01*
X289747D01*
X290475Y290640D01*
X291127Y291017D01*
X291660Y291550D01*
X292037Y292202D01*
X292232Y292930D01*
Y293057D01*
D02*
G37*
G36*
X289120D02*
X286508D01*
Y292930D01*
X286703Y292202D01*
X287080Y291550D01*
X287613Y291017D01*
X288265Y290640D01*
X288993Y290445D01*
X289120D01*
Y293057D01*
D02*
G37*
G36*
X67264Y321563D02*
X66595D01*
X65977Y321307D01*
X65504Y320834D01*
X65248Y320216D01*
Y319548D01*
X65504Y318930D01*
X65977Y318457D01*
X66595Y318201D01*
X67168D01*
X71043Y314326D01*
Y280413D01*
X70543Y280089D01*
X70216Y280224D01*
X69547D01*
X68930Y279969D01*
X68457Y279496D01*
X68449Y279476D01*
X67949Y279576D01*
Y299823D01*
X68354Y300229D01*
X68610Y300847D01*
Y301516D01*
X68354Y302133D01*
X67881Y302606D01*
X67264Y302862D01*
X66595D01*
X65977Y302606D01*
X65504Y302133D01*
X65248Y301516D01*
Y300847D01*
X65504Y300229D01*
X65909Y299823D01*
Y268515D01*
X65504Y268110D01*
X65248Y267492D01*
Y266823D01*
X65504Y266205D01*
X65977Y265732D01*
X66595Y265476D01*
X67264D01*
X67881Y265732D01*
X68354Y266205D01*
X68362Y266225D01*
X68862Y266125D01*
Y264334D01*
X65011Y260483D01*
X64790Y260152D01*
X64713Y259762D01*
Y163661D01*
X64512Y163498D01*
X64012Y163736D01*
Y276201D01*
X64417Y276607D01*
X64673Y277225D01*
Y277893D01*
X64417Y278511D01*
X63944Y278984D01*
X63327Y279240D01*
X62658D01*
X62331Y279105D01*
X61831Y279428D01*
Y296472D01*
X61753Y296863D01*
X61532Y297193D01*
X57784Y300942D01*
Y301516D01*
X57528Y302133D01*
X57055Y302606D01*
X56437Y302862D01*
X55768D01*
X55150Y302606D01*
X54677Y302133D01*
X54421Y301516D01*
Y300847D01*
X54677Y300229D01*
X55150Y299756D01*
X55768Y299500D01*
X56341D01*
X59791Y296050D01*
Y266122D01*
X59386Y265716D01*
X59130Y265098D01*
Y264579D01*
X59130Y264546D01*
X58630Y264447D01*
X58625Y264458D01*
X58512Y264732D01*
X58039Y265205D01*
X57421Y265461D01*
X56752D01*
X56134Y265205D01*
X55661Y264732D01*
X55405Y264114D01*
Y263540D01*
X44555Y252690D01*
X44334Y252359D01*
X44256Y251969D01*
Y193287D01*
X43850Y192881D01*
X43842Y192862D01*
X43342Y192962D01*
Y257452D01*
X56782Y270891D01*
X57355D01*
X57973Y271147D01*
X58446Y271620D01*
X58702Y272237D01*
Y272906D01*
X58446Y273524D01*
X57973Y273997D01*
X57355Y274253D01*
X56686D01*
X56068Y273997D01*
X55596Y273524D01*
X55340Y272906D01*
Y272333D01*
X41602Y258595D01*
X41381Y258264D01*
X41303Y257874D01*
Y188366D01*
X40898Y187960D01*
X40642Y187342D01*
Y186673D01*
X40898Y186056D01*
X41371Y185583D01*
X41988Y185327D01*
X42657D01*
X43275Y185583D01*
X43748Y186056D01*
X44004Y186673D01*
Y187342D01*
X43748Y187960D01*
X43342Y188366D01*
Y190897D01*
X43842Y190996D01*
X43850Y190977D01*
X44323Y190504D01*
X44941Y190248D01*
X45610D01*
X46228Y190504D01*
X46701Y190977D01*
X46957Y191595D01*
Y192263D01*
X46701Y192881D01*
X46295Y193287D01*
Y251546D01*
X56847Y262098D01*
X57421D01*
X58039Y262354D01*
X58512Y262827D01*
X58768Y263445D01*
Y263964D01*
X58768Y263997D01*
X59268Y264097D01*
X59272Y264086D01*
X59386Y263811D01*
X59859Y263339D01*
X60477Y263083D01*
X61145D01*
X61472Y263218D01*
X61972Y262895D01*
Y163808D01*
X33704Y135539D01*
X33130D01*
X32512Y135283D01*
X32039Y134810D01*
X31784Y134193D01*
Y133524D01*
X32039Y132906D01*
X32512Y132433D01*
X32839Y132298D01*
X32964Y131715D01*
X32190Y130941D01*
X21043D01*
X20637Y131346D01*
X20019Y131602D01*
X19351D01*
X18733Y131346D01*
X18260Y130874D01*
X18004Y130256D01*
Y129587D01*
X18260Y128969D01*
X18733Y128496D01*
X19351Y128240D01*
X20019D01*
X20637Y128496D01*
X21043Y128902D01*
X32612D01*
X33002Y128979D01*
X33333Y129200D01*
X66453Y162320D01*
X66674Y162651D01*
X66752Y163041D01*
Y246162D01*
X67252Y246486D01*
X67579Y246350D01*
X68248D01*
X68866Y246606D01*
X69271Y247012D01*
X216113D01*
X245366Y217759D01*
Y217185D01*
X245622Y216567D01*
X246095Y216094D01*
X246713Y215839D01*
X247382D01*
X248000Y216094D01*
X248472Y216567D01*
X248728Y217185D01*
Y217854D01*
X248472Y218472D01*
X248000Y218945D01*
X247382Y219201D01*
X246808D01*
X217256Y248752D01*
X216926Y248973D01*
X216535Y249051D01*
X69271D01*
X68866Y249457D01*
X68248Y249713D01*
X67579D01*
X67252Y249577D01*
X66752Y249901D01*
Y259339D01*
X68723Y261311D01*
X69305Y261186D01*
X69441Y260859D01*
X69914Y260386D01*
X70532Y260130D01*
X71201D01*
X71818Y260386D01*
X72291Y260859D01*
X72547Y261477D01*
Y262145D01*
X72467Y262339D01*
X72784Y262655D01*
X73005Y262986D01*
X73083Y263376D01*
Y314748D01*
X73005Y315138D01*
X72784Y315469D01*
X68610Y319643D01*
Y320216D01*
X68354Y320834D01*
X67881Y321307D01*
X67264Y321563D01*
D02*
G37*
G36*
X42657Y283177D02*
X41988D01*
X41371Y282921D01*
X40898Y282448D01*
X40642Y281831D01*
Y281257D01*
X23885Y264500D01*
X23664Y264170D01*
X23587Y263779D01*
Y235610D01*
X23181Y235204D01*
X22925Y234586D01*
Y233918D01*
X23181Y233300D01*
X23654Y232827D01*
X24272Y232571D01*
X24941D01*
X25559Y232827D01*
X26032Y233300D01*
X26287Y233918D01*
Y234586D01*
X26032Y235204D01*
X25626Y235610D01*
Y263357D01*
X42084Y279815D01*
X42657D01*
X43275Y280071D01*
X43748Y280544D01*
X44004Y281162D01*
Y281831D01*
X43748Y282448D01*
X43275Y282921D01*
X42657Y283177D01*
D02*
G37*
G36*
X376361Y213492D02*
X376234D01*
Y210880D01*
X378847D01*
Y211007D01*
X378651Y211735D01*
X378275Y212387D01*
X377742Y212920D01*
X377089Y213297D01*
X376361Y213492D01*
D02*
G37*
G36*
X375734D02*
X375607D01*
X374880Y213297D01*
X374227Y212920D01*
X373694Y212387D01*
X373317Y211735D01*
X373122Y211007D01*
Y210880D01*
X375734D01*
Y213492D01*
D02*
G37*
G36*
X243110Y303185D02*
X106299D01*
X105909Y303107D01*
X105578Y302886D01*
X91775Y289083D01*
X91201D01*
X90583Y288827D01*
X90110Y288354D01*
X89854Y287736D01*
Y287067D01*
X90110Y286449D01*
X90583Y285976D01*
X91201Y285720D01*
X91870D01*
X92488Y285976D01*
X92961Y286449D01*
X93217Y287067D01*
Y287641D01*
X106721Y301146D01*
X242688D01*
X331980Y211853D01*
Y211280D01*
X332236Y210662D01*
X332709Y210189D01*
X333327Y209933D01*
X333996D01*
X334614Y210189D01*
X335087Y210662D01*
X335343Y211280D01*
Y211949D01*
X335087Y212566D01*
X334614Y213039D01*
X333996Y213295D01*
X333422D01*
X243831Y302886D01*
X243500Y303107D01*
X243110Y303185D01*
D02*
G37*
G36*
X378847Y210380D02*
X376234D01*
Y207768D01*
X376361D01*
X377089Y207963D01*
X377742Y208340D01*
X378275Y208873D01*
X378651Y209525D01*
X378847Y210253D01*
Y210380D01*
D02*
G37*
G36*
X375734D02*
X373122D01*
Y210253D01*
X373317Y209525D01*
X373694Y208873D01*
X374227Y208340D01*
X374880Y207963D01*
X375607Y207768D01*
X375734D01*
Y210380D01*
D02*
G37*
G36*
X366519Y213492D02*
X365765D01*
X365037Y213297D01*
X364384Y212920D01*
X363851Y212387D01*
X363475Y211735D01*
X363280Y211007D01*
Y210253D01*
X363475Y209525D01*
X363851Y208873D01*
X364384Y208340D01*
X365037Y207963D01*
X365765Y207768D01*
X366519D01*
X367247Y207963D01*
X367899Y208340D01*
X368432Y208873D01*
X368809Y209525D01*
X369004Y210253D01*
Y211007D01*
X368809Y211735D01*
X368432Y212387D01*
X367899Y212920D01*
X367247Y213297D01*
X366519Y213492D01*
D02*
G37*
G36*
X268051Y198531D02*
X267382D01*
X266764Y198275D01*
X266291Y197803D01*
X266035Y197185D01*
Y196516D01*
X266291Y195898D01*
X266764Y195425D01*
X267382Y195169D01*
X268051D01*
X268669Y195425D01*
X269074Y195831D01*
X288948D01*
X292610Y192168D01*
Y191595D01*
X292866Y190977D01*
X293339Y190504D01*
X293957Y190248D01*
X294626D01*
X295244Y190504D01*
X295717Y190977D01*
X295972Y191595D01*
Y192263D01*
X295717Y192881D01*
X295244Y193354D01*
X294626Y193610D01*
X294052D01*
X290091Y197571D01*
X289760Y197792D01*
X289370Y197870D01*
X269074D01*
X268669Y198275D01*
X268051Y198531D01*
D02*
G37*
G36*
X89901Y284161D02*
X89232D01*
X88615Y283906D01*
X88142Y283433D01*
X87886Y282815D01*
Y282146D01*
X88142Y281528D01*
X88615Y281055D01*
X89232Y280799D01*
X89901D01*
X90519Y281055D01*
X90925Y281461D01*
X241704D01*
X332965Y190200D01*
Y189626D01*
X333221Y189008D01*
X333693Y188535D01*
X334311Y188279D01*
X334980D01*
X335598Y188535D01*
X336071Y189008D01*
X336327Y189626D01*
Y190295D01*
X336071Y190913D01*
X335598Y191386D01*
X334980Y191642D01*
X334406D01*
X242847Y283201D01*
X242516Y283422D01*
X242126Y283500D01*
X90925D01*
X90519Y283906D01*
X89901Y284161D01*
D02*
G37*
G36*
X376361Y184949D02*
X376234D01*
Y182337D01*
X378847D01*
Y182463D01*
X378651Y183191D01*
X378275Y183844D01*
X377742Y184377D01*
X377089Y184754D01*
X376361Y184949D01*
D02*
G37*
G36*
X375734D02*
X375607D01*
X374880Y184754D01*
X374227Y184377D01*
X373694Y183844D01*
X373317Y183191D01*
X373122Y182463D01*
Y182337D01*
X375734D01*
Y184949D01*
D02*
G37*
G36*
X378847Y181837D02*
X376234D01*
Y179224D01*
X376361D01*
X377089Y179420D01*
X377742Y179796D01*
X378275Y180329D01*
X378651Y180982D01*
X378847Y181710D01*
Y181837D01*
D02*
G37*
G36*
X375734D02*
X373122D01*
Y181710D01*
X373317Y180982D01*
X373694Y180329D01*
X374227Y179796D01*
X374880Y179420D01*
X375607Y179224D01*
X375734D01*
Y181837D01*
D02*
G37*
G36*
X366519Y184949D02*
X365765D01*
X365037Y184754D01*
X364384Y184377D01*
X363851Y183844D01*
X363475Y183191D01*
X363280Y182463D01*
Y181710D01*
X363475Y180982D01*
X363851Y180329D01*
X364384Y179796D01*
X365037Y179420D01*
X365765Y179224D01*
X366519D01*
X367247Y179420D01*
X367899Y179796D01*
X368432Y180329D01*
X368809Y180982D01*
X369004Y181710D01*
Y182463D01*
X368809Y183191D01*
X368432Y183844D01*
X367899Y184377D01*
X367247Y184754D01*
X366519Y184949D01*
D02*
G37*
G36*
X127526Y173951D02*
X110445D01*
X109470Y173757D01*
X108643Y173204D01*
X103371Y167932D01*
X102818Y167105D01*
X102624Y166130D01*
Y40693D01*
X102818Y39718D01*
X103371Y38890D01*
X112197Y30064D01*
Y29205D01*
X112466Y28202D01*
X112985Y27302D01*
X113719Y26568D01*
X114619Y26048D01*
X115622Y25780D01*
X116661D01*
X117664Y26048D01*
X118564Y26568D01*
X119298Y27302D01*
X119818Y28202D01*
X120087Y29205D01*
Y30244D01*
X119818Y31247D01*
X119364Y32032D01*
X119764Y32339D01*
X122039Y30064D01*
Y29205D01*
X122308Y28202D01*
X122828Y27302D01*
X123562Y26568D01*
X124462Y26048D01*
X125465Y25780D01*
X126504D01*
X127507Y26048D01*
X128407Y26568D01*
X129141Y27302D01*
X129660Y28202D01*
X129929Y29205D01*
Y30244D01*
X129660Y31247D01*
X129141Y32147D01*
X128407Y32881D01*
X127507Y33400D01*
X126504Y33669D01*
X125644D01*
X112222Y47091D01*
Y163210D01*
X113365Y164353D01*
X114168D01*
X114268Y163853D01*
X114205Y163827D01*
X113732Y163354D01*
X113476Y162736D01*
Y162609D01*
X113475Y162607D01*
X113281Y161632D01*
Y158318D01*
X113475Y157342D01*
X114028Y156515D01*
X255613Y14930D01*
X256440Y14377D01*
X257416Y14183D01*
X343504D01*
X344479Y14377D01*
X345306Y14930D01*
X345859Y15757D01*
X346053Y16732D01*
X345859Y17708D01*
X345306Y18535D01*
X344479Y19087D01*
X343504Y19281D01*
X258471D01*
X118379Y159374D01*
Y160576D01*
X118403Y160599D01*
X118955Y161426D01*
X119149Y162402D01*
X118955Y163377D01*
X118637Y163853D01*
X118905Y164353D01*
X124607D01*
X157888Y131072D01*
X158715Y130519D01*
X159690Y130325D01*
X249016D01*
X249991Y130519D01*
X250818Y131072D01*
X251371Y131899D01*
X251565Y132874D01*
X251371Y133850D01*
X250818Y134676D01*
X249991Y135229D01*
X249016Y135423D01*
X160746D01*
X151580Y144589D01*
X151787Y145089D01*
X170276D01*
X171251Y145283D01*
X172078Y145835D01*
X172631Y146662D01*
X172825Y147638D01*
X172631Y148613D01*
X172078Y149440D01*
X171251Y149993D01*
X170276Y150187D01*
X152346D01*
X129329Y173204D01*
X128502Y173757D01*
X127526Y173951D01*
D02*
G37*
G36*
X230649Y116839D02*
X229981D01*
X229363Y116583D01*
X228890Y116110D01*
X228634Y115492D01*
Y114823D01*
X228890Y114205D01*
X229363Y113732D01*
X229981Y113476D01*
X230649D01*
X231267Y113732D01*
X231673Y114138D01*
X245641D01*
X257177Y102601D01*
Y102028D01*
X257433Y101410D01*
X257906Y100937D01*
X258524Y100681D01*
X259193D01*
X259810Y100937D01*
X260283Y101410D01*
X260539Y102028D01*
Y102697D01*
X260283Y103314D01*
X259810Y103787D01*
X259193Y104043D01*
X258619D01*
X246784Y115878D01*
X246453Y116100D01*
X246063Y116177D01*
X231673D01*
X231267Y116583D01*
X230649Y116839D01*
D02*
G37*
G36*
X222441Y236801D02*
X221465Y236607D01*
X220638Y236054D01*
X220086Y235227D01*
X219892Y234252D01*
X220086Y233277D01*
X220638Y232450D01*
X337018Y116070D01*
Y71850D01*
X337212Y70875D01*
X337765Y70048D01*
X338592Y69495D01*
X339567Y69301D01*
X340542Y69495D01*
X341369Y70048D01*
X341922Y70875D01*
X342116Y71850D01*
Y117126D01*
X341922Y118101D01*
X341369Y118928D01*
X224243Y236054D01*
X223416Y236607D01*
X222441Y236801D01*
D02*
G37*
G36*
X375377Y66839D02*
X375250D01*
Y64226D01*
X377862D01*
Y64353D01*
X377667Y65081D01*
X377290Y65734D01*
X376757Y66267D01*
X376105Y66644D01*
X375377Y66839D01*
D02*
G37*
G36*
X374750D02*
X374623D01*
X373895Y66644D01*
X373243Y66267D01*
X372710Y65734D01*
X372333Y65081D01*
X372138Y64353D01*
Y64226D01*
X374750D01*
Y66839D01*
D02*
G37*
G36*
X377862Y63726D02*
X375250D01*
Y61114D01*
X375377D01*
X376105Y61309D01*
X376757Y61686D01*
X377290Y62219D01*
X377667Y62872D01*
X377862Y63600D01*
Y63726D01*
D02*
G37*
G36*
X374750D02*
X372138D01*
Y63600D01*
X372333Y62872D01*
X372710Y62219D01*
X373243Y61686D01*
X373895Y61309D01*
X374623Y61114D01*
X374750D01*
Y63726D01*
D02*
G37*
G36*
X365534Y66839D02*
X364781D01*
X364053Y66644D01*
X363400Y66267D01*
X362867Y65734D01*
X362490Y65081D01*
X362295Y64353D01*
Y63600D01*
X362490Y62872D01*
X362867Y62219D01*
X363400Y61686D01*
X364053Y61309D01*
X364781Y61114D01*
X365534D01*
X366262Y61309D01*
X366915Y61686D01*
X367448Y62219D01*
X367825Y62872D01*
X368020Y63600D01*
Y64353D01*
X367825Y65081D01*
X367448Y65734D01*
X366915Y66267D01*
X366262Y66644D01*
X365534Y66839D01*
D02*
G37*
G36*
X181102Y129517D02*
X180127Y129323D01*
X179300Y128771D01*
X178747Y127944D01*
X178553Y126969D01*
X178747Y125993D01*
X179300Y125166D01*
X188577Y115889D01*
X188649Y115528D01*
X189201Y114701D01*
X199406Y104497D01*
X200233Y103944D01*
X201209Y103750D01*
X236149D01*
X294457Y45442D01*
X295284Y44889D01*
X296260Y44695D01*
X297235Y44889D01*
X298062Y45442D01*
X298615Y46269D01*
X298809Y47244D01*
X298615Y48219D01*
X298062Y49046D01*
X239007Y108102D01*
X238180Y108654D01*
X237205Y108848D01*
X202264D01*
X193430Y117682D01*
X193359Y118042D01*
X192806Y118869D01*
X182905Y128771D01*
X182078Y129323D01*
X181102Y129517D01*
D02*
G37*
G36*
X328275Y33669D02*
X328006D01*
Y29974D01*
X331701D01*
Y30244D01*
X331432Y31247D01*
X330913Y32147D01*
X330178Y32881D01*
X329279Y33400D01*
X328275Y33669D01*
D02*
G37*
G36*
X327506D02*
X327237D01*
X326233Y33400D01*
X325334Y32881D01*
X324599Y32147D01*
X324080Y31247D01*
X323811Y30244D01*
Y29974D01*
X327506D01*
Y33669D01*
D02*
G37*
G36*
X338118D02*
X337079D01*
X336076Y33400D01*
X335176Y32881D01*
X334442Y32147D01*
X333922Y31247D01*
X333653Y30244D01*
Y29205D01*
X333922Y28202D01*
X334442Y27302D01*
X335176Y26568D01*
X336076Y26048D01*
X337079Y25780D01*
X338118D01*
X339121Y26048D01*
X340021Y26568D01*
X340755Y27302D01*
X341274Y28202D01*
X341543Y29205D01*
Y30244D01*
X341274Y31247D01*
X340755Y32147D01*
X340021Y32881D01*
X339121Y33400D01*
X338118Y33669D01*
D02*
G37*
G36*
X331701Y29474D02*
X328006D01*
Y25780D01*
X328275D01*
X329279Y26048D01*
X330178Y26568D01*
X330913Y27302D01*
X331432Y28202D01*
X331701Y29205D01*
Y29474D01*
D02*
G37*
G36*
X327506D02*
X323811D01*
Y29205D01*
X324080Y28202D01*
X324599Y27302D01*
X325334Y26568D01*
X326233Y26048D01*
X327237Y25780D01*
X327506D01*
Y29474D01*
D02*
G37*
G36*
X61543Y33669D02*
X60504D01*
X59501Y33400D01*
X58601Y32881D01*
X57867Y32147D01*
X57348Y31247D01*
X57079Y30244D01*
Y29205D01*
X57348Y28202D01*
X57867Y27302D01*
X58601Y26568D01*
X59501Y26048D01*
X60504Y25780D01*
X61543D01*
X62546Y26048D01*
X63446Y26568D01*
X64180Y27302D01*
X64700Y28202D01*
X64969Y29205D01*
Y30244D01*
X64700Y31247D01*
X64180Y32147D01*
X63446Y32881D01*
X62546Y33400D01*
X61543Y33669D01*
D02*
G37*
G36*
X51701D02*
X50662D01*
X49658Y33400D01*
X48759Y32881D01*
X48024Y32147D01*
X47505Y31247D01*
X47236Y30244D01*
Y29205D01*
X47505Y28202D01*
X48024Y27302D01*
X48759Y26568D01*
X49658Y26048D01*
X50662Y25780D01*
X51701D01*
X52704Y26048D01*
X53603Y26568D01*
X54338Y27302D01*
X54857Y28202D01*
X55126Y29205D01*
Y30244D01*
X54857Y31247D01*
X54338Y32147D01*
X53603Y32881D01*
X52704Y33400D01*
X51701Y33669D01*
D02*
G37*
G36*
X372861Y31996D02*
X371233D01*
X369625Y31741D01*
X368077Y31238D01*
X366627Y30499D01*
X365310Y29542D01*
X364158Y28391D01*
X363201Y27074D01*
X362462Y25624D01*
X361959Y24075D01*
X361705Y22467D01*
Y20840D01*
X361959Y19232D01*
X362462Y17683D01*
X363201Y16233D01*
X364158Y14916D01*
X365310Y13765D01*
X366627Y12808D01*
X368077Y12069D01*
X369625Y11566D01*
X371233Y11311D01*
X372861D01*
X374469Y11566D01*
X376017Y12069D01*
X377468Y12808D01*
X378785Y13765D01*
X379936Y14916D01*
X380893Y16233D01*
X381632Y17683D01*
X382135Y19232D01*
X382390Y20840D01*
Y22467D01*
X382135Y24075D01*
X381632Y25624D01*
X380893Y27074D01*
X379936Y28391D01*
X378785Y29542D01*
X377468Y30499D01*
X376017Y31238D01*
X374469Y31741D01*
X372861Y31996D01*
D02*
G37*
G36*
X22467D02*
X20840D01*
X19232Y31741D01*
X17683Y31238D01*
X16233Y30499D01*
X14916Y29542D01*
X13765Y28391D01*
X12808Y27074D01*
X12069Y25624D01*
X11566Y24075D01*
X11311Y22467D01*
Y20840D01*
X11566Y19232D01*
X12069Y17683D01*
X12808Y16233D01*
X13765Y14916D01*
X14916Y13765D01*
X16233Y12808D01*
X17683Y12069D01*
X19232Y11566D01*
X20840Y11311D01*
X22467D01*
X24075Y11566D01*
X25624Y12069D01*
X27074Y12808D01*
X28391Y13765D01*
X29542Y14916D01*
X30499Y16233D01*
X31238Y17683D01*
X31741Y19232D01*
X31996Y20840D01*
Y22467D01*
X31741Y24075D01*
X31238Y25624D01*
X30499Y27074D01*
X29542Y28391D01*
X28391Y29542D01*
X27074Y30499D01*
X25624Y31238D01*
X24075Y31741D01*
X22467Y31996D01*
D02*
G37*
%LPD*%
D15*
X134843Y338993D02*
X145983Y350133D01*
X93504Y334646D02*
X107283D01*
X76772Y317913D02*
X93504Y334646D01*
X145983Y350133D02*
X147377D01*
X134843Y334646D02*
Y338993D01*
X147377Y350133D02*
X147638Y350394D01*
X142929Y359039D02*
X339779D01*
X131890Y370079D02*
X142929Y359039D01*
X89567Y282480D02*
X242126D01*
X91535Y287402D02*
X106299Y302165D01*
X242126Y282480D02*
X334646Y189961D01*
X106299Y302165D02*
X243110D01*
X333661Y211614D01*
X349579Y327052D02*
X351850Y324780D01*
X349579Y337121D02*
X351850Y339393D01*
X359486Y328331D02*
X361182Y330028D01*
X351850Y324606D02*
Y324780D01*
X357362Y324606D02*
Y324840D01*
X359486Y326964D01*
X357102Y335566D02*
X357362Y335827D01*
X355330Y335566D02*
X357102D01*
X351850Y332087D02*
X355330Y335566D01*
X66929Y267157D02*
Y301181D01*
X60811Y264764D02*
Y296472D01*
X56102Y301181D02*
X60811Y296472D01*
X70866Y261811D02*
Y262180D01*
X72063Y263376D01*
Y314748D01*
X66929Y319882D02*
X72063Y314748D01*
X246063Y115157D02*
X258858Y102362D01*
X230315Y115157D02*
X246063D01*
X289370Y196850D02*
X294291Y191929D01*
X267717Y196850D02*
X289370D01*
X216535Y248031D02*
X247047Y217520D01*
X67913Y248031D02*
X216535D01*
X374016Y300197D02*
Y319239D01*
X363227Y330028D02*
X374016Y319239D01*
X361182Y330028D02*
X363227D01*
X359486Y326964D02*
Y328331D01*
X349579Y327052D02*
Y337121D01*
X351850Y339393D02*
Y343307D01*
X357362D01*
X351850Y324606D02*
X357362D01*
X320866Y351378D02*
X330709Y341535D01*
X238779Y351378D02*
X320866D01*
X339779Y359039D02*
X348425Y350394D01*
X69882Y324803D02*
X76772Y317913D01*
X49213Y324803D02*
X69882D01*
X24606Y263779D02*
X42323Y281496D01*
X24606Y234252D02*
Y263779D01*
X42323Y257874D02*
X57021Y272572D01*
X42323Y187008D02*
Y257874D01*
X45276Y251969D02*
X57087Y263779D01*
X45276Y191929D02*
Y251969D01*
X62992Y163386D02*
Y277559D01*
X33465Y133858D02*
X62992Y163386D01*
X69882Y263911D02*
Y278543D01*
X65732Y259762D02*
X69882Y263911D01*
X65732Y163041D02*
Y259762D01*
X32612Y129921D02*
X65732Y163041D01*
X19685Y129921D02*
X32612D01*
D122*
X130724Y375984D02*
X142717D01*
X14764Y279528D02*
Y280512D01*
X12342Y214567D02*
Y277106D01*
X14764Y279528D01*
X222441Y234252D02*
X339567Y117126D01*
Y71850D02*
Y117126D01*
X115830Y158318D02*
Y161632D01*
Y158318D02*
X257416Y16732D01*
X337598D02*
X340551D01*
X257416D02*
X334646D01*
X340551D02*
X343504D01*
X334646D02*
X337598D01*
X115830Y161632D02*
X116600Y162402D01*
X191004Y116504D02*
Y117067D01*
X201209Y106299D02*
X237205D01*
X181102Y126969D02*
X191004Y117067D01*
Y116504D02*
X201209Y106299D01*
X237205D02*
X296260Y47244D01*
X255906Y338583D02*
X272568Y321920D01*
Y300266D02*
Y321920D01*
Y300266D02*
X289370Y283465D01*
X201772Y338583D02*
X255906D01*
X189961Y326772D02*
X201772Y338583D01*
X135827Y326772D02*
X189961D01*
X126890Y372150D02*
X130724Y375984D01*
X126890Y335709D02*
Y372150D01*
Y335709D02*
X135827Y326772D01*
X151290Y147638D02*
X170276D01*
X127526Y171402D02*
X151290Y147638D01*
X110445Y171402D02*
X127526D01*
X105173Y166130D02*
X110445Y171402D01*
X105173Y40693D02*
Y166130D01*
Y40693D02*
X116142Y29724D01*
X159690Y132874D02*
X249016D01*
X125663Y166902D02*
X159690Y132874D01*
X112309Y166902D02*
X125663D01*
X109673Y164266D02*
X112309Y166902D01*
X109673Y46035D02*
Y164266D01*
Y46035D02*
X125984Y29724D01*
D126*
X365158Y63976D02*
D03*
X375000D02*
D03*
X366142Y182087D02*
D03*
X375984D02*
D03*
X366142Y210630D02*
D03*
X375984D02*
D03*
X289370Y293307D02*
D03*
Y283465D02*
D03*
D127*
X327756Y29724D02*
D03*
X337598D02*
D03*
X61024D02*
D03*
X51181D02*
D03*
X125984D02*
D03*
X116142D02*
D03*
D128*
X357362Y320866D02*
D03*
Y324606D02*
D03*
Y332087D02*
D03*
Y335827D02*
D03*
Y339567D02*
D03*
Y343307D02*
D03*
Y347047D02*
D03*
X351850Y320866D02*
D03*
Y324606D02*
D03*
Y328346D02*
D03*
Y332087D02*
D03*
Y335827D02*
D03*
Y343307D02*
D03*
Y347047D02*
D03*
X107283Y334646D02*
D03*
X134843D02*
D03*
X147638Y350394D02*
D03*
X142717Y375984D02*
D03*
X14764Y280512D02*
D03*
X12342Y214567D02*
D03*
X26575Y218504D02*
D03*
X222441Y234252D02*
D03*
X342520Y213583D02*
D03*
X96457Y309055D02*
D03*
X135827Y326772D02*
D03*
X115157Y162402D02*
D03*
X181102Y126969D02*
D03*
X89567Y282480D02*
D03*
X91535Y287402D02*
D03*
X339567Y85630D02*
D03*
Y81037D02*
D03*
Y76444D02*
D03*
Y71850D02*
D03*
X334646Y16732D02*
D03*
X337598D02*
D03*
X340551D02*
D03*
X343504D02*
D03*
X374016Y351093D02*
D03*
X337598Y319110D02*
D03*
X310039Y294291D02*
D03*
X331693Y295276D02*
D03*
X319882Y294291D02*
D03*
X42323Y172244D02*
D03*
X45276Y191929D02*
D03*
X42323Y187008D02*
D03*
X11524Y119095D02*
D03*
X302165Y377953D02*
D03*
X303150Y370079D02*
D03*
X290354Y361221D02*
D03*
X255906Y338583D02*
D03*
X43727Y276994D02*
D03*
X43293Y270578D02*
D03*
X29528Y261811D02*
D03*
X102362Y270669D02*
D03*
X81693Y328740D02*
D03*
X72835Y364173D02*
D03*
X62992Y375000D02*
D03*
X49213D02*
D03*
X98425D02*
D03*
X116142Y345472D02*
D03*
X106299Y346457D02*
D03*
X157480Y312008D02*
D03*
X147638Y313976D02*
D03*
X230315Y320866D02*
D03*
X250984Y328740D02*
D03*
X173228Y187992D02*
D03*
X266732Y168307D02*
D03*
X314961Y249016D02*
D03*
X339403Y177330D02*
D03*
X332677Y179134D02*
D03*
X363189Y167323D02*
D03*
Y95472D02*
D03*
X327756Y153543D02*
D03*
X320866Y152559D02*
D03*
X296260Y36417D02*
D03*
X156496Y13780D02*
D03*
X181102D02*
D03*
X170276Y88583D02*
D03*
X71850Y146653D02*
D03*
X125984Y102362D02*
D03*
X21654Y110236D02*
D03*
X36417Y293307D02*
D03*
X25591Y292323D02*
D03*
X15748Y342520D02*
D03*
X247047Y217520D02*
D03*
X67913Y248031D02*
D03*
X170276Y147638D02*
D03*
X249016Y132874D02*
D03*
X267717Y196850D02*
D03*
X294291Y191929D02*
D03*
X333661Y211614D02*
D03*
X334646Y189961D02*
D03*
X258858Y102362D02*
D03*
X230315Y115157D02*
D03*
X296260Y47244D02*
D03*
X66929Y319882D02*
D03*
X70866Y261811D02*
D03*
X57087Y263779D02*
D03*
X33465Y133858D02*
D03*
X57021Y272572D02*
D03*
X66929Y267157D02*
D03*
X60811Y264764D02*
D03*
X19685Y129921D02*
D03*
X69882Y278543D02*
D03*
X62992Y277559D02*
D03*
X24606Y234252D02*
D03*
X42323Y281496D02*
D03*
X56102Y301181D02*
D03*
X66929D02*
D03*
X76772Y317913D02*
D03*
X49213Y324803D02*
D03*
X374016Y300197D02*
D03*
X238779Y351378D02*
D03*
X330709Y341535D02*
D03*
D129*
X362205Y325787D02*
D03*
Y341535D02*
D03*
X347008D02*
D03*
Y325787D02*
D03*
D130*
X21654Y372047D02*
D03*
Y21654D02*
D03*
X372047D02*
D03*
Y372047D02*
D03*
D131*
X131890Y370079D02*
D03*
X348425Y350394D02*
D03*
D132*
X17717Y285374D02*
D03*
X16220Y248031D02*
D03*
Y271654D02*
D03*
X17717Y236220D02*
D03*
Y212598D02*
D03*
X11811Y200787D02*
D03*
X23622Y198130D02*
D03*
X348425Y259842D02*
D03*
X360236D02*
D03*
X366142Y200787D02*
D03*
X348425Y212598D02*
D03*
X254159Y235999D02*
D03*
X157486Y254363D02*
D03*
X206693Y238130D02*
D03*
X140964Y270885D02*
D03*
X218504Y238130D02*
D03*
X147638Y307086D02*
D03*
Y259842D02*
D03*
X183071D02*
D03*
X265748Y236220D02*
D03*
X82677Y295275D02*
D03*
X129921Y318898D02*
D03*
X206693Y307086D02*
D03*
X230315D02*
D03*
X194882D02*
D03*
X171260D02*
D03*
X183071D02*
D03*
X218504D02*
D03*
X153543Y295275D02*
D03*
X165354D02*
D03*
X372047Y330709D02*
D03*
X366142Y295275D02*
D03*
X372047Y283465D02*
D03*
X366142Y248031D02*
D03*
X372047Y165354D02*
D03*
Y141732D02*
D03*
X360236Y377953D02*
D03*
X354331Y366142D02*
D03*
X360236Y354331D02*
D03*
X354331Y295275D02*
D03*
Y271654D02*
D03*
Y224409D02*
D03*
Y200787D02*
D03*
X348425Y377953D02*
D03*
X342520Y342520D02*
D03*
Y295275D02*
D03*
X348425Y283465D02*
D03*
X342520Y271654D02*
D03*
Y248031D02*
D03*
Y153543D02*
D03*
X348425Y94488D02*
D03*
X330709Y366142D02*
D03*
X336614Y354331D02*
D03*
Y259842D02*
D03*
X330709Y248031D02*
D03*
Y200787D02*
D03*
X336614Y165354D02*
D03*
Y141732D02*
D03*
X330709Y106299D02*
D03*
Y82677D02*
D03*
Y11811D02*
D03*
X324803Y259842D02*
D03*
Y212598D02*
D03*
X318898Y200787D02*
D03*
X324803Y188976D02*
D03*
X318898Y177165D02*
D03*
Y129921D02*
D03*
X324803Y118110D02*
D03*
X318898Y106299D02*
D03*
X324803Y94488D02*
D03*
Y70866D02*
D03*
Y47244D02*
D03*
X318898Y11811D02*
D03*
X307086Y342520D02*
D03*
X312992Y330709D02*
D03*
X307086Y271654D02*
D03*
Y248031D02*
D03*
Y224409D02*
D03*
X312992Y188976D02*
D03*
X307086Y177165D02*
D03*
X312992Y165354D02*
D03*
X307086Y106299D02*
D03*
Y35433D02*
D03*
Y11811D02*
D03*
X295275Y318898D02*
D03*
X301181Y307086D02*
D03*
X295275Y271654D02*
D03*
X301181Y259842D02*
D03*
X295275Y224409D02*
D03*
X301181Y188976D02*
D03*
Y165354D02*
D03*
Y141732D02*
D03*
X295275Y11811D02*
D03*
X289370Y377953D02*
D03*
X283465Y366142D02*
D03*
X289370Y330709D02*
D03*
X283465Y318898D02*
D03*
X289370Y307086D02*
D03*
X283465Y271654D02*
D03*
X289370Y259842D02*
D03*
X283465Y248031D02*
D03*
X289370Y188976D02*
D03*
Y118110D02*
D03*
X277559Y377953D02*
D03*
X271654Y366142D02*
D03*
X277559Y354331D02*
D03*
X271654Y342520D02*
D03*
X277559Y283465D02*
D03*
X271654Y248031D02*
D03*
X277559Y236220D02*
D03*
Y118110D02*
D03*
X265748Y377953D02*
D03*
X259842Y366142D02*
D03*
X265748Y354331D02*
D03*
Y307086D02*
D03*
X259842Y295275D02*
D03*
Y271654D02*
D03*
X265748Y212598D02*
D03*
Y118110D02*
D03*
X253937Y377953D02*
D03*
X248031Y366142D02*
D03*
Y318898D02*
D03*
X253937Y307086D02*
D03*
Y259842D02*
D03*
X248031Y224409D02*
D03*
Y200787D02*
D03*
X253937Y118110D02*
D03*
X236220Y318898D02*
D03*
X242126Y307086D02*
D03*
Y259842D02*
D03*
X236220Y200787D02*
D03*
X242126Y118110D02*
D03*
X230315Y377953D02*
D03*
X224409Y366142D02*
D03*
X230315Y354331D02*
D03*
X224409Y318898D02*
D03*
Y200787D02*
D03*
X218504Y377953D02*
D03*
X212598Y366142D02*
D03*
X218504Y354331D02*
D03*
Y330709D02*
D03*
X212598Y318898D02*
D03*
X218504Y141732D02*
D03*
X206693Y377953D02*
D03*
X200787Y366142D02*
D03*
X206693Y354331D02*
D03*
Y330709D02*
D03*
X200787Y318898D02*
D03*
Y200787D02*
D03*
Y177165D02*
D03*
Y153543D02*
D03*
Y82677D02*
D03*
X194882Y377953D02*
D03*
X188976Y366142D02*
D03*
X194882Y354331D02*
D03*
X188976Y318898D02*
D03*
Y271654D02*
D03*
X194882Y259842D02*
D03*
Y212598D02*
D03*
X188976Y177165D02*
D03*
X194882Y118110D02*
D03*
Y94488D02*
D03*
Y23622D02*
D03*
X188976Y11811D02*
D03*
X183071Y377953D02*
D03*
X177165Y366142D02*
D03*
Y342520D02*
D03*
Y318898D02*
D03*
X171260Y377953D02*
D03*
X165354Y318898D02*
D03*
X171260Y259842D02*
D03*
Y236220D02*
D03*
X165354Y224409D02*
D03*
X171260Y212598D02*
D03*
X165354Y200787D02*
D03*
Y177165D02*
D03*
X171260Y165354D02*
D03*
Y141732D02*
D03*
Y94488D02*
D03*
X165354Y82677D02*
D03*
X171260Y23622D02*
D03*
X165354Y11811D02*
D03*
X153543Y342520D02*
D03*
Y224409D02*
D03*
X159449Y212598D02*
D03*
X153543Y200787D02*
D03*
X159449Y188976D02*
D03*
Y141732D02*
D03*
X153543Y129921D02*
D03*
Y106299D02*
D03*
X159449Y94488D02*
D03*
X153543Y82677D02*
D03*
X141732Y366142D02*
D03*
Y342520D02*
D03*
X147638Y236220D02*
D03*
Y212598D02*
D03*
X141732Y200787D02*
D03*
X147638Y188976D02*
D03*
Y118110D02*
D03*
X141732Y11811D02*
D03*
X135827Y354331D02*
D03*
Y259842D02*
D03*
Y236220D02*
D03*
X129921Y224409D02*
D03*
X135827Y212598D02*
D03*
X129921Y11811D02*
D03*
X118110Y366142D02*
D03*
X124016Y330709D02*
D03*
X118110Y318898D02*
D03*
X124016Y259842D02*
D03*
Y236220D02*
D03*
Y212598D02*
D03*
X118110Y200787D02*
D03*
X124016Y188976D02*
D03*
X118110Y177165D02*
D03*
Y129921D02*
D03*
Y11811D02*
D03*
X112205Y377953D02*
D03*
Y330709D02*
D03*
X106299Y318898D02*
D03*
X112205Y259842D02*
D03*
Y236220D02*
D03*
Y188976D02*
D03*
X106299Y177165D02*
D03*
Y11811D02*
D03*
X94488Y366142D02*
D03*
X100394Y330709D02*
D03*
X94488Y318898D02*
D03*
X100394Y259842D02*
D03*
Y236220D02*
D03*
X94488Y224409D02*
D03*
Y200787D02*
D03*
X100394Y188976D02*
D03*
X94488Y177165D02*
D03*
Y59055D02*
D03*
Y11811D02*
D03*
X82677Y366142D02*
D03*
Y318898D02*
D03*
X88583Y259842D02*
D03*
Y212598D02*
D03*
Y188976D02*
D03*
X82677Y177165D02*
D03*
X88583Y165354D02*
D03*
X82677Y59055D02*
D03*
Y11811D02*
D03*
X76772Y377953D02*
D03*
Y212598D02*
D03*
X70866Y200787D02*
D03*
Y177165D02*
D03*
Y59055D02*
D03*
Y11811D02*
D03*
X64961Y354331D02*
D03*
X59055Y224409D02*
D03*
Y200787D02*
D03*
Y177165D02*
D03*
X64961Y70866D02*
D03*
X59055Y59055D02*
D03*
Y11811D02*
D03*
X47244Y366142D02*
D03*
Y342520D02*
D03*
Y295275D02*
D03*
Y177165D02*
D03*
X53150Y141732D02*
D03*
X47244Y129921D02*
D03*
Y106299D02*
D03*
Y82677D02*
D03*
Y11811D02*
D03*
X35433Y366142D02*
D03*
Y342520D02*
D03*
X41339Y330709D02*
D03*
X35433Y318898D02*
D03*
Y248031D02*
D03*
X41339Y165354D02*
D03*
X35433Y59055D02*
D03*
Y35433D02*
D03*
X41339Y23622D02*
D03*
X35433Y11811D02*
D03*
X29528Y354331D02*
D03*
X23622Y342520D02*
D03*
X29528Y330709D02*
D03*
X23622Y318898D02*
D03*
Y271654D02*
D03*
Y153543D02*
D03*
X29528Y94488D02*
D03*
X23622Y59055D02*
D03*
X29528Y47244D02*
D03*
X23622Y35433D02*
D03*
X17717Y354331D02*
D03*
X11811Y318898D02*
D03*
Y295275D02*
D03*
X17717Y259842D02*
D03*
Y188976D02*
D03*
X11811Y177165D02*
D03*
X17717Y165354D02*
D03*
X11811Y153543D02*
D03*
X17717Y141732D02*
D03*
X11811Y129921D02*
D03*
Y106299D02*
D03*
Y82677D02*
D03*
Y59055D02*
D03*
X17717Y47244D02*
D03*
X11811Y35433D02*
D03*
Y11811D02*
D03*
M02*
